# Blender 5.1.0
# www.blender.org
o inner.001
v -1.485000 0.000000 0.000000
v 1.485000 0.000000 0.000000
v -1.485000 2.970000 0.000000
v 1.485000 2.970000 0.000000
v -1.485000 0.000000 0.136620
v 1.485000 0.011880 0.148500
v -1.485000 0.166320 0.148500
v 1.485000 0.178200 0.136620
v -1.485000 0.178200 0.011880
v 1.485000 0.166320 0.000000
v -1.485000 2.791800 0.136620
v -1.485000 2.803680 -0.016837
v 1.485000 2.791800 -0.004957
v 1.485000 2.803680 0.148500
v -1.485000 2.958120 0.148500
v 1.485000 2.970000 0.136620
v -1.485000 2.803680 0.148500
v 1.485000 2.791800 0.136620
v -1.485000 0.178200 0.136620
v 1.485000 0.166320 0.148500
v -1.485000 0.011880 0.148500
v 1.485000 0.000000 0.136620
v -1.485000 2.970000 0.136620
v 1.485000 2.958120 0.148500
v -1.485000 2.791800 -0.004957
v 1.485000 2.803680 -0.016837
v -1.485000 0.166320 0.000000
v 1.485000 0.178200 0.011880
v -1.395900 2.791800 0.077651
v -1.395900 0.178200 0.077651
v -1.395900 0.178200 0.011880
v -1.395900 2.791800 0.011880
v -1.407780 0.178200 0.089531
v -1.407780 2.791800 0.089531
v -1.407780 0.178200 0.000000
v -1.407780 2.791800 0.000000
v -1.485000 0.178200 0.089531
v -1.485000 2.791800 0.089531
v 1.395900 2.791800 0.077651
v 1.395900 2.791800 0.011880
v 1.395900 0.178200 0.011880
v 1.395900 0.178200 0.077651
v 1.407780 2.791800 0.089531
v 1.407780 0.178200 0.089531
v 1.407780 2.791800 0.000000
v 1.407780 0.178200 0.000000
v 1.485000 0.178200 0.089531
v 1.485000 2.791800 0.089531
vn -0.0000 -0.0000 1.0000
vn -0.0000 1.0000 0.0001
vn -0.0000 1.0000 -0.0001
vn -0.0002 1.0000 0.0001
vn -0.0000 -0.0004 1.0000
vn -0.0000 0.0001 1.0000
vn 0.0001 -0.0005 1.0000
vn -0.0000 -1.0000 -0.0009
vn 0.0001 -1.0000 0.0001
vn -0.0000 -1.0000 0.0001
vn -0.0000 -0.0001 1.0000
vn -0.0000 -1.0000 -0.0001
vn -0.0000 1.0000 0.0018
vn -0.0000 0.0001 -1.0000
vn -0.0000 -1.0000 -0.0008
vn -0.0000 0.0002 -1.0000
vn 1.0000 -0.0000 -0.0000
vn 0.7071 -0.0000 0.7071
vn 0.7071 -0.0000 -0.7071
vn -1.0000 -0.0000 -0.0000
vn -0.7071 -0.0000 0.7071
vn -0.7071 -0.0000 -0.7071
vn 0.0001 0.0001 1.0000
vn -0.0002 0.0001 1.0000
vt 0.945153 0.843128
vt 0.103002 0.000977
vt 0.945153 0.000977
vt 0.945153 0.900245
vt 0.103002 0.935615
vt 0.103002 0.900245
vt 0.945153 0.851689
vt 0.103002 0.895481
vt 0.103002 0.851689
vt 0.094441 0.000977
vt 0.054296 0.843128
vt 0.054296 0.000977
vt 0.049532 0.843128
vt 0.005740 0.000977
vt 0.049532 0.000977
vt 0.103002 0.846925
vt 0.945153 0.846925
vt 0.000977 0.843128
vt 0.000977 0.000977
vt 0.099205 0.000977
vt 0.094441 0.843128
vt 0.945153 0.940379
vt 0.945153 0.935615
vt 0.975610 0.000977
vt 0.994259 0.742070
vt 0.975610 0.742070
vt 0.970846 0.742070
vt 0.999023 0.000977
vt 0.994259 0.000977
vt 0.948950 0.000977
vt 0.970846 0.000977
vt 0.000977 0.948940
vt 0.742070 0.967589
vt 0.000977 0.967589
vt 0.742070 0.994249
vt 0.000977 0.972353
vt 0.742070 0.972353
vt 0.000977 0.944176
vt 0.742070 0.948940
vt 0.103002 0.843128
vt 0.945153 0.895481
vt 0.005740 0.843128
vt 0.099205 0.843128
vt 0.103002 0.940379
vt 0.999023 0.742070
vt 0.948950 0.742070
vt 0.000977 0.994249
vt 0.742070 0.944176
s 1
f 2/1/1 3/2/1 1/3/1
f 8/4/2 9/5/3 19/6/4
f 6/7/5 7/8/6 21/9/7
f 25/10/8 18/11/9 11/12/10
f 14/13/11 15/14/6 17/15/11
f 14/13/11 11/12/10 18/11/9
f 7/8/6 8/4/2 19/6/4
f 6/7/5 5/16/12 22/17/12
f 15/14/6 16/18/13 23/19/13
f 12/20/14 13/21/15 25/10/8
f 10/22/16 9/5/3 28/23/3
f 30/24/17 32/25/17 29/26/17
f 34/27/18 30/24/18 29/26/18
f 35/28/19 32/25/19 31/29/19
f 34/27/1 37/30/1 33/31/1
f 40/32/20 42/33/20 39/34/20
f 47/35/1 43/36/1 44/37/1
f 44/37/21 39/34/21 42/33/21
f 45/38/22 41/39/22 40/32/22
f 2/1/1 4/40/1 3/2/1
f 8/4/2 28/23/3 9/5/3
f 6/7/5 20/41/23 7/8/6
f 25/10/8 13/21/15 18/11/9
f 14/13/11 24/42/24 15/14/6
f 14/13/11 17/15/11 11/12/10
f 7/8/6 20/41/23 8/4/2
f 6/7/5 21/9/7 5/16/12
f 15/14/6 24/42/24 16/18/13
f 12/20/14 26/43/14 13/21/15
f 10/22/16 27/44/16 9/5/3
f 30/24/17 31/29/17 32/25/17
f 34/27/18 33/31/18 30/24/18
f 35/28/19 36/45/19 32/25/19
f 34/27/1 38/46/1 37/30/1
f 40/32/20 41/39/20 42/33/20
f 47/35/1 48/47/1 43/36/1
f 44/37/21 43/36/21 39/34/21
f 45/38/22 46/48/22 41/39/22
