# Blender 5.1.0
# www.blender.org
o book
v -0.139239 -0.015000 -0.100227
v -0.139239 -0.015000 0.100000
v -0.139239 0.015000 0.100000
v -0.139239 0.015000 -0.100227
v 0.139243 0.015000 -0.100227
v 0.139235 0.015000 0.100000
v 0.139235 -0.015000 0.100000
v 0.139243 -0.015000 -0.100227
v 0.139243 -0.000000 -0.097963
v -0.139239 0.000000 -0.097963
v -0.139239 0.000000 0.100000
v 0.139235 0.000000 0.100000
v -0.145000 -0.017985 0.099957
v 0.145000 -0.020000 0.096694
v -0.145000 -0.020000 -0.105000
v 0.145000 -0.020000 -0.105000
v -0.145000 0.020000 0.096694
v 0.145000 0.017985 0.099957
v -0.145000 0.020000 -0.105000
v 0.145000 0.020000 -0.105000
v -0.145000 -0.015000 -0.105000
v -0.145000 -0.012984 0.096478
v -0.145000 0.015000 0.093216
v -0.145000 0.015000 -0.105000
v 0.145000 0.015000 -0.105000
v 0.145000 0.012984 0.096478
v 0.145000 -0.015000 0.093216
v 0.145000 -0.015000 -0.105000
v -0.139239 -0.015000 -0.100227
v -0.139239 -0.015000 0.093216
v -0.139239 0.012984 0.096478
v -0.139239 0.015000 -0.100227
v 0.139243 0.015000 -0.100227
v 0.139235 0.015000 0.093216
v 0.139235 -0.012984 0.096478
v 0.139243 -0.015000 -0.100227
v 0.145000 0.007915 0.105000
v 0.145000 -0.007915 0.105000
v -0.145000 -0.007915 0.105000
v -0.145000 0.007915 0.105000
v -0.145000 -0.005936 0.100000
v -0.145000 0.005936 0.100000
v 0.145000 0.005936 0.100000
v 0.145000 -0.005936 0.100000
v -0.139239 0.005936 0.100000
v -0.139239 -0.005936 0.100000
v 0.139235 -0.005936 0.100000
v 0.139235 0.005936 0.100000
v -0.145000 -0.020000 0.096694
v 0.145000 -0.017985 0.099957
v -0.145000 0.017985 0.099957
v 0.145000 0.020000 0.096694
v -0.145000 -0.015000 0.093216
v -0.145000 0.012984 0.096478
v 0.145000 0.015000 0.093216
v 0.145000 -0.012984 0.096478
v -0.139239 -0.012984 0.096478
v -0.139239 0.015000 0.093216
v 0.139235 0.012984 0.096478
v 0.139235 -0.015000 0.093216
vn 1.0000 -0.0000 -0.0000
vn -0.0000 -0.0000 -1.0000
vn -0.0000 0.1493 -0.9888
vn -1.0000 -0.0000 -0.0000
vn -0.0000 -0.1493 -0.9888
vn -0.0025 -1.0000 0.0008
vn -0.0000 -1.0000 -0.0000
vn 0.0024 -1.0000 0.0008
vn 0.0001 1.0000 -0.0000
vn 0.0006 1.0000 -0.0007
vn -0.0007 1.0000 -0.0006
vn -0.0011 0.2300 0.9732
vn 0.0063 -0.2300 0.9732
vn 0.0063 0.2301 0.9732
vn -0.0000 -1.0000 -0.0001
vn -0.0069 0.9619 -0.2733
vn -0.2737 0.9222 -0.2732
vn -0.0084 -0.2298 -0.9732
vn -0.0102 -0.2300 0.9731
vn -0.0069 -0.9619 -0.2733
vn -0.2993 -0.9060 -0.2993
vn 0.0089 -0.9619 -0.2733
vn 0.2992 -0.9060 -0.2993
vn 0.0826 -0.0001 -0.9966
vn 0.0064 0.9238 -0.3827
vn 0.2735 0.9222 -0.2734
vn -0.0000 1.0000 -0.0000
vn -0.0000 -0.2297 -0.9733
vn -0.0084 0.2297 -0.9732
vn -0.0000 -0.9619 -0.2733
vn 0.0070 -0.2297 -0.9732
vn -0.0000 0.9619 -0.2733
vn 0.0017 0.6749 0.7379
vn -0.0059 0.6749 0.7378
vn -0.0059 -0.6749 0.7379
vn 0.0017 -0.6750 0.7379
vn -0.0046 -0.6745 -0.7383
vn -0.0046 0.6745 -0.7383
vn 0.0050 0.3826 -0.9239
vn 0.0097 -0.6745 -0.7382
vn -0.0000 -0.6745 -0.7383
vn -0.0000 0.6745 -0.7383
vn -0.0000 0.2297 -0.9733
vn -0.0001 1.0000 -0.0000
vt 0.171158 0.589317
vt 0.141240 0.984167
vt 0.141240 0.584799
vt 0.958057 0.559568
vt 0.988145 0.000977
vt 0.988145 0.559568
vt 0.138068 0.984167
vt 0.108150 0.589317
vt 0.138068 0.584799
vt 0.201077 0.984167
vt 0.201077 0.584799
vt 0.927969 0.000977
vt 0.927969 0.559568
vt 0.078231 0.984167
vt 0.108149 0.984167
vt 0.496143 0.000977
vt 0.898509 0.581370
vt 0.496143 0.581370
vt 0.084418 0.581370
vt 0.486784 0.000977
vt 0.486784 0.581370
vt 0.021717 0.000977
vt 0.054319 0.598266
vt 0.021717 0.598266
vt 0.727789 0.759961
vt 0.332435 0.749988
vt 0.727789 0.749988
vt 0.318904 0.708230
vt 0.308931 0.735856
vt 0.308931 0.704283
vt 0.727789 0.680178
vt 0.332435 0.690151
vt 0.325499 0.680178
vt 0.914825 0.000977
vt 0.924798 0.579402
vt 0.914825 0.579402
vt 0.727796 0.677007
vt 0.332439 0.667034
vt 0.727796 0.667034
vt 0.318908 0.625275
vt 0.308935 0.652902
vt 0.308935 0.621329
vt 0.727796 0.597224
vt 0.332439 0.607197
vt 0.325502 0.597224
vt 0.911653 0.579404
vt 0.901680 0.000977
vt 0.911653 0.000977
vt 0.859274 0.979519
vt 0.847757 0.594052
vt 0.859274 0.584542
vt 0.012830 0.615938
vt 0.000977 0.640364
vt 0.000977 0.615938
vt 0.873971 0.604046
vt 0.862454 0.989513
vt 0.862454 0.604046
vt 0.294239 0.999023
vt 0.873970 0.999023
vt 0.294239 0.604046
vt 0.305747 0.989513
vt 0.012838 0.696962
vt 0.000977 0.672536
vt 0.012838 0.672536
vt 0.279542 0.979519
vt 0.291050 0.594052
vt 0.291067 0.979519
vt 0.279542 0.584542
vt 0.000977 0.000977
vt 0.000977 0.598266
vt 0.075059 0.598266
vt 0.054319 0.000977
vt 0.075059 0.000977
vt 0.325930 0.694173
vt 0.325930 0.745967
vt 0.318904 0.731909
vt 0.325933 0.611218
vt 0.325933 0.663012
vt 0.318908 0.648955
vt 0.012830 0.601438
vt 0.000977 0.601438
vt 0.012830 0.654864
vt 0.012830 0.640364
vt 0.012838 0.711462
vt 0.000977 0.696962
vt 0.012838 0.658036
vt 0.000977 0.658036
vt 0.489956 0.581370
vt 0.078231 0.581370
vt 0.084418 0.000977
vt 0.325499 0.759961
vt 0.318990 0.684198
vt 0.325502 0.677007
vt 0.318993 0.601244
vt 0.859274 0.986341
vt 0.847757 0.979519
vt 0.862454 0.597224
vt 0.873971 0.597224
vt 0.294239 0.597224
vt 0.305764 0.604046
vt 0.279542 0.986341
vt 0.291067 0.986341
vt 0.171158 0.984167
vt 0.958057 0.000977
vt 0.078231 0.584799
vt 0.898509 0.000977
vt 0.727789 0.690151
vt 0.924798 0.000977
vt 0.727796 0.607197
vt 0.901680 0.579404
vt 0.318990 0.755941
vt 0.318993 0.672987
vt 0.000977 0.654864
vt 0.000977 0.711462
vt 0.489956 0.000977
vt 0.078231 0.000977
vt 0.847757 0.986341
vt 0.305764 0.597224
s 1
f 9/1/1 7/2/1 8/3/1
f 10/4/2 8/5/3 1/6/3
f 2/7/4 10/8/4 1/9/4
f 6/10/1 9/1/1 5/11/1
f 5/12/5 10/4/2 4/13/5
f 3/14/4 10/8/4 11/15/4
f 49/16/6 16/17/7 14/18/8
f 17/19/9 20/20/10 19/21/11
f 40/22/12 38/23/13 37/24/14
f 15/25/15 53/26/16 21/27/17
f 42/28/18 39/29/19 40/30/12
f 19/31/11 23/32/20 17/33/9
f 20/34/10 24/35/21 19/36/11
f 20/37/10 55/38/22 25/39/23
f 44/40/24 37/41/14 38/42/13
f 16/43/7 27/44/25 14/45/8
f 15/46/15 28/47/26 16/48/7
f 53/49/16 29/50/27 21/51/17
f 45/52/28 41/53/29 42/54/18
f 23/55/20 32/56/7 58/57/30
f 25/58/23 32/56/7 24/59/21
f 55/60/22 33/61/7 25/58/23
f 44/62/24 48/63/28 43/64/31
f 27/65/25 36/66/27 60/67/32
f 28/68/26 29/50/27 36/66/27
f 51/69/33 37/24/14 18/70/34
f 50/71/35 39/72/19 13/73/36
f 40/30/12 54/74/37 42/28/18
f 22/75/38 39/29/19 41/76/29
f 38/42/13 56/77/39 44/40/24
f 26/78/40 37/41/14 43/79/31
f 31/80/41 42/54/18 54/81/37
f 57/82/42 41/53/29 46/83/43
f 56/84/39 47/85/43 44/62/24
f 26/86/40 48/63/28 59/87/41
f 50/88/35 49/16/6 14/18/8
f 51/89/33 52/90/44 17/19/9
f 49/91/6 22/75/38 53/26/16
f 17/33/9 54/74/37 51/92/33
f 52/93/44 26/78/40 55/38/22
f 14/45/8 56/77/39 50/94/35
f 22/95/38 30/96/32 53/49/16
f 23/55/20 31/97/41 54/98/37
f 26/99/40 34/100/30 55/60/22
f 56/101/39 60/67/32 35/102/42
f 9/1/1 12/103/1 7/2/1
f 10/4/2 9/104/2 8/5/3
f 2/7/4 11/15/4 10/8/4
f 6/10/1 12/103/1 9/1/1
f 5/12/5 9/104/2 10/4/2
f 3/14/4 4/105/4 10/8/4
f 49/16/6 15/106/15 16/17/7
f 17/19/9 52/90/44 20/20/10
f 40/22/12 39/72/19 38/23/13
f 15/25/15 49/91/6 53/26/16
f 42/28/18 41/76/29 39/29/19
f 19/31/11 24/107/21 23/32/20
f 20/34/10 25/108/23 24/35/21
f 20/37/10 52/93/44 55/38/22
f 44/40/24 43/79/31 37/41/14
f 16/43/7 28/109/26 27/44/25
f 15/46/15 21/110/17 28/47/26
f 53/49/16 30/96/32 29/50/27
f 45/52/28 46/83/43 41/53/29
f 23/55/20 24/59/21 32/56/7
f 25/58/23 33/61/7 32/56/7
f 55/60/22 34/100/30 33/61/7
f 44/62/24 47/85/43 48/63/28
f 27/65/25 28/68/26 36/66/27
f 28/68/26 21/51/17 29/50/27
f 51/69/33 40/22/12 37/24/14
f 50/71/35 38/23/13 39/72/19
f 40/30/12 51/92/33 54/74/37
f 22/75/38 13/111/36 39/29/19
f 38/42/13 50/94/35 56/77/39
f 26/78/40 18/112/34 37/41/14
f 31/80/41 45/52/28 42/54/18
f 57/82/42 22/113/38 41/53/29
f 56/84/39 35/114/42 47/85/43
f 26/86/40 43/64/31 48/63/28
f 50/88/35 13/115/36 49/16/6
f 51/89/33 18/116/34 52/90/44
f 49/91/6 13/111/36 22/75/38
f 17/33/9 23/32/20 54/74/37
f 52/93/44 18/112/34 26/78/40
f 14/45/8 27/44/25 56/77/39
f 22/95/38 57/117/42 30/96/32
f 23/55/20 58/57/30 31/97/41
f 26/99/40 59/118/41 34/100/30
f 56/101/39 27/65/25 60/67/32
