# Blender 5.1.0
# www.blender.org
o door_frame
v -0.830742 2.791918 0.123123
v -0.818862 2.791918 0.000000
v -0.830742 0.000000 0.011881
v -0.818862 0.000000 0.135004
v -0.664415 2.791918 0.135004
v -0.652535 0.000000 0.123123
v -0.664415 0.000000 0.000000
v -0.652535 2.791918 0.011881
v -0.818862 2.791918 0.135004
v -0.830742 0.000000 0.123123
v -0.652535 2.791918 0.123123
v -0.664415 0.000000 0.135003
v -0.830742 2.791918 0.011881
v -0.818862 0.000000 0.000000
v -0.652535 0.000000 0.011881
v -0.664415 2.791918 0.000000
v -1.485063 0.000000 0.136626
v 1.485063 0.011880 0.148506
v -1.485063 0.166327 0.148506
v 1.485063 0.178208 0.136626
v -1.485063 0.178208 0.011881
v 1.485063 0.166327 -0.000000
v -1.485063 2.791918 0.136626
v -1.485063 2.803799 -0.016837
v 1.485063 2.791918 -0.004957
v 1.485063 2.803799 0.148506
v -1.485063 2.958246 0.148506
v 1.485063 2.970126 0.136626
v -1.485063 2.803799 0.148506
v 1.485063 2.791918 0.136626
v -1.485063 0.178208 0.136626
v 1.485063 0.166327 0.148506
v -1.485063 0.011880 0.148506
v 1.485063 0.000000 0.136626
v -1.485063 2.970126 0.136626
v 1.485063 2.958246 0.148506
v -1.485063 2.791918 -0.004957
v 1.485063 2.803799 -0.016837
v -1.485063 0.166327 -0.000000
v 1.485063 0.178208 0.011881
v -1.395959 2.791918 0.077654
v -1.395959 0.178208 0.077654
v -1.395959 0.178208 0.011881
v -1.395959 2.791918 0.011881
v -1.407840 0.178208 0.089534
v -1.407840 2.791918 0.089534
v -1.407840 0.178208 0.000000
v -1.407840 2.791918 0.000000
v -1.485063 0.178208 0.089534
v -1.485063 2.791918 0.089534
v 1.395960 2.791918 0.077654
v 1.395960 2.791918 0.011881
v 1.395960 0.178208 0.011881
v 1.395960 0.178208 0.077654
v 1.407840 2.791918 0.089534
v 1.407840 0.178208 0.089534
v 1.407840 2.791918 0.000000
v 1.407840 0.178208 0.000000
v 1.485063 0.178208 0.089534
v 1.485063 2.791918 0.089534
v 0.654020 2.791918 0.123123
v 0.654020 2.791918 0.011881
v 0.654020 0.000000 0.011881
v 0.654020 0.000000 0.123123
v 0.832228 2.791918 0.123123
v 0.832228 0.000000 0.123123
v 0.832228 0.000000 0.011881
v 0.832228 2.791918 0.011881
v 0.665901 2.791918 0.135004
v 0.665901 0.000000 0.135004
v 0.820347 0.000000 0.135003
v 0.820347 2.791918 0.135004
v 0.665901 2.791918 0.000000
v 0.665901 0.000000 0.000000
v 0.820347 0.000000 0.000000
v 0.820347 2.791918 0.000000
v -0.692600 2.348311 0.110470
v -0.692600 2.348311 0.011881
v 0.692600 2.348311 0.011881
v 0.692600 2.348311 0.110470
v -0.692600 2.526519 0.110470
v 0.692600 2.526519 0.110470
v 0.692600 2.526519 0.011881
v -0.692600 2.526519 0.011881
v -0.692600 2.360192 0.122350
v 0.692600 2.360192 0.122350
v 0.692600 2.514638 0.122350
v -0.692600 2.514638 0.122350
v -0.692600 2.360192 0.000000
v 0.692600 2.360192 0.000000
v 0.692600 2.514638 0.000000
v -0.692600 2.514638 0.000000
v -0.687485 0.000000 0.136626
v 0.687485 0.000000 0.136626
v -0.687485 0.178208 0.136626
v 0.687485 0.178208 0.136626
v 0.687485 0.178208 0.011881
v -0.687485 0.178208 0.011881
v -0.687485 0.166327 0.148506
v 0.687485 0.166327 0.148506
v 0.687485 0.011880 0.148506
v -0.687485 0.011880 0.148506
v 0.687485 0.166327 -0.000000
v -0.687485 0.166327 -0.000000
v -1.485063 0.000000 -0.000000
v 1.485063 0.000000 -0.000000
v -1.485063 2.970126 0.000000
v 1.485063 2.970126 0.000000
v 0.678897 2.970126 0.000000
v -0.678897 2.970126 0.000000
v -0.678897 0.000000 -0.000000
v 0.678897 0.000000 -0.000000
v -1.485063 2.435503 0.000000
v 1.485063 2.435503 0.000000
v 0.678897 2.435503 0.000000
v -0.678897 2.435503 0.000000
vn -1.0000 -0.0000 0.0001
vn -1.0000 -0.0000 -0.0001
vn -1.0000 -0.0001 0.0001
vn 1.0000 -0.0000 0.0001
vn 1.0000 -0.0002 -0.0001
vn 1.0000 -0.0000 -0.0001
vn -0.0002 -0.0000 1.0000
vn 0.0002 -0.0000 1.0000
vn 0.0001 -0.0000 -1.0000
vn -0.0001 -0.0000 -1.0000
vn -0.0001 -1.0000 -0.0008
vn 0.0001 -1.0000 0.0001
vn -0.0000 -1.0000 0.0001
vn -0.0000 -0.0001 1.0000
vn -0.0000 0.0001 1.0000
vn -0.0000 1.0000 0.0018
vn -0.0000 0.0001 -1.0000
vn -0.0000 -1.0000 -0.0008
vn 1.0000 -0.0000 -0.0000
vn 0.7071 -0.0000 0.7071
vn 0.7071 -0.0000 -0.7071
vn -0.0000 -0.0000 1.0000
vn -1.0000 -0.0000 -0.0000
vn -0.7071 -0.0000 0.7071
vn -0.7071 -0.0000 -0.7071
vn -1.0000 0.0003 0.0001
vn 1.0000 -0.0000 0.0004
vn 1.0000 0.0003 -0.0001
vn -0.0001 -0.0000 1.0000
vn 0.0001 -0.0000 1.0000
vn -0.0001 -0.0001 1.0000
vn -0.0007 -0.0000 -1.0000
vn -1.0000 0.0002 -0.0001
vn 0.0005 -0.0000 -1.0000
vn -0.0000 -1.0000 -0.0000
vn -0.0000 1.0000 -0.0000
vn -0.0000 -0.7071 0.7071
vn -0.0000 0.7071 0.7071
vn -0.0000 -0.7071 -0.7071
vn -0.0000 0.7071 -0.7071
vn -0.0001 -0.0003 -1.0000
vn 0.0001 0.0001 1.0000
vn 0.0001 -0.0001 1.0000
vn -0.0006 -0.0000 -1.0000
vt 0.864666 0.000977
vt 0.894458 0.748671
vt 0.864666 0.748671
vt 0.787213 0.826149
vt 0.039517 0.796358
vt 0.787213 0.796358
vt 0.722822 0.908022
vt 0.000977 0.947954
vt 0.000977 0.908022
vt 0.861484 0.748671
vt 0.039517 0.829331
vt 0.039517 0.826149
vt 0.897639 0.000977
vt 0.894458 0.000977
vt 0.039517 0.793176
vt 0.031104 0.000977
vt 0.000977 0.894766
vt 0.000977 0.000977
vt 0.083693 0.789819
vt 0.042673 0.000977
vt 0.083693 0.000977
vt 0.086848 0.000977
vt 0.086848 0.789819
vt 0.039517 0.789819
vt 0.039517 0.000977
vt 0.036160 0.000977
vt 0.031104 0.894766
vt 0.951226 0.000977
vt 0.969142 0.712922
vt 0.951226 0.712922
vt 0.947990 0.712922
vt 0.972378 0.000977
vt 0.969142 0.000977
vt 0.000977 0.999023
vt 0.676746 0.979057
vt 0.676746 0.999023
vt 0.712922 0.972464
vt 0.000977 0.954548
vt 0.712922 0.954548
vt 0.975736 0.676748
vt 0.995702 0.000977
vt 0.995702 0.676748
vt 0.000977 0.951312
vt 0.712922 0.975700
vt 0.000977 0.972464
vt 0.787213 0.835870
vt 0.039517 0.865662
vt 0.039517 0.835870
vt 0.039517 0.872201
vt 0.775648 0.901532
vt 0.039517 0.901532
vt 0.944632 0.733424
vt 0.904114 0.000977
vt 0.944632 0.000977
vt 0.039517 0.832689
vt 0.900997 0.733424
vt 0.900997 0.000977
vt 0.787213 0.868844
vt 0.787213 0.865662
vt 0.775648 0.904664
vt 0.120751 0.246975
vt 0.534364 0.267791
vt 0.120750 0.267791
vt 0.503820 0.212767
vt 0.090206 0.233583
vt 0.090206 0.212767
vt 0.090206 0.315323
vt 0.458104 0.274304
vt 0.458104 0.315323
vt 0.458104 0.318479
vt 0.090206 0.318479
vt 0.090206 0.271148
vt 0.458104 0.271148
vt 0.120751 0.241958
vt 0.534364 0.246975
vt 0.503820 0.238600
vt 0.503820 0.233583
vt 0.887962 0.752029
vt 0.861484 0.991443
vt 0.861484 0.752029
vt 0.569243 0.212767
vt 0.542765 0.452182
vt 0.542765 0.212767
vt 0.134381 0.321836
vt 0.093361 0.533667
vt 0.093361 0.321836
vt 0.144049 0.533667
vt 0.185069 0.321836
vt 0.185069 0.533667
vt 0.137536 0.321836
vt 0.134381 0.533667
vt 0.188224 0.321836
vt 0.188224 0.533667
vt 0.140894 0.533667
vt 0.144049 0.321836
vt 0.090206 0.533667
vt 0.090206 0.321836
vt 0.537721 0.452182
vt 0.537721 0.212767
vt 0.893006 0.752029
vt 0.887962 0.991443
vt 0.719901 0.000977
vt 0.090206 0.209410
vt 0.090206 0.000977
vt 0.719901 0.768898
vt 0.858127 0.560465
vt 0.858127 0.768898
vt 0.719901 0.209410
vt 0.858127 0.209410
vt 0.858127 0.000977
vt 0.090206 0.560465
vt 0.090206 0.768898
vt 0.722822 0.947954
vt 0.861484 0.000977
vt 0.787213 0.829331
vt 0.897639 0.748671
vt 0.787213 0.793176
vt 0.042673 0.789819
vt 0.036160 0.894766
vt 0.947990 0.000977
vt 0.972378 0.712922
vt 0.000977 0.979057
vt 0.975736 0.000977
vt 0.712922 0.951312
vt 0.000977 0.975700
vt 0.775648 0.872201
vt 0.904114 0.733424
vt 0.787213 0.832689
vt 0.039517 0.868844
vt 0.039517 0.904664
vt 0.090206 0.274304
vt 0.534364 0.241958
vt 0.090206 0.238600
vt 0.569243 0.452183
vt 0.137536 0.533667
vt 0.140894 0.321836
vt 0.893006 0.991443
vt 0.719901 0.560465
s 1
f 1/1/1 3/2/2 10/3/3
f 11/4/4 15/5/5 8/6/6
f 4/7/7 5/8/8 9/9/7
f 4/10/7 1/1/1 10/3/3
f 11/4/4 12/11/8 6/12/4
f 2/13/9 3/2/2 13/14/2
f 7/15/10 8/6/6 15/5/5
f 37/16/11 30/17/12 23/18/13
f 26/19/14 27/20/15 29/21/14
f 26/19/14 23/22/13 30/23/12
f 27/20/15 28/24/16 35/25/16
f 24/26/17 25/27/18 37/16/11
f 42/28/19 44/29/19 41/30/19
f 46/31/20 42/28/20 41/30/20
f 47/32/21 44/29/21 43/33/21
f 46/34/22 49/35/22 45/36/22
f 52/37/23 54/38/23 51/39/23
f 59/40/22 55/41/22 56/42/22
f 56/43/24 51/39/24 54/38/24
f 57/44/25 53/45/25 52/37/25
f 61/46/1 63/47/2 64/48/26
f 65/49/27 67/50/28 68/51/6
f 70/52/29 72/53/30 69/54/31
f 70/55/29 61/46/1 64/48/26
f 72/53/30 66/56/27 65/57/27
f 73/58/32 63/47/2 62/59/33
f 75/60/34 68/51/6 67/50/28
f 78/61/35 80/62/35 77/63/35
f 82/64/36 84/65/36 81/66/36
f 86/67/22 88/68/22 85/69/22
f 86/67/37 77/70/37 80/71/37
f 88/68/38 82/72/38 81/73/38
f 89/74/39 79/75/39 78/61/39
f 91/76/40 84/65/40 83/77/40
f 40/78/36 96/79/36 20/80/36
f 31/81/36 98/82/36 21/83/36
f 32/84/22 101/85/22 18/86/22
f 33/87/22 99/88/22 19/89/22
f 20/90/38 100/91/38 32/84/38
f 19/89/38 95/92/38 31/93/38
f 17/94/37 102/95/37 33/87/37
f 18/86/37 94/96/37 34/97/37
f 21/83/40 104/98/40 39/99/40
f 22/100/40 97/101/40 40/78/40
f 114/102/22 112/103/22 106/104/22
f 113/105/22 110/106/22 107/107/22
f 110/106/22 115/108/22 109/109/22
f 109/109/22 114/102/22 108/110/22
f 111/111/22 113/105/22 105/112/22
f 1/1/1 13/14/2 3/2/2
f 11/4/4 6/12/4 15/5/5
f 4/7/7 12/113/8 5/8/8
f 4/10/7 9/114/7 1/1/1
f 11/4/4 5/115/8 12/11/8
f 2/13/9 14/116/9 3/2/2
f 7/15/10 16/117/41 8/6/6
f 37/16/11 25/27/18 30/17/12
f 26/19/14 36/118/42 27/20/15
f 26/19/14 29/21/14 23/22/13
f 27/20/15 36/118/42 28/24/16
f 24/26/17 38/119/17 25/27/18
f 42/28/19 43/33/19 44/29/19
f 46/31/20 45/120/20 42/28/20
f 47/32/21 48/121/21 44/29/21
f 46/34/22 50/122/22 49/35/22
f 52/37/23 53/45/23 54/38/23
f 59/40/22 60/123/22 55/41/22
f 56/43/24 55/124/24 51/39/24
f 57/44/25 58/125/25 53/45/25
f 61/46/1 62/59/33 63/47/2
f 65/49/27 66/126/27 67/50/28
f 70/52/29 71/127/43 72/53/30
f 70/55/29 69/128/31 61/46/1
f 72/53/30 71/127/43 66/56/27
f 73/58/32 74/129/44 63/47/2
f 75/60/34 76/130/34 68/51/6
f 78/61/35 79/75/35 80/62/35
f 82/64/36 83/77/36 84/65/36
f 86/67/22 87/131/22 88/68/22
f 86/67/37 85/69/37 77/70/37
f 88/68/38 87/131/38 82/72/38
f 89/74/39 90/132/39 79/75/39
f 91/76/40 92/133/40 84/65/40
f 40/78/36 97/101/36 96/79/36
f 31/81/36 95/134/36 98/82/36
f 32/84/22 100/91/22 101/85/22
f 33/87/22 102/95/22 99/88/22
f 20/90/38 96/135/38 100/91/38
f 19/89/38 99/88/38 95/92/38
f 17/94/37 93/136/37 102/95/37
f 18/86/37 101/85/37 94/96/37
f 21/83/40 98/82/40 104/98/40
f 22/100/40 103/137/40 97/101/40
f 114/102/22 115/108/22 112/103/22
f 113/105/22 116/138/22 110/106/22
f 110/106/22 116/138/22 115/108/22
f 109/109/22 115/108/22 114/102/22
f 111/111/22 116/138/22 113/105/22
