# Blender 5.1.0
# www.blender.org
o painting
v -0.514916 -0.401316 -0.011272
v 0.502894 0.393059 -0.016845
v 0.514893 0.404314 -0.011272
v 0.508269 -0.395471 -0.018825
v -0.506345 -0.395471 -0.018825
v 0.473549 -0.363410 -0.011824
v -0.457722 -0.350187 -0.011824
v 0.441346 0.336105 -0.004314
v 0.508269 0.398926 -0.018825
v -0.457722 0.353105 -0.011824
v -0.473021 0.366408 -0.011824
v -0.506345 0.398927 -0.018825
v -0.518811 0.408760 0.000000
v 0.458713 -0.350187 -0.011824
v 0.435526 0.332255 0.000000
v 0.458713 0.353104 -0.011824
v 0.473549 0.366407 -0.011824
v 0.518811 0.408760 0.000000
v -0.518811 -0.408760 0.000000
v -0.473021 -0.363410 -0.011824
v -0.440323 -0.331341 -0.004314
v -0.434798 0.332256 0.000000
v -0.440322 0.336105 -0.004314
v -0.501193 0.393059 -0.016845
v -0.514915 0.404314 -0.011272
v -0.501193 -0.389790 -0.016845
v -0.434798 -0.328290 0.000000
v 0.435526 -0.328290 0.000000
v 0.441346 -0.331341 -0.004314
v 0.502894 -0.389791 -0.016845
v 0.514893 -0.401317 -0.011272
v 0.518811 -0.408760 0.000000
vn -0.3095 -0.0000 -0.9509
vn -0.1355 -0.0000 -0.9908
vn -0.3099 -0.0000 -0.9508
vn -0.4542 -0.0000 -0.8909
vn 0.3227 -0.0000 -0.9465
vn 0.3222 -0.0000 -0.9467
vn 0.8932 -0.0000 -0.4498
vn 0.9446 -0.0000 -0.3283
vn 0.5328 -0.0000 -0.8463
vn 0.8875 -0.0000 -0.4608
vn 0.8931 -0.0000 -0.4499
vn -0.5955 -0.0000 -0.8034
vn -0.4510 -0.0000 -0.8925
vn -0.4541 -0.0000 -0.8909
vn -0.0760 -0.0000 -0.9971
vn -0.0714 -0.0000 -0.9974
vn -0.0000 -0.8345 -0.5510
vn -0.0000 -0.8175 -0.5759
vn -0.0000 0.1235 -0.9923
vn -0.0000 0.1300 -0.9915
vn -0.0000 0.1303 -0.9915
vn -0.0000 0.5099 -0.8602
vn -0.0000 0.8904 -0.4553
vn -0.0000 0.5004 -0.8658
vn -0.0000 -0.2772 -0.9608
vn -0.0000 -0.2763 -0.9611
vn -0.0000 0.2836 -0.9590
vn -0.0000 0.1301 -0.9915
vn -0.0000 0.2844 -0.9587
vn -0.0000 0.5335 -0.8458
vn -0.0000 0.1243 -0.9923
vn -0.0000 0.1237 -0.9923
vn -0.0000 -0.5271 -0.8498
vn -0.0000 -0.7461 -0.6658
vn -0.0000 0.5336 -0.8457
vn -0.0000 0.8165 -0.5774
vn -0.0000 0.5311 -0.8473
vn -0.0000 0.8904 -0.4552
vn -0.0000 0.9302 -0.3669
vn -0.0000 -0.4849 -0.8746
vn -0.0000 -0.4757 -0.8796
vn -0.0000 0.2845 -0.9587
vn -0.0000 0.2837 -0.9589
vn -0.0000 -0.1287 -0.9917
vn -0.0000 -0.2771 -0.9608
vn -0.0000 -0.1286 -0.9917
vn -0.0000 -0.1321 -0.9912
vn -0.0000 -0.1288 -0.9917
vn -0.0000 -0.1330 -0.9911
vn -0.0000 -0.5269 -0.8499
vn -0.0000 -0.1323 -0.9912
vn -0.9452 -0.0000 -0.3266
vn -0.8681 -0.0000 -0.4964
vn -0.8596 -0.0000 -0.5109
vn -0.4544 -0.0000 -0.8908
vn -0.8680 -0.0000 -0.4966
vn 0.5327 -0.0000 -0.8463
vn -0.1352 -0.0000 -0.9908
vn -0.0714 -0.0000 -0.9975
vn 0.1405 -0.0000 -0.9901
vn 0.3226 -0.0000 -0.9465
vn 0.0763 -0.0000 -0.9971
vn 0.4588 -0.0000 -0.8885
vn 0.0717 -0.0000 -0.9974
vn 0.1402 -0.0000 -0.9901
vn 0.1404 -0.0000 -0.9901
vn -0.0000 -0.0000 -1.0000
vn 0.6154 -0.0000 -0.7882
vn 0.4589 -0.0000 -0.8885
vn 0.4553 -0.0000 -0.8903
vn -0.1353 -0.0000 -0.9908
vn -0.4542 -0.0001 -0.8909
vn -0.4558 -0.0000 -0.8901
vn 0.8876 -0.0000 -0.4605
vn 0.5344 -0.0000 -0.8452
vn -0.4509 -0.0000 -0.8926
vn -0.0000 -0.8184 -0.5746
vn -0.0000 0.1241 -0.9923
vn -0.0000 0.8928 -0.4505
vn -0.0000 0.1304 -0.9915
vn -0.0000 0.5309 -0.8474
vn -0.0000 0.1243 -0.9922
vn -0.0000 -0.5270 -0.8498
vn -0.0000 -0.5253 -0.8509
vn -0.0000 0.8164 -0.5774
vn -0.0000 0.8904 -0.4551
vn -0.0000 0.8928 -0.4504
vn -0.0000 -0.1289 -0.9917
vn -0.0000 -0.1328 -0.9911
vn -0.0000 -0.5251 -0.8510
vn -0.8597 -0.0000 -0.5107
vn -0.4559 -0.0000 -0.8900
vn 0.5343 -0.0000 -0.8453
vn -0.1354 -0.0000 -0.9908
vn 0.1403 -0.0000 -0.9901
vn 0.4552 -0.0000 -0.8904
vn 0.0716 -0.0000 -0.9974
vt 0.022242 0.024923
vt 0.054819 0.946337
vt 0.022243 0.978292
vt 0.984466 0.016058
vt 0.978030 0.978292
vt 0.978029 0.022177
vt 0.007664 0.008404
vt 0.000640 0.999367
vt 0.000627 0.000235
vt 0.014134 0.016058
vt 0.007673 0.991694
vt 0.091530 0.091796
vt 0.098786 0.903816
vt 0.091530 0.910278
vt 0.070923 0.930928
vt 0.070923 0.072209
vt 0.999457 0.000237
vt 0.930111 0.072209
vt 0.054819 0.056554
vt 0.944786 0.056554
vt 0.984465 0.984918
vt 0.014136 0.984916
vt 0.909289 0.091796
vt 0.909289 0.910278
vt 0.903306 0.903816
vt 0.098786 0.099182
vt 0.999448 0.999369
vt 0.930111 0.930928
vt 0.944786 0.946337
vt 0.992434 0.008405
vt 0.992428 0.991697
vt 0.903306 0.099182
s 0
f 30/1/1 17/2/2 2/3/3
f 5/4/4 24/5/5 26/6/6
f 31/7/7 18/8/8 32/9/8
f 4/10/9 3/11/10 31/7/11
f 29/12/4 15/13/12 8/14/13
f 29/12/14 16/15/15 14/16/16
f 19/17/17 31/7/18 32/9/17
f 7/18/19 6/19/20 20/20/21
f 12/21/22 3/11/23 9/22/24
f 12/21/22 2/3/25 24/5/26
f 26/6/27 6/19/28 30/1/29
f 21/23/30 14/16/31 7/18/32
f 23/24/33 15/13/34 22/25/34
f 21/23/35 28/26/36 29/12/37
f 3/11/38 13/27/39 18/8/39
f 31/7/18 5/4/40 4/10/41
f 30/1/42 5/4/40 26/6/43
f 17/2/44 24/5/26 2/3/45
f 17/2/46 10/28/47 11/29/48
f 16/15/49 23/24/50 10/28/51
f 13/27/52 1/30/53 19/17/52
f 25/31/54 5/4/55 1/30/56
f 2/3/3 4/10/57 30/1/1
f 16/15/15 6/19/58 14/16/59
f 11/29/60 26/6/6 24/5/61
f 10/28/62 21/23/63 7/18/64
f 10/28/62 20/20/65 11/29/66
f 15/13/67 27/32/67 22/25/67
f 22/25/68 21/23/69 23/24/70
f 30/1/1 6/19/71 17/2/2
f 5/4/72 12/21/73 24/5/5
f 31/7/7 3/11/74 18/8/8
f 4/10/9 9/22/75 3/11/10
f 29/12/4 28/26/12 15/13/12
f 29/12/14 8/14/76 16/15/15
f 19/17/17 1/30/77 31/7/18
f 7/18/19 14/16/78 6/19/20
f 12/21/22 25/31/79 3/11/23
f 12/21/22 9/22/24 2/3/25
f 26/6/27 20/20/80 6/19/28
f 21/23/30 29/12/81 14/16/82
f 23/24/83 8/14/84 15/13/34
f 21/23/35 27/32/85 28/26/85
f 3/11/86 25/31/87 13/27/39
f 31/7/18 1/30/77 5/4/40
f 30/1/42 4/10/41 5/4/40
f 17/2/44 11/29/88 24/5/26
f 17/2/46 16/15/89 10/28/47
f 16/15/49 8/14/90 23/24/50
f 13/27/52 25/31/91 1/30/53
f 25/31/54 12/21/92 5/4/55
f 2/3/3 9/22/93 4/10/57
f 16/15/15 17/2/94 6/19/58
f 11/29/60 20/20/95 26/6/6
f 10/28/62 23/24/96 21/23/63
f 10/28/62 7/18/97 20/20/65
f 15/13/67 28/26/67 27/32/67
f 22/25/68 27/32/68 21/23/69
