# Blender 5.1.0
# www.blender.org
o window
v -1.484982 0.000000 0.136618
v 1.484982 0.011880 0.148498
v -1.484982 0.166318 0.148498
v 1.484982 0.178198 0.136618
v -1.484982 0.178198 0.011873
v 1.484982 0.166318 -0.000007
v -1.484983 2.791766 0.136618
v -1.484984 2.803646 -0.016844
v 1.484980 2.791766 -0.004964
v 1.484981 2.803646 0.148498
v -1.484983 2.958084 0.148498
v 1.484980 2.969965 0.136618
v -1.484983 2.803646 0.148498
v 1.484980 2.791766 0.136618
v -1.484982 0.178198 0.136618
v 1.484982 0.166318 0.148498
v -1.484982 0.011880 0.148498
v 1.484982 0.000000 0.136618
v -1.484983 2.969965 0.136618
v 1.484981 2.958085 0.148498
v -1.484984 2.791766 -0.004964
v 1.484980 2.803646 -0.016844
v -1.484982 0.166318 -0.000007
v 1.484982 0.178198 0.011873
v -1.395884 2.791766 0.077646
v -1.395883 0.178198 0.077646
v -1.395883 0.178198 0.011873
v -1.395885 2.791766 0.011873
v -1.407763 0.178198 0.089527
v -1.407764 2.791766 0.089527
v -1.407763 0.178198 -0.000007
v -1.407764 2.791766 -0.000007
v -1.484982 0.178198 0.089527
v -1.484983 2.791766 0.089527
v 1.395882 2.791766 0.077646
v 1.395882 2.791766 0.011873
v 1.395884 0.178198 0.011873
v 1.395884 0.178198 0.077647
v 1.407761 2.791766 0.089527
v 1.407763 0.178198 0.089527
v 1.407762 2.791766 -0.000007
v 1.407763 0.178198 -0.000007
v 1.484982 0.178198 0.089527
v 1.484981 2.791766 0.089527
v 0.534859 1.069187 0.003853
v 0.534859 1.027607 0.021673
v 0.534859 1.009788 -0.091889
v 0.534859 1.069187 -0.091889
v 0.706850 2.500710 0.037124
v 0.712790 2.548229 0.031184
v 0.712790 2.500710 -0.091889
v 0.706850 2.554169 -0.091889
v -0.534860 1.009788 0.003853
v -0.534861 1.051367 0.021673
v -0.534860 1.009788 -0.091888
v -0.534861 1.069187 -0.091888
v -0.706852 2.500710 0.037124
v -0.706853 2.554169 0.031184
v -0.706853 2.494770 -0.091889
v -0.712793 2.548229 -0.091889
v 0.706850 2.494770 0.031184
v 0.712790 2.500710 0.031184
v 0.706850 2.554169 0.031184
v 0.706850 2.548229 0.037124
v 0.706850 2.494770 -0.091889
v 0.712789 2.548229 -0.091889
v -0.712793 2.500710 0.031184
v -0.706853 2.494770 0.031184
v -0.712792 2.548229 0.031184
v -0.706853 2.548229 0.037124
v -0.712793 2.500710 -0.091889
v -0.706853 2.554170 -0.091889
v 0.534859 1.051367 0.021673
v 0.534859 1.009788 0.003853
v -0.534860 1.027607 0.021673
v -0.534860 1.069187 0.003853
v 0.546739 0.971744 0.037124
v 0.642801 0.959864 0.025243
v 0.546739 0.959864 -0.091888
v 0.654680 0.971744 -0.091888
v 0.546739 2.492365 0.037124
v 0.654680 2.492365 0.025243
v 0.534858 2.492365 -0.091889
v 0.642799 2.504245 -0.091889
v -0.534860 0.971744 0.025243
v -0.534861 0.971744 -0.091888
v -0.642802 0.959864 -0.091888
v -0.642802 0.971744 0.037124
v -0.534861 2.492365 0.025243
v -0.642803 2.492365 0.037124
v -0.654683 2.492365 -0.091889
v -0.546741 2.504245 -0.091889
v 0.534859 0.971744 0.025243
v 0.546739 0.959864 0.025243
v 0.654680 0.971744 0.025243
v 0.642802 0.971744 0.037124
v 0.534859 0.971744 -0.091888
v 0.642801 0.959864 -0.091888
v 0.546738 2.504245 0.025243
v 0.534858 2.492365 0.025243
v 0.642799 2.504245 0.025243
v 0.642800 2.492365 0.037124
v 0.546738 2.504245 -0.091889
v 0.654679 2.492365 -0.091889
v -0.546740 0.971744 0.037124
v -0.546740 0.959864 0.025243
v -0.546740 0.959864 -0.091888
v -0.654682 0.971744 -0.091888
v -0.654682 0.971744 0.025243
v -0.642802 0.959864 0.025243
v -0.546741 2.504245 0.025243
v -0.546741 2.492365 0.037124
v -0.642802 2.504245 0.025243
v -0.654683 2.492365 0.025243
v -0.642803 2.504245 -0.091889
v -0.534861 2.492365 -0.091889
v 0.011880 1.069187 -0.089900
v -0.000002 2.482890 -0.089900
v 0.534859 1.081067 -0.089900
v 0.522978 2.494770 -0.089900
v 0.011880 1.069187 -0.054258
v 0.534859 1.081067 -0.054258
v 0.522978 2.494770 -0.054258
v -0.000002 2.482890 -0.054258
v -0.000001 1.081067 -0.089900
v 0.011878 2.494770 -0.089900
v 0.522979 1.069187 -0.089900
v 0.534858 2.482890 -0.089900
v 0.011879 1.081067 -0.042378
v -0.000001 1.081067 -0.054258
v 0.522979 1.081067 -0.042378
v 0.522979 1.069187 -0.054258
v 0.522978 2.482890 -0.042378
v 0.534858 2.482890 -0.054258
v 0.011879 2.482890 -0.042378
v 0.011878 2.494770 -0.054258
v 0.062873 1.120186 -0.042378
v 0.483860 1.120186 -0.042378
v 0.483859 2.443771 -0.042378
v 0.062872 2.443771 -0.042378
v 0.071273 1.128587 -0.083959
v 0.475460 1.128586 -0.083959
v 0.475459 2.435371 -0.083959
v 0.071272 2.435370 -0.083959
v 0.071273 1.128587 -0.054258
v 0.475460 1.128586 -0.054258
v 0.475459 2.435370 -0.054258
v 0.071272 2.435370 -0.054258
v -0.475461 1.128586 -0.083959
v -0.475462 2.435370 -0.083959
v -0.071357 2.435370 -0.083959
v -0.071356 1.128587 -0.083959
v -0.011881 1.069187 -0.089900
v -0.522980 1.069187 -0.089900
v -0.522980 1.069187 -0.054258
v -0.011881 1.069187 -0.054258
v -0.534861 1.081067 -0.089900
v -0.534861 2.482890 -0.089900
v -0.534861 2.482890 -0.054258
v -0.534860 1.081067 -0.054258
v -0.522981 2.494770 -0.089900
v -0.011882 2.494770 -0.089900
v -0.011882 2.494770 -0.054258
v -0.522981 2.494770 -0.054258
v -0.011880 1.081067 -0.042378
v -0.000001 1.081067 -0.054258
v -0.522980 1.081067 -0.042378
v -0.522981 2.482890 -0.042378
v -0.000002 2.482890 -0.054258
v -0.011882 2.482890 -0.042378
v -0.000001 1.081067 -0.089900
v -0.000002 2.482890 -0.089900
v -0.483862 1.120186 -0.042378
v -0.062956 1.120186 -0.042378
v -0.483862 2.443771 -0.042378
v -0.062957 2.443771 -0.042378
v -0.071356 1.128586 -0.054258
v -0.475461 1.128586 -0.054258
v -0.475462 2.435370 -0.054258
v -0.071357 2.435370 -0.054258
v -0.071275 1.564181 -0.065400
v -0.071275 1.576835 -0.072706
v -0.071275 1.576835 -0.087319
v -0.071275 1.551527 -0.087319
v -0.071275 1.551527 -0.072706
v -0.475461 1.564181 -0.065400
v -0.475461 1.576835 -0.072706
v -0.475461 1.576835 -0.087319
v -0.475461 1.551527 -0.087319
v -0.475461 1.551527 -0.072706
v 0.475460 1.564181 -0.065400
v 0.475460 1.576835 -0.072706
v 0.475460 1.576835 -0.087319
v 0.475460 1.551527 -0.087319
v 0.475460 1.551527 -0.072706
v 0.071273 1.564181 -0.065400
v 0.071273 1.576835 -0.072706
v 0.071273 1.576835 -0.087319
v 0.071273 1.551527 -0.087319
v 0.071273 1.551527 -0.072706
v 0.475459 1.999776 -0.065400
v 0.475459 2.012430 -0.072706
v 0.475459 2.012430 -0.087319
v 0.475459 1.987122 -0.087319
v 0.475459 1.987121 -0.072706
v 0.071272 1.999776 -0.065400
v 0.071273 2.012430 -0.072706
v 0.071272 2.012430 -0.087319
v 0.071272 1.987121 -0.087319
v 0.071272 1.987122 -0.072706
v -0.071275 1.999776 -0.065400
v -0.071275 2.012430 -0.072706
v -0.071275 2.012430 -0.087319
v -0.071275 1.987122 -0.087319
v -0.071275 1.987122 -0.072706
v -0.475462 1.999776 -0.065400
v -0.475462 2.012430 -0.072706
v -0.475462 2.012430 -0.087319
v -0.475462 1.987121 -0.087319
v -0.475462 1.987122 -0.072706
v 0.071273 1.128587 -0.083959
v 0.475460 1.128586 -0.083959
v 0.475459 2.435371 -0.083959
v 0.071272 2.435370 -0.083959
v -0.475461 1.128586 -0.083959
v -0.475462 2.435370 -0.083959
v -0.071357 2.435370 -0.083959
v -0.071356 1.128587 -0.083959
v -1.484982 0.000000 -0.000000
v 1.484983 0.000000 -0.000000
v -1.484984 2.969964 -0.000000
v 1.484980 2.969964 -0.000000
v 0.595699 2.969964 -0.000000
v -0.595702 2.969964 -0.000000
v -0.595701 0.000000 -0.000000
v 0.595701 0.000000 -0.000000
v -1.484983 2.518534 -0.000000
v -1.484983 1.020633 -0.000000
v 1.484982 1.020633 -0.000000
v 1.484980 2.518534 -0.000000
v 0.595700 1.020633 -0.000000
v 0.595699 2.518534 -0.000000
v -0.595702 2.518534 -0.000000
v -0.595701 1.020633 -0.000000
vn -0.0000 1.0000 0.0001
vn -0.0000 1.0000 -0.0002
vn 0.0010 1.0000 0.0001
vn 0.0222 -0.0000 0.9998
vn -0.0000 0.0002 1.0000
vn -0.0225 -0.0000 0.9997
vn -0.0000 -1.0000 0.0002
vn -0.0000 -1.0000 -0.0010
vn 0.0024 -1.0000 0.0002
vn -0.0000 0.0011 1.0000
vn -0.0000 0.0014 1.0000
vn -0.0005 0.0010 1.0000
vn -0.0000 -1.0000 -0.0002
vn -0.0024 -1.0000 -0.0001
vn 0.0024 1.0000 0.0018
vn -0.0000 1.0000 0.0018
vn 0.0005 -1.0000 -0.0010
vn -0.0003 0.0002 -1.0000
vn -0.0000 -0.0000 -1.0000
vn -0.0021 1.0000 -0.0002
vn 1.0000 -0.0012 0.0002
vn 1.0000 -0.0000 -0.0000
vn 1.0000 -0.0012 0.0001
vn 0.7071 0.0007 0.7072
vn 0.7071 -0.0000 0.7071
vn 0.7071 -0.0000 -0.7071
vn 0.0006 0.0018 1.0000
vn -0.0000 -0.0000 1.0000
vn 0.0014 0.0001 1.0000
vn -1.0000 -0.0000 -0.0000
vn -1.0000 0.0012 0.0001
vn 0.0023 0.0001 1.0000
vn 0.0023 -0.0000 1.0000
vn -0.7071 -0.0000 0.7071
vn -0.7071 0.0011 0.7071
vn -0.7077 -0.0000 -0.7065
vn -0.7065 -0.0001 -0.7077
vn -0.7078 -0.0000 -0.7064
vn -0.0000 -0.0002 1.0000
vn -0.0000 0.0006 1.0000
vn -0.0000 -1.0000 -0.0000
vn -0.0012 -1.0000 -0.0001
vn -0.0001 0.0001 1.0000
vn 0.0001 -0.0000 1.0000
vn -0.0000 -0.0012 1.0000
vn 0.0002 -1.0000 0.0001
vn -0.0020 -1.0000 -0.0000
vn 1.0000 0.0001 0.0001
vn 1.0000 -0.0002 -0.0000
vn 1.0000 0.0002 -0.0001
vn -0.0001 1.0000 0.0062
vn -0.0000 1.0000 -0.0000
vn 0.0012 1.0000 -0.0001
vn -0.0020 1.0000 -0.0003
vn 0.0002 1.0000 -0.0000
vn -1.0000 -0.0002 0.0004
vn -1.0000 -0.0000 0.0001
vn -1.0000 0.0001 -0.0000
vn 0.0001 -1.0000 0.0001
vn 1.0000 -0.0000 0.0001
vn -1.0000 -0.0012 0.0001
vn -0.0051 1.0000 0.0054
vn -0.0000 -1.0000 0.0001
vn 0.0001 -1.0000 -0.0000
vn 0.0017 1.0000 -0.0000
vn -0.0002 1.0000 0.0003
vn -0.0000 -0.0001 1.0000
vn -0.0018 0.0001 1.0000
vn -0.0000 0.0003 1.0000
vn 1.0000 -0.0006 -0.0000
vn 0.8751 0.3423 0.3420
vn -1.0000 -0.0005 0.0002
vn -1.0000 0.0002 -0.0000
vn -1.0000 -0.0002 0.0001
vn 0.0013 -1.0000 -0.0000
vn -0.0002 -1.0000 -0.0000
vn -0.0013 1.0000 -0.0000
vn -0.0001 1.0000 -0.0000
vn -0.0009 -0.0000 1.0000
vn -0.0012 -0.0001 1.0000
vn -1.0000 -0.0001 -0.0000
vn -1.0000 -0.0006 0.0002
vn 1.0000 -0.0005 -0.0000
vn 1.0000 0.0003 0.0001
vn -0.0000 -1.0000 -0.0001
vn -0.0000 0.0001 1.0000
vn 0.0002 -1.0000 -0.0003
vn 1.0000 0.0002 -0.0000
vn -0.0002 1.0000 0.0001
vn 0.0002 -1.0000 -0.0000
vn -0.0030 -1.0000 0.0008
vn -0.0014 -1.0000 -0.0000
vn 1.0000 0.0001 -0.0000
vn 0.0014 1.0000 -0.0000
vn -0.0000 1.0000 0.0003
vn -0.0000 1.0000 0.0008
vn -1.0000 -0.0025 0.0024
vn 0.0019 -1.0000 0.0008
vn -1.0000 0.0020 0.0024
vn -1.0000 -0.0006 0.0004
vn -1.0000 -0.0002 -0.0000
vn -0.0020 1.0000 0.0002
vn -0.0011 0.0001 1.0000
vn 0.0001 -0.0001 1.0000
vn -0.0002 -0.0010 1.0000
vn -0.0000 1.0000 -0.0001
vn -0.8658 -0.0000 -0.5004
vn -1.0000 0.0003 -0.0000
vn -1.0000 0.0007 -0.0000
vn -0.0000 -1.0000 0.0005
vn 1.0000 -0.0000 -0.0005
vn 1.0000 0.0009 -0.0002
vn 0.8667 -0.0000 -0.4989
vn -1.0000 -0.0000 -0.0006
vn -1.0000 0.0008 -0.0006
vn 1.0000 -0.0000 -0.0008
vn 1.0000 0.0009 -0.0007
vn 0.0014 -1.0000 -0.0000
vn -0.0012 -1.0000 0.0007
vn -0.0023 -1.0000 -0.0000
vn -1.0000 -0.0000 0.0002
vn -1.0000 -0.0011 -0.0000
vn -0.0012 1.0000 0.0010
vn -0.0023 1.0000 -0.0000
vn 0.0012 -1.0000 0.0008
vn 1.0000 0.0001 -0.0001
vn -0.0021 0.0004 1.0000
vn -0.0000 0.0012 1.0000
vn 1.0000 -0.0002 0.0001
vn 1.0000 -0.0040 -0.0000
vn 0.0008 0.0001 1.0000
vn 0.0001 0.0001 1.0000
vn 0.0020 -0.0011 1.0000
vn 0.0012 1.0000 -0.0000
vn -0.0004 1.0000 0.0001
vn 0.8662 -0.0000 -0.4997
vn -0.8659 -0.0000 -0.5003
vn -1.0000 0.0005 -0.0000
vn 1.0000 -0.0003 -0.0005
vn 0.0014 -0.0001 1.0000
vn 0.0011 -0.0000 1.0000
vn -0.0000 0.8660 0.5000
vn -0.0010 0.8659 0.5002
vn -0.0000 -0.8660 0.5000
vn -0.0000 -0.0008 1.0000
vn -0.0000 -1.0000 -0.0003
vn -0.0017 0.8660 0.5000
vn 0.0010 0.8662 0.4997
vn 0.0012 -0.8659 0.5002
vn 0.0012 -1.0000 -0.0000
vn 0.0017 -0.8662 0.4997
vn 0.0008 -0.0000 1.0000
vn -0.0000 0.0005 1.0000
vn 0.0012 1.0000 -0.0002
vn -0.0012 -1.0000 -0.0000
vn 0.0005 -0.8661 0.4999
vn 0.0012 -0.0009 1.0000
vn 0.0018 -0.0000 1.0000
vn 0.0012 -0.0000 1.0000
vn -0.0012 -0.0012 1.0000
vn -0.0012 -0.0000 1.0000
vn -0.0001 0.0002 1.0000
vn -0.0026 0.0001 1.0000
vn 0.0006 0.0014 -1.0000
vn 0.0006 -0.0000 -1.0000
vn 0.7078 -0.0000 0.7064
vn 0.7069 -0.0009 -0.7073
vn -0.0024 0.0012 1.0000
vn -0.7071 -0.0012 0.7071
vn -0.7071 -0.0000 -0.7071
vn -0.0000 1.0000 0.0062
vn -1.0000 -0.0009 -0.0001
vn -0.0009 -1.0000 0.0001
vn 1.0000 -0.0006 -0.0006
vn -1.0000 0.0005 -0.0006
vn -0.0009 1.0000 -0.0001
vn 0.0021 -0.0000 1.0000
vt 0.035162 0.000977
vt 0.058397 0.783281
vt 0.035162 0.783281
vt 0.149738 0.693155
vt 0.113745 0.000977
vt 0.149738 0.000977
vt 0.031850 0.785230
vt 0.005413 0.000977
vt 0.031850 0.000977
vt 0.104896 0.693155
vt 0.068903 0.000977
vt 0.104896 0.000977
vt 0.107664 0.693155
vt 0.107664 0.000977
vt 0.110976 0.693155
vt 0.110976 0.000977
vt 0.152507 0.000977
vt 0.152507 0.693155
vt 0.066134 0.693155
vt 0.066134 0.000977
vt 0.005413 0.785231
vt 0.000977 0.000977
vt 0.062822 0.000977
vt 0.058397 0.000977
vt 0.780518 0.696669
vt 0.155818 0.680948
vt 0.780518 0.680948
vt 0.780518 0.699509
vt 0.155818 0.696669
vt 0.155818 0.678109
vt 0.659095 0.727533
vt 0.066134 0.745052
vt 0.066134 0.727533
vt 0.690832 0.721381
vt 0.066134 0.705660
vt 0.690832 0.705660
vt 0.075505 0.748364
vt 0.668466 0.765883
vt 0.075505 0.765883
vt 0.066134 0.702821
vt 0.690832 0.724221
vt 0.066134 0.721381
vt 0.018141 0.893995
vt 0.289326 0.900019
vt 0.018141 0.900019
vt 0.954585 0.000977
vt 0.972851 0.289587
vt 0.954585 0.289587
vt 0.878795 0.344755
vt 0.867570 0.678707
vt 0.867570 0.344755
vt 0.382393 0.791859
vt 0.000977 0.815339
vt 0.000977 0.791859
vt 0.019544 0.909548
vt 0.030771 0.938625
vt 0.019544 0.938625
vt 0.951273 0.000977
vt 0.933007 0.289589
vt 0.933007 0.000977
vt 0.394931 0.815339
vt 0.776351 0.791859
vt 0.776351 0.815339
vt 0.019553 0.972609
vt 0.030851 0.943349
vt 0.030851 0.972609
vt 0.878795 0.678707
vt 0.880198 0.678707
vt 0.878795 0.680111
vt 0.018141 0.909548
vt 0.019544 0.908145
vt 0.019553 0.941937
vt 0.019553 0.943349
vt 0.018141 0.943349
vt 0.032263 0.943349
vt 0.030851 0.941937
vt 0.867570 0.680111
vt 0.866167 0.678707
vt 0.032175 0.909548
vt 0.032175 0.938625
vt 0.018141 0.938625
vt 0.880198 0.344755
vt 0.018141 0.972609
vt 0.032263 0.972609
vt 0.018141 0.904536
vt 0.018141 0.889478
vt 0.289326 0.893995
vt 0.083580 0.937077
vt 0.061233 0.962994
vt 0.061233 0.937077
vt 0.057922 0.937077
vt 0.035575 0.962994
vt 0.035575 0.937077
vt 0.387344 0.818650
vt 0.741017 0.840993
vt 0.387344 0.840993
vt 0.832950 0.717519
vt 0.860101 0.365034
vt 0.860101 0.717519
vt 0.364985 0.847070
vt 0.711127 0.873730
vt 0.364985 0.873732
vt 0.083492 0.907848
vt 0.061145 0.933765
vt 0.061145 0.907848
vt 0.035486 0.933765
vt 0.057833 0.907848
vt 0.057833 0.933765
vt 0.349774 0.851868
vt 0.003680 0.873731
vt 0.003680 0.851868
vt 0.835703 0.003730
vt 0.862855 0.356215
vt 0.835704 0.356215
vt 0.003730 0.818651
vt 0.356216 0.845802
vt 0.003730 0.845802
vt 0.364985 0.844365
vt 0.362281 0.847070
vt 0.860101 0.720273
vt 0.862855 0.717519
vt 0.743780 0.840993
vt 0.741017 0.843756
vt 0.860101 0.362281
vt 0.862855 0.365034
vt 0.003730 0.848556
vt 0.000977 0.845802
vt 0.832950 0.356215
vt 0.835703 0.358969
vt 0.358970 0.845802
vt 0.356216 0.848556
vt 0.832950 0.003730
vt 0.835703 0.000977
vt 0.362281 0.873732
vt 0.832950 0.720273
vt 0.384581 0.818650
vt 0.384581 0.840993
vt 0.743780 0.818650
vt 0.832950 0.365034
vt 0.832950 0.362281
vt 0.713831 0.847067
vt 0.713832 0.873730
vt 0.387344 0.843756
vt 0.000977 0.818651
vt 0.862855 0.358969
vt 0.000977 0.851868
vt 0.000977 0.873731
vt 0.352478 0.873731
vt 0.352478 0.851868
vt 0.862855 0.000977
vt 0.356216 0.818651
vt 0.358970 0.818651
vt 0.291883 0.206047
vt 0.298683 0.343941
vt 0.291883 0.343941
vt 0.798665 0.769194
vt 0.463775 0.777709
vt 0.463775 0.769194
vt 0.268349 0.206047
vt 0.261549 0.343943
vt 0.261549 0.206047
vt 0.066134 0.772403
vt 0.069342 0.769194
vt 0.069342 0.772403
vt 0.463775 0.780547
vt 0.460937 0.777709
vt 0.801503 0.777709
vt 0.798665 0.780547
vt 0.798665 0.777709
vt 0.447898 0.772403
vt 0.447898 0.769194
vt 0.451106 0.772403
vt 0.000977 0.996240
vt 0.003747 0.877043
vt 0.003747 0.996240
vt 0.333447 0.877043
vt 0.330677 0.996240
vt 0.330677 0.877043
vt 0.069342 0.782027
vt 0.460937 0.769194
vt 0.447898 0.782027
vt 0.451106 0.782027
vt 0.012871 0.984348
vt 0.012870 0.886166
vt 0.321554 0.984348
vt 0.321554 0.886166
vt 0.313761 0.206047
vt 0.308094 0.315098
vt 0.308094 0.206047
vt 0.922743 0.003221
vt 0.929696 0.309113
vt 0.922743 0.309113
vt 0.329271 0.318408
vt 0.334937 0.427457
vt 0.329271 0.427457
vt 0.913870 0.309113
vt 0.906918 0.003221
vt 0.913870 0.003221
vt 0.014830 0.982389
vt 0.014829 0.888125
vt 0.919962 0.311079
vt 0.319594 0.888125
vt 0.319594 0.982389
vt 0.916651 0.001254
vt 0.288572 0.343941
vt 0.281772 0.206047
vt 0.288572 0.206047
vt 0.877516 0.338606
vt 0.869004 0.003814
vt 0.877516 0.003814
vt 0.278460 0.206047
vt 0.271661 0.343942
vt 0.271661 0.206047
vt 0.072655 0.785339
vt 0.075863 0.785339
vt 0.075863 0.788547
vt 0.869004 0.338606
vt 0.869004 0.341444
vt 0.866167 0.338606
vt 0.992044 0.996252
vt 0.989273 0.999023
vt 0.989273 0.996252
vt 0.454417 0.785339
vt 0.457626 0.785339
vt 0.454417 0.788547
vt 0.662308 0.996253
vt 0.659537 0.877042
vt 0.662308 0.877042
vt 0.866167 0.003814
vt 0.992044 0.877042
vt 0.075863 0.775714
vt 0.072655 0.775714
vt 0.877516 0.341444
vt 0.869004 0.000977
vt 0.877516 0.000977
vt 0.457626 0.775714
vt 0.454417 0.775714
vt 0.671432 0.888955
vt 0.671433 0.987128
vt 0.980149 0.888955
vt 0.989273 0.877042
vt 0.343915 0.318407
vt 0.338249 0.427435
vt 0.338249 0.318407
vt 0.887780 0.309114
vt 0.880828 0.003221
vt 0.887780 0.003221
vt 0.341470 0.315074
vt 0.347136 0.206047
vt 0.347136 0.315074
vt 0.896654 0.003221
vt 0.903606 0.309113
vt 0.896654 0.309113
vt 0.673392 0.890915
vt 0.890561 0.001254
vt 0.890561 0.311080
vt 0.978190 0.985169
vt 0.980149 0.987128
vt 0.893873 0.311079
vt 0.893873 0.001254
vt 0.363015 0.304587
vt 0.359929 0.206047
vt 0.363015 0.206047
vt 0.310882 0.318409
vt 0.308094 0.427460
vt 0.308094 0.318409
vt 0.325959 0.206047
vt 0.323171 0.315096
vt 0.323171 0.206047
vt 0.366100 0.206047
vt 0.366100 0.304587
vt 0.369411 0.304587
vt 0.372496 0.206047
vt 0.372496 0.304587
vt 0.325959 0.318408
vt 0.323171 0.427458
vt 0.323171 0.318408
vt 0.335370 0.315095
vt 0.338158 0.206047
vt 0.338158 0.315095
vt 0.375581 0.206047
vt 0.375581 0.304587
vt 0.350312 0.416925
vt 0.347227 0.318386
vt 0.350312 0.318385
vt 0.314193 0.427460
vt 0.316981 0.318409
vt 0.316981 0.427460
vt 0.329271 0.315096
vt 0.332059 0.206047
vt 0.332059 0.315096
vt 0.353397 0.318385
vt 0.353397 0.416925
vt 0.356618 0.206047
vt 0.353533 0.304587
vt 0.353533 0.206047
vt 0.304783 0.315098
vt 0.301995 0.206047
vt 0.304783 0.206047
vt 0.317072 0.315097
vt 0.319860 0.206047
vt 0.319860 0.315097
vt 0.350448 0.304587
vt 0.350448 0.206047
vt 0.633240 0.877044
vt 0.336759 0.968745
vt 0.336759 0.877044
vt 0.975192 0.314669
vt 0.883510 0.611150
vt 0.883510 0.314669
vt 0.258238 0.674796
vt 0.598079 0.473038
vt 0.598079 0.674797
vt 0.598079 0.000977
vt 0.258238 0.202735
vt 0.258238 0.000977
vt 0.155818 0.202735
vt 0.258238 0.473038
vt 0.155818 0.473038
vt 0.829638 0.202735
vt 0.598079 0.202735
vt 0.155818 0.674796
vt 0.829638 0.473038
vt 0.829638 0.000977
vt 0.113745 0.693155
vt 0.068902 0.693155
vt 0.000977 0.785231
vt 0.062822 0.783281
vt 0.155818 0.699509
vt 0.780518 0.678109
vt 0.659095 0.745052
vt 0.668466 0.748363
vt 0.690832 0.702821
vt 0.066134 0.724221
vt 0.972851 0.000977
vt 0.382393 0.815339
vt 0.030771 0.909548
vt 0.951273 0.289590
vt 0.394931 0.791859
vt 0.866167 0.344755
vt 0.289326 0.904536
vt 0.289326 0.889478
vt 0.083580 0.962994
vt 0.057922 0.962994
vt 0.741017 0.818650
vt 0.711127 0.847067
vt 0.083492 0.933765
vt 0.035486 0.907848
vt 0.349774 0.873731
vt 0.862855 0.003730
vt 0.298683 0.206047
vt 0.268349 0.343943
vt 0.000977 0.877043
vt 0.333447 0.996240
vt 0.066134 0.782027
vt 0.801503 0.769194
vt 0.313761 0.315098
vt 0.929696 0.003221
vt 0.334937 0.318408
vt 0.906918 0.309113
vt 0.919962 0.001254
vt 0.916651 0.311079
vt 0.281772 0.343941
vt 0.278460 0.343942
vt 0.659537 0.996253
vt 0.343915 0.427435
vt 0.880828 0.309114
vt 0.341470 0.206047
vt 0.903606 0.003221
vt 0.673392 0.985169
vt 0.978190 0.890914
vt 0.359929 0.304587
vt 0.310882 0.427460
vt 0.325959 0.315096
vt 0.369411 0.206047
vt 0.325959 0.427458
vt 0.335370 0.206047
vt 0.347227 0.416925
vt 0.314193 0.318409
vt 0.329271 0.206047
vt 0.356618 0.304587
vt 0.301995 0.315098
vt 0.317072 0.206047
vt 0.633240 0.968745
vt 0.975192 0.611150
vt 0.829638 0.674797
vt 0.155818 0.000977
s 1
f 4/1/1 5/2/2 15/3/3
f 2/4/4 3/5/5 17/6/6
f 7/7/7 9/8/8 14/9/9
f 10/10/10 11/11/11 13/12/12
f 14/13/9 13/12/12 7/14/7
f 3/5/5 4/15/1 15/16/3
f 2/4/4 1/17/13 18/18/14
f 11/11/11 12/19/15 19/20/16
f 21/21/17 22/22/18 9/8/8
f 6/23/19 5/2/2 24/24/20
f 25/25/21 27/26/22 28/27/23
f 30/28/24 26/29/25 25/25/25
f 31/30/26 28/27/26 27/26/26
f 30/31/27 33/32/28 29/33/29
f 36/34/30 38/35/30 35/36/31
f 43/37/32 39/38/28 40/39/33
f 40/40/34 35/36/35 38/35/34
f 41/41/36 37/42/37 36/34/38
f 75/43/39 73/44/40 54/45/5
f 47/46/41 53/47/7 55/48/42
f 57/49/43 64/50/44 70/51/45
f 65/52/46 68/53/41 59/54/47
f 50/55/48 51/56/49 66/57/50
f 76/58/51 48/59/52 56/60/53
f 72/61/54 63/62/1 52/63/55
f 71/64/56 69/65/57 60/66/58
f 49/67/28 61/68/59 62/69/60
f 50/55/48 63/70/1 64/71/44
f 57/72/43 67/73/61 68/74/41
f 58/75/62 69/65/57 70/76/45
f 49/67/28 50/77/48 64/50/44
f 63/78/1 70/51/45 64/50/44
f 51/56/49 61/79/59 65/80/46
f 50/55/48 52/81/55 63/70/1
f 68/82/41 49/67/28 57/49/43
f 69/65/57 57/72/43 70/76/45
f 67/73/61 59/83/47 68/74/41
f 60/66/58 58/75/62 72/84/54
f 73/44/40 76/85/51 54/45/5
f 53/86/7 46/87/39 75/43/39
f 79/88/47 78/89/63 94/90/64
f 99/91/65 84/92/55 103/93/66
f 96/94/67 81/95/68 77/96/69
f 80/97/70 82/98/71 95/99/22
f 93/100/72 83/101/73 97/102/74
f 106/103/75 87/104/76 107/105/59
f 92/106/55 113/107/77 111/108/78
f 112/109/79 88/110/28 105/111/80
f 114/112/81 108/113/82 109/114/30
f 86/115/83 89/116/22 85/117/84
f 77/118/69 93/100/72 94/119/64
f 78/120/63 95/99/22 96/121/67
f 81/95/68 99/122/65 100/123/30
f 82/98/71 101/124/78 102/125/44
f 85/117/84 105/126/80 106/127/75
f 88/128/28 109/114/30 110/129/85
f 89/116/22 111/130/78 112/131/79
f 90/132/86 113/133/77 114/112/81
f 94/119/64 97/102/74 79/134/47
f 80/97/70 78/120/63 98/135/87
f 78/136/63 77/96/69 94/137/64
f 81/95/68 101/138/78 99/122/65
f 101/124/78 104/139/88 84/140/55
f 83/101/73 99/141/65 103/142/66
f 95/99/22 102/125/44 96/121/67
f 81/95/68 93/143/72 77/96/69
f 86/115/83 106/127/75 107/144/59
f 109/114/30 87/145/76 110/129/85
f 106/146/75 88/110/28 110/147/85
f 113/148/77 112/109/79 111/149/78
f 115/150/89 114/112/81 113/133/77
f 111/130/78 116/151/88 92/152/55
f 114/112/81 88/128/28 90/132/86
f 85/117/84 112/131/79 105/126/80
f 127/153/90 121/154/91 117/155/92
f 128/156/88 122/157/93 119/158/49
f 120/159/94 136/160/95 123/161/96
f 121/162/91 129/163/28 130/164/97
f 122/157/93 131/165/28 132/166/98
f 123/167/96 133/168/28 134/169/22
f 124/170/99 135/171/28 136/172/95
f 121/173/91 131/174/28 129/175/28
f 122/157/93 133/168/28 131/165/28
f 123/176/96 135/177/28 133/178/28
f 124/170/99 129/163/28 135/171/28
f 125/179/100 121/162/91 130/164/97
f 127/180/90 122/157/93 132/166/98
f 128/156/88 123/167/96 134/169/22
f 118/181/101 136/172/95 126/182/102
f 131/174/28 137/183/103 129/175/28
f 133/178/28 138/184/5 131/174/28
f 133/178/28 140/185/104 139/186/105
f 135/177/28 137/183/103 140/185/104
f 145/187/106 142/188/52 141/189/52
f 147/190/107 142/191/108 146/192/109
f 148/193/41 143/194/110 147/195/85
f 145/196/111 144/197/112 148/198/113
f 145/199/106 138/184/5 146/200/106
f 138/201/5 147/190/114 146/192/115
f 147/202/85 140/185/104 148/203/41
f 140/204/104 145/196/116 148/198/117
f 153/205/118 155/206/119 154/207/120
f 157/208/101 159/209/121 158/210/122
f 164/211/123 162/212/55 161/213/124
f 156/214/125 166/215/126 165/216/127
f 160/217/30 155/218/119 167/219/28
f 164/220/123 159/221/121 168/222/128
f 169/223/129 163/224/95 170/225/28
f 167/226/28 156/227/125 165/228/127
f 168/229/128 160/217/30 167/219/28
f 168/222/128 163/230/95 164/220/123
f 165/216/127 169/223/129 170/225/28
f 171/231/130 156/214/125 153/232/118
f 154/233/120 160/217/30 157/208/101
f 158/210/122 164/234/123 161/235/124
f 162/236/55 169/223/129 172/237/49
f 174/238/131 167/226/28 165/228/127
f 173/239/132 168/222/128 167/226/28
f 168/222/128 176/240/133 170/241/28
f 170/241/28 174/238/131 165/228/127
f 152/242/134 178/243/135 177/244/52
f 178/245/22 150/246/22 179/247/136
f 150/248/41 180/249/13 179/250/41
f 180/251/137 152/252/30 177/253/138
f 177/254/52 173/239/132 174/238/131
f 178/245/139 175/255/140 173/256/132
f 179/257/41 176/240/133 175/258/140
f 180/251/114 174/259/131 176/260/133
f 181/261/141 187/262/142 186/263/28
f 183/264/134 187/265/142 182/266/143
f 185/267/144 189/268/41 184/269/41
f 181/261/141 190/270/144 185/271/144
f 192/272/142 196/273/28 191/274/145
f 193/275/52 197/276/142 192/277/142
f 195/278/144 199/279/41 194/280/146
f 191/274/145 200/281/144 195/282/144
f 201/283/141 207/284/147 206/285/28
f 203/286/52 207/287/147 202/288/148
f 205/289/149 209/290/41 204/291/150
f 201/283/141 210/292/151 205/293/149
f 212/294/142 216/295/152 211/296/153
f 212/297/142 218/298/154 217/299/142
f 215/300/144 219/301/155 214/302/41
f 211/296/153 220/303/156 215/304/144
f 223/305/157 221/306/28 222/307/158
f 226/308/28 228/309/159 227/310/28
f 240/311/28 241/312/28 239/313/28
f 238/314/28 243/315/160 237/316/28
f 234/317/161 242/318/45 233/319/28
f 235/320/28 241/312/28 244/321/161
f 233/319/28 240/311/28 232/322/28
f 236/323/28 239/313/28 241/312/28
f 229/324/28 244/321/161 238/314/28
f 234/317/161 237/316/28 243/315/160
f 4/1/1 24/24/20 5/2/2
f 2/4/4 16/325/162 3/5/5
f 7/7/7 21/21/17 9/8/8
f 10/10/10 20/326/163 11/11/11
f 14/13/9 10/10/10 13/12/12
f 3/5/5 16/325/162 4/15/1
f 2/4/4 17/6/6 1/17/13
f 11/11/11 20/326/163 12/19/15
f 21/21/17 8/327/164 22/22/18
f 6/23/19 23/328/165 5/2/2
f 25/25/21 26/29/22 27/26/22
f 30/28/24 29/329/166 26/29/25
f 31/30/26 32/330/167 28/27/26
f 30/31/27 34/331/128 33/32/28
f 36/34/30 37/42/30 38/35/30
f 43/37/32 44/332/168 39/38/28
f 40/40/34 39/333/169 35/36/35
f 41/41/36 42/334/170 37/42/37
f 75/43/39 46/87/39 73/44/40
f 47/46/41 74/335/7 53/47/7
f 57/49/43 49/67/28 64/50/44
f 65/52/46 61/336/59 68/53/41
f 50/55/48 62/337/60 51/56/49
f 76/58/51 45/338/171 48/59/52
f 72/61/54 58/339/62 63/62/1
f 71/64/56 67/73/61 69/65/57
f 49/67/28 62/69/60 50/77/48
f 63/78/1 58/340/62 70/51/45
f 51/56/49 62/337/60 61/79/59
f 50/55/48 66/57/50 52/81/55
f 68/82/41 61/68/59 49/67/28
f 69/65/57 67/73/61 57/72/43
f 67/73/61 71/64/56 59/83/47
f 60/66/58 69/65/57 58/75/62
f 73/44/40 45/341/171 76/85/51
f 53/86/7 74/342/7 46/87/39
f 79/88/47 98/343/87 78/89/63
f 99/91/65 101/344/78 84/92/55
f 96/94/67 102/345/44 81/95/68
f 80/97/70 104/139/88 82/98/71
f 93/100/72 100/346/30 83/101/73
f 106/103/75 110/347/85 87/104/76
f 92/106/55 115/348/89 113/107/77
f 112/109/79 90/349/86 88/110/28
f 114/112/81 91/350/73 108/113/82
f 86/115/83 116/151/88 89/116/22
f 94/119/64 93/100/72 97/102/74
f 80/97/70 95/99/22 78/120/63
f 78/136/63 96/94/67 77/96/69
f 81/95/68 102/345/44 101/138/78
f 101/124/78 82/98/71 104/139/88
f 83/101/73 100/346/30 99/141/65
f 95/99/22 82/98/71 102/125/44
f 81/95/68 100/123/30 93/143/72
f 86/115/83 85/117/84 106/127/75
f 109/114/30 108/113/82 87/145/76
f 106/146/75 105/111/80 88/110/28
f 113/148/77 90/349/86 112/109/79
f 115/150/89 91/350/73 114/112/81
f 111/130/78 89/116/22 116/151/88
f 114/112/81 109/114/30 88/128/28
f 85/117/84 89/116/22 112/131/79
f 127/153/90 132/351/98 121/154/91
f 128/156/88 134/169/22 122/157/93
f 120/159/94 126/352/102 136/160/95
f 121/173/91 132/353/98 131/174/28
f 122/157/93 134/169/22 133/168/28
f 123/176/96 136/354/95 135/177/28
f 124/170/99 130/164/97 129/163/28
f 125/179/100 117/355/92 121/162/91
f 127/180/90 119/158/49 122/157/93
f 128/156/88 120/356/94 123/167/96
f 118/181/101 124/170/99 136/172/95
f 131/174/28 138/184/5 137/183/103
f 133/178/28 139/186/105 138/184/5
f 133/178/28 135/177/28 140/185/104
f 135/177/28 129/175/28 137/183/103
f 145/187/106 146/357/106 142/188/52
f 147/190/107 143/358/172 142/191/108
f 148/193/41 144/359/41 143/194/110
f 145/196/111 141/360/22 144/197/112
f 145/199/106 137/183/103 138/184/5
f 138/201/5 139/361/105 147/190/114
f 147/202/85 139/186/105 140/185/104
f 140/204/104 137/362/103 145/196/116
f 153/205/118 156/363/125 155/206/119
f 157/208/101 160/217/30 159/209/121
f 164/211/123 163/364/95 162/212/55
f 167/226/28 155/365/119 156/227/125
f 168/229/128 159/209/121 160/217/30
f 168/222/128 170/241/28 163/230/95
f 165/216/127 166/215/126 169/223/129
f 171/231/130 166/215/126 156/214/125
f 154/233/120 155/218/119 160/217/30
f 158/210/122 159/209/121 164/234/123
f 162/236/55 163/224/95 169/223/129
f 174/238/131 173/239/132 167/226/28
f 173/239/132 175/258/140 168/222/128
f 168/222/128 175/258/140 176/240/133
f 170/241/28 176/240/133 174/238/131
f 152/242/134 149/366/52 178/243/135
f 178/245/22 149/367/22 150/246/22
f 150/248/41 151/368/173 180/249/13
f 180/251/137 151/369/30 152/252/30
f 177/254/52 178/370/135 173/239/132
f 178/245/139 179/247/174 175/255/140
f 179/257/41 180/371/13 176/240/133
f 180/251/114 177/253/175 174/259/131
f 181/261/141 182/372/143 187/262/142
f 183/264/134 188/373/52 187/265/142
f 185/267/144 190/374/144 189/268/41
f 181/261/141 186/263/28 190/270/144
f 192/272/142 197/375/142 196/273/28
f 193/275/52 198/376/52 197/276/142
f 195/278/144 200/377/144 199/279/41
f 191/274/145 196/273/28 200/281/144
f 201/283/141 202/378/148 207/284/147
f 203/286/52 208/379/52 207/287/147
f 205/289/149 210/380/151 209/290/41
f 201/283/141 206/285/28 210/292/151
f 212/294/142 217/381/142 216/295/152
f 212/297/142 213/382/176 218/298/154
f 215/300/144 220/383/156 219/301/155
f 211/296/153 216/295/152 220/303/156
f 223/305/157 224/384/177 221/306/28
f 226/308/28 225/385/79 228/309/159
f 240/311/28 242/318/45 241/312/28
f 238/314/28 244/321/161 243/315/160
f 234/317/161 243/315/160 242/318/45
f 235/320/28 236/323/28 241/312/28
f 233/319/28 242/318/45 240/311/28
f 236/323/28 230/386/28 239/313/28
f 229/324/28 235/320/28 244/321/161
f 234/317/161 231/387/28 237/316/28
