# Blender 5.1.0
# www.blender.org
o chair
v 0.228500 0.433294 -0.209419
v 0.229640 0.440839 0.209435
v 0.229640 0.468016 0.209435
v 0.229024 0.468016 -0.216963
v -0.221237 0.433294 0.209418
v -0.237151 0.440839 -0.209436
v -0.237151 0.468016 -0.209436
v -0.220747 0.468016 0.216963
v 0.196921 0.475560 -0.243817
v -0.198026 0.468016 -0.251362
v -0.198026 0.440839 -0.251362
v 0.204465 0.440839 -0.243817
v 0.184890 0.433294 0.243817
v -0.184183 0.440839 0.251362
v -0.184183 0.468016 0.251361
v 0.192434 0.468016 0.243817
v 0.200002 0.440839 0.216963
v -0.199846 0.433294 0.209418
v -0.213119 0.440839 -0.216963
v 0.211391 0.433294 -0.209419
v -0.199238 0.468016 0.216963
v 0.200610 0.475560 0.209418
v 0.211954 0.468016 -0.216963
v -0.212557 0.475560 -0.209419
v 0.229024 0.440839 -0.216963
v 0.236062 0.440839 -0.209436
v 0.221590 0.440839 0.216963
v 0.222080 0.433294 0.209419
v 0.222080 0.475560 0.209418
v 0.221590 0.468016 0.216963
v 0.228500 0.475560 -0.209419
v 0.236062 0.468016 -0.209436
v -0.220747 0.440839 0.216963
v -0.228797 0.440839 0.209435
v -0.230113 0.440839 -0.216963
v -0.229589 0.433294 -0.209419
v -0.229589 0.475560 -0.209419
v -0.230113 0.468016 -0.216963
v -0.221237 0.475560 0.209418
v -0.228797 0.468016 0.209435
v 0.204465 0.468016 -0.243817
v 0.196937 0.468016 -0.251362
v -0.205571 0.468016 -0.243817
v -0.198027 0.475560 -0.243817
v -0.198027 0.433294 -0.243817
v -0.205571 0.440839 -0.243817
v 0.196921 0.433294 -0.243817
v 0.196937 0.440839 -0.251362
v 0.192434 0.440839 0.243817
v 0.184883 0.440839 0.251362
v -0.191720 0.440839 0.243817
v -0.184176 0.433294 0.243817
v -0.184176 0.475560 0.243817
v -0.191720 0.468016 0.243817
v 0.184890 0.475560 0.243817
v 0.184883 0.468016 0.251361
v 0.192451 0.440839 0.224507
v 0.184907 0.433294 0.224507
v 0.185476 0.433294 0.209418
v 0.200610 0.433294 0.209418
v -0.184712 0.433294 0.209418
v -0.184157 0.433294 0.224507
v -0.191701 0.440839 0.224507
v -0.199238 0.440839 0.216963
v -0.205574 0.440839 -0.224507
v -0.198030 0.433294 -0.224507
v -0.197423 0.433294 -0.209419
v -0.212557 0.433294 -0.209419
v 0.196257 0.433294 -0.209419
v 0.196881 0.433294 -0.224507
v 0.204425 0.440839 -0.224507
v 0.211954 0.440839 -0.216963
v -0.191701 0.468016 0.224507
v -0.184157 0.475560 0.224507
v -0.184712 0.475560 0.209418
v -0.199846 0.475560 0.209418
v 0.185476 0.475560 0.209418
v 0.184907 0.475560 0.224507
v 0.192451 0.468016 0.224507
v 0.200002 0.468016 0.216963
v 0.204425 0.468016 -0.224507
v 0.196881 0.475560 -0.224507
v 0.196257 0.475560 -0.209419
v 0.211391 0.475560 -0.209419
v -0.197423 0.475560 -0.209419
v -0.198030 0.475560 -0.224507
v -0.205574 0.468016 -0.224507
v -0.213119 0.468016 -0.216963
v 0.222264 0.433122 0.198810
v 0.200610 0.433294 0.198810
v 0.185476 0.433294 0.198810
v -0.184712 0.433294 0.198810
v -0.199846 0.433294 0.198810
v -0.221421 0.433122 0.198810
v -0.229337 0.440667 0.198839
v -0.229337 0.468188 0.198839
v -0.221421 0.475732 0.198810
v -0.199846 0.475560 0.198810
v -0.184712 0.475560 0.198810
v 0.185476 0.475560 0.198810
v 0.200610 0.475560 0.198810
v 0.222264 0.475732 0.198810
v 0.230179 0.468188 0.198839
v 0.230179 0.440667 0.198839
v -0.229417 0.433479 -0.198810
v -0.212557 0.433294 -0.198810
v -0.197423 0.433294 -0.198810
v 0.196257 0.433294 -0.198810
v 0.211391 0.433294 -0.198810
v 0.228328 0.433479 -0.198810
v 0.235534 0.441023 -0.198838
v 0.235534 0.467832 -0.198838
v 0.228328 0.475376 -0.198810
v 0.211391 0.475560 -0.198810
v 0.196257 0.475560 -0.198810
v -0.197423 0.475560 -0.198810
v -0.212557 0.475560 -0.198810
v -0.229417 0.475376 -0.198810
v -0.236624 0.467832 -0.198838
v -0.236624 0.441023 -0.198838
v -0.174104 0.433294 0.198377
v -0.186814 0.433294 -0.199243
v -0.186814 0.433294 -0.209632
v -0.187421 0.433294 -0.224719
v -0.187418 0.433294 -0.243816
v -0.187417 0.440838 -0.251361
v -0.187417 0.468016 -0.251361
v -0.187418 0.475560 -0.243816
v -0.187421 0.475560 -0.224720
v -0.186814 0.475560 -0.209632
v -0.186814 0.475560 -0.199243
v -0.174104 0.475560 0.198377
v -0.174104 0.475560 0.209223
v -0.173548 0.475560 0.224317
v -0.173567 0.475557 0.243825
v -0.173574 0.468013 0.251364
v -0.173574 0.440841 0.251364
v -0.173567 0.433297 0.243825
v -0.173548 0.433294 0.224317
v -0.174104 0.433294 0.209223
v 0.185649 0.433294 -0.199243
v 0.174867 0.433294 0.198377
v 0.174867 0.433294 0.209218
v 0.174298 0.433294 0.224302
v 0.174281 0.433292 0.243810
v 0.174274 0.440836 0.251359
v 0.174274 0.468018 0.251359
v 0.174281 0.475562 0.243810
v 0.174298 0.475560 0.224302
v 0.174867 0.475560 0.209218
v 0.174867 0.475560 0.198377
v 0.185649 0.475560 -0.199243
v 0.185649 0.475560 -0.209638
v 0.186273 0.475560 -0.224737
v 0.186312 0.475554 -0.243834
v 0.186328 0.468010 -0.251367
v 0.186328 0.440844 -0.251367
v 0.186312 0.433300 -0.243834
v 0.186273 0.433294 -0.224737
v 0.185649 0.433294 -0.209638
v 0.199313 0.913178 0.248179
v 0.199313 0.909732 0.224328
v 0.199313 0.960423 0.244734
v 0.199313 0.956977 0.220882
v 0.206010 0.304015 -0.243838
v 0.206010 0.307363 -0.232288
v 0.206010 0.334182 -0.247186
v 0.206010 0.337530 -0.235636
v 0.193952 0.307363 0.247186
v 0.193952 0.304015 0.235636
v 0.193952 0.337530 0.243838
v 0.193952 0.334182 0.232288
v 0.219298 0.304015 0.218492
v 0.234704 0.307363 -0.218492
v 0.207749 0.307363 0.218492
v 0.223154 0.304015 -0.218492
v 0.222647 0.334182 0.218492
v 0.231356 0.337530 -0.218492
v 0.211097 0.337530 0.218492
v 0.219806 0.334182 -0.218492
v 0.219298 0.399780 0.218492
v 0.234704 0.403128 -0.218492
v 0.207749 0.403128 0.218492
v 0.223154 0.399780 -0.218492
v 0.222647 0.429946 0.218492
v 0.231356 0.433294 -0.218492
v 0.211097 0.433294 0.218492
v 0.219806 0.429946 -0.218492
v 0.235532 0.003348 -0.251362
v 0.208713 0.000000 -0.248013
v 0.238880 0.003348 -0.221195
v 0.208713 0.000000 -0.221195
v 0.235531 0.466183 -0.251362
v 0.205365 0.466183 -0.248013
v 0.238880 0.466183 -0.221195
v 0.208713 0.466183 -0.217847
v 0.206010 0.399780 -0.243838
v 0.206010 0.403128 -0.232288
v 0.206010 0.429946 -0.247186
v 0.206010 0.433294 -0.235636
v 0.223474 0.003348 0.217847
v 0.196656 0.000000 0.221195
v 0.226822 0.003348 0.248013
v 0.196656 0.000000 0.248013
v 0.223474 0.964327 0.217847
v 0.193307 0.964327 0.221195
v 0.226822 0.964327 0.248013
v 0.196656 0.964327 0.251361
v 0.193952 0.403128 0.247186
v 0.193952 0.399780 0.235636
v 0.193952 0.433294 0.243838
v 0.193952 0.429946 0.232288
v -0.198471 0.913178 0.220882
v -0.198471 0.960423 0.224328
v -0.207099 0.307363 -0.247186
v -0.207099 0.304015 -0.235636
v -0.207099 0.337530 -0.243838
v -0.207099 0.334182 -0.232288
v -0.193109 0.307363 0.232288
v -0.193109 0.337530 0.235636
v -0.221804 0.307363 0.218492
v -0.210254 0.304015 0.218492
v -0.220896 0.307363 -0.218492
v -0.232445 0.304015 -0.218492
v -0.218455 0.337530 0.218492
v -0.235794 0.334182 -0.218492
v -0.224244 0.337530 -0.218492
v -0.206906 0.334182 0.218492
v -0.221804 0.403128 0.218492
v -0.210254 0.399780 0.218492
v -0.220896 0.403128 -0.218492
v -0.232445 0.399780 -0.218492
v -0.218455 0.433294 0.218492
v -0.235794 0.429946 -0.218492
v -0.224244 0.433294 -0.218492
v -0.206906 0.429946 0.218492
v -0.239969 0.003348 -0.248013
v -0.236621 0.000000 -0.221195
v -0.209802 0.000000 -0.221195
v -0.209802 0.003348 -0.251362
v -0.239969 0.466183 -0.248013
v -0.209802 0.466183 -0.251362
v -0.206454 0.466183 -0.221195
v -0.236621 0.466183 -0.217847
v -0.207099 0.403128 -0.247186
v -0.207099 0.399780 -0.235636
v -0.207099 0.433294 -0.243838
v -0.207099 0.429946 -0.232288
v -0.225979 0.003348 0.221195
v -0.222631 0.000000 0.248013
v -0.195813 0.000000 0.248013
v -0.195813 0.003348 0.217847
v -0.225979 0.964327 0.221195
v -0.195813 0.964327 0.217847
v -0.192464 0.964327 0.248013
v -0.222631 0.964327 0.251361
v -0.193109 0.403128 0.232288
v -0.193109 0.433294 0.235636
v -0.198471 0.909732 0.244734
v -0.198471 0.956977 0.248179
v -0.193109 0.304015 0.243838
v -0.193109 0.334182 0.247186
v -0.193109 0.399780 0.243838
v -0.193109 0.429946 0.247186
v 0.199313 0.909732 0.244734
v 0.199313 0.913178 0.220882
v 0.199313 0.956977 0.248179
v 0.199313 0.960423 0.224328
v 0.206010 0.307363 -0.247186
v 0.206010 0.304015 -0.235636
v 0.206010 0.337530 -0.243838
v 0.206010 0.334182 -0.232288
v 0.193952 0.304015 0.243838
v 0.193952 0.307363 0.232288
v 0.193952 0.334182 0.247186
v 0.193952 0.337530 0.235636
v 0.222647 0.307363 0.218492
v 0.231356 0.304015 -0.218492
v 0.211097 0.304015 0.218492
v 0.219806 0.307363 -0.218492
v 0.219298 0.337530 0.218492
v 0.234704 0.334182 -0.218492
v 0.207749 0.334182 0.218492
v 0.223154 0.337530 -0.218492
v 0.222647 0.403128 0.218492
v 0.231356 0.399780 -0.218492
v 0.211097 0.399780 0.218492
v 0.219806 0.403128 -0.218492
v 0.219298 0.433294 0.218492
v 0.234704 0.429946 -0.218492
v 0.207749 0.429946 0.218492
v 0.223154 0.433294 -0.218492
v 0.206010 0.403128 -0.247186
v 0.206010 0.399780 -0.235636
v 0.206010 0.433294 -0.243838
v 0.206010 0.429946 -0.232288
v 0.193952 0.399780 0.243838
v 0.193952 0.403128 0.232288
v 0.193952 0.429946 0.247186
v 0.193952 0.433294 0.235636
v -0.198471 0.909732 0.224328
v -0.198471 0.956977 0.220882
v -0.207099 0.304015 -0.243838
v -0.207099 0.307363 -0.232288
v -0.207099 0.334182 -0.247186
v -0.207099 0.337530 -0.235636
v -0.193109 0.304015 0.235636
v -0.193109 0.334182 0.232288
v -0.218455 0.304015 0.218492
v -0.206906 0.307363 0.218492
v -0.224244 0.304015 -0.218492
v -0.235794 0.307363 -0.218492
v -0.221804 0.334182 0.218492
v -0.232445 0.337530 -0.218492
v -0.220896 0.334182 -0.218492
v -0.210254 0.337530 0.218492
v -0.218455 0.399780 0.218492
v -0.206906 0.403128 0.218492
v -0.224244 0.399780 -0.218492
v -0.235794 0.403128 -0.218492
v -0.221804 0.429946 0.218492
v -0.232445 0.433294 -0.218492
v -0.220896 0.429946 -0.218492
v -0.210254 0.433294 0.218492
v -0.207099 0.399780 -0.243838
v -0.207099 0.403128 -0.232288
v -0.207099 0.429946 -0.247186
v -0.207099 0.433294 -0.235636
v -0.193109 0.399780 0.235636
v -0.193109 0.429946 0.232288
v -0.198471 0.913178 0.248179
v -0.198471 0.960423 0.244734
v -0.193109 0.307363 0.247186
v -0.193109 0.337530 0.243838
v -0.193109 0.403128 0.247186
v -0.193109 0.433294 0.243838
v 0.238880 0.003348 -0.248013
v 0.235532 0.000000 -0.248013
v 0.205365 0.003348 -0.248013
v 0.208713 0.003348 -0.251362
v 0.235532 0.003348 -0.217847
v 0.235532 0.000000 -0.221195
v 0.208713 0.003348 -0.217847
v 0.205365 0.003348 -0.221195
v 0.235532 0.469532 -0.248013
v 0.238880 0.466183 -0.248013
v 0.208713 0.469532 -0.248013
v 0.208713 0.466183 -0.251362
v 0.235532 0.469532 -0.221195
v 0.235532 0.466183 -0.217847
v 0.208713 0.469532 -0.221195
v 0.205365 0.466183 -0.221195
v 0.226822 0.003348 0.221195
v 0.223474 0.000000 0.221195
v 0.193307 0.003348 0.221195
v 0.196656 0.003348 0.217847
v 0.223474 0.003348 0.251361
v 0.223474 0.000000 0.248013
v 0.196656 0.003348 0.251361
v 0.193307 0.003348 0.248013
v 0.223474 0.967676 0.221195
v 0.226822 0.964327 0.221195
v 0.196656 0.967676 0.221195
v 0.196656 0.964327 0.217847
v 0.223474 0.967676 0.248013
v 0.223474 0.964327 0.251361
v 0.196656 0.967676 0.248013
v 0.193307 0.964327 0.248013
v -0.236621 0.003348 -0.251362
v -0.236621 0.000000 -0.248013
v -0.236621 0.003348 -0.217847
v -0.239969 0.003348 -0.221195
v -0.206454 0.003348 -0.221195
v -0.209802 0.003348 -0.217847
v -0.206454 0.003348 -0.248013
v -0.209802 0.000000 -0.248013
v -0.236621 0.469532 -0.248013
v -0.236621 0.466183 -0.251362
v -0.209802 0.469532 -0.248013
v -0.206454 0.466183 -0.248013
v -0.209802 0.469532 -0.221195
v -0.209802 0.466183 -0.217847
v -0.236621 0.469532 -0.221195
v -0.239969 0.466183 -0.221195
v -0.222631 0.003348 0.217847
v -0.222631 0.000000 0.221195
v -0.222631 0.003348 0.251361
v -0.225979 0.003348 0.248013
v -0.192464 0.003348 0.248013
v -0.195813 0.003348 0.251361
v -0.192464 0.003348 0.221195
v -0.195813 0.000000 0.221195
v -0.222631 0.967676 0.221195
v -0.222631 0.964327 0.217847
v -0.195813 0.967676 0.221195
v -0.192464 0.964327 0.221195
v -0.195813 0.967676 0.248013
v -0.195813 0.964327 0.251361
v -0.222631 0.967676 0.248013
v -0.225979 0.964327 0.248013
v -0.197177 0.708326 0.243838
v 0.197291 0.711674 0.247186
v -0.197177 0.711674 0.232288
v 0.197291 0.708326 0.235636
v -0.197177 0.738492 0.247186
v 0.197291 0.741840 0.243838
v -0.197177 0.741840 0.235636
v 0.197291 0.738492 0.232288
v -0.197177 0.711674 0.247186
v 0.197291 0.708326 0.243838
v -0.197177 0.708326 0.235636
v 0.197291 0.711674 0.232288
v -0.197177 0.741840 0.243838
v 0.197291 0.738492 0.247186
v -0.197177 0.738492 0.232288
v 0.197291 0.741840 0.235636
v 0.197291 0.856175 0.235636
v 0.197291 0.856175 0.243838
v -0.197177 0.856175 0.243838
v -0.197177 0.856175 0.235636
v 0.197291 0.889690 0.235636
v -0.197177 0.889690 0.235636
v -0.197177 0.889690 0.243838
v 0.197291 0.889690 0.243838
v 0.197291 0.859523 0.232288
v -0.197177 0.859523 0.232288
v -0.197177 0.886341 0.232288
v 0.197291 0.886341 0.232288
v -0.197177 0.859523 0.247186
v 0.197291 0.859523 0.247186
v 0.197291 0.886341 0.247186
v -0.197177 0.886341 0.247186
vn -0.0000 -1.0000 -0.0000
vn -0.0000 1.0000 -0.0000
vn -0.0000 0.3827 -0.9239
vn 0.0002 -0.3824 -0.9240
vn -0.0000 -0.3827 -0.9239
vn 0.9246 0.3799 0.0294
vn 0.9221 -0.3859 0.0295
vn 0.9246 -0.3799 0.0294
vn -0.9246 -0.3797 0.0317
vn -0.9219 0.3861 0.0317
vn -0.9246 0.3796 0.0317
vn -0.0001 0.3825 0.9239
vn -0.0002 -0.3826 0.9239
vn -0.0000 0.3829 0.9238
vn -0.0000 -1.0000 0.0001
vn -0.0000 -0.9240 0.3825
vn -0.0001 -0.9238 0.3830
vn -0.0000 -1.0000 -0.0001
vn -0.0000 -0.9239 -0.3826
vn -0.0000 -0.9237 -0.3830
vn -0.0000 0.9240 0.3825
vn -0.0000 1.0000 0.0001
vn -0.0001 0.9238 0.3830
vn -0.0000 0.9239 -0.3826
vn -0.0000 1.0000 -0.0001
vn 0.0001 0.9236 -0.3833
vn -0.3775 -0.9259 0.0151
vn -0.0015 -1.0000 0.0020
vn 0.0009 -1.0000 0.0019
vn 0.0015 -1.0000 0.0021
vn 0.3780 -0.9257 0.0142
vn -0.0009 -1.0000 0.0019
vn 0.3780 0.9257 0.0142
vn 0.0015 1.0000 0.0020
vn -0.0009 1.0000 0.0019
vn -0.0015 1.0000 0.0020
vn -0.3775 0.9259 0.0151
vn 0.0009 1.0000 0.0019
vn -0.3248 -0.5093 -0.7969
vn -0.3579 0.3441 -0.8680
vn -0.2527 0.5021 -0.8271
vn -0.8755 -0.3416 -0.3417
vn -0.8258 0.5050 -0.2508
vn -0.8755 0.3416 -0.3417
vn 0.8262 0.5052 -0.2494
vn 0.8761 -0.3416 -0.3403
vn 0.8761 0.3417 -0.3403
vn 0.2530 0.5023 -0.8269
vn 0.3579 -0.3441 -0.8680
vn 0.3252 -0.5095 -0.7967
vn 0.3315 -0.5048 0.7970
vn 0.3254 0.3397 0.8825
vn 0.2569 0.5004 0.8268
vn 0.8754 0.3416 0.3421
vn 0.7966 -0.5047 0.3327
vn 0.8276 0.4977 0.2594
vn -0.7970 -0.5049 0.3315
vn -0.8758 0.3416 0.3410
vn -0.8280 0.4978 0.2582
vn -0.2572 0.5006 0.8266
vn -0.3254 -0.3397 0.8825
vn -0.3318 -0.5050 0.7968
vn 0.3452 -0.8799 -0.3264
vn 0.8880 -0.3431 -0.3062
vn 0.8611 -0.3411 0.3770
vn 0.3254 -0.3397 0.8824
vn 0.3366 -0.8717 0.3562
vn 0.8611 0.3411 0.3770
vn 0.3366 0.8717 0.3562
vn 0.3579 0.3441 -0.8680
vn 0.3452 0.8799 -0.3264
vn 0.8880 0.3431 -0.3062
vn -0.3366 -0.8717 0.3562
vn -0.8611 -0.3411 0.3770
vn -0.8880 -0.3431 -0.3062
vn -0.3579 -0.3441 -0.8680
vn -0.3452 -0.8799 -0.3264
vn -0.8880 0.3431 -0.3062
vn -0.3452 0.8799 -0.3264
vn -0.3254 0.3397 0.8824
vn -0.3366 0.8717 0.3562
vn -0.8611 0.3411 0.3770
vn 0.3418 0.8757 -0.3410
vn 0.3422 0.3417 -0.8753
vn -0.3415 0.3416 -0.8756
vn -0.3416 0.8756 -0.3416
vn -0.3415 -0.3416 -0.8756
vn -0.3416 -0.8756 -0.3416
vn 0.3418 -0.8757 -0.3410
vn 0.3422 -0.3417 -0.8753
vn 0.3415 -0.8755 0.3419
vn 0.8754 -0.3416 0.3421
vn 0.3413 -0.3416 0.8757
vn -0.3419 -0.3417 0.8754
vn -0.8758 -0.3416 0.3410
vn -0.3417 -0.8757 0.3413
vn -0.3419 0.3417 0.8754
vn -0.3417 0.8757 0.3413
vn 0.3415 0.8755 0.3419
vn 0.3413 0.3416 0.8757
vn 0.2857 -0.9531 0.0994
vn 0.0970 -0.9903 0.0996
vn -0.0969 -0.9903 0.0995
vn -0.7968 -0.5096 -0.3245
vn -0.2887 -0.9525 -0.0969
vn -0.0911 -0.9919 -0.0889
vn 0.0911 -0.9919 -0.0887
vn 0.7973 -0.5098 -0.3231
vn -0.1013 0.9893 0.1050
vn 0.0011 0.9231 0.3845
vn 0.1013 0.9893 0.1052
vn 0.3788 0.9254 0.0072
vn 0.0966 0.9910 -0.0928
vn 0.0016 0.9246 -0.3809
vn -0.0966 0.9910 -0.0929
vn -0.3868 0.9221 0.0078
vn 0.3868 -0.9220 0.0145
vn 0.9221 0.3859 0.0295
vn 0.3868 0.9220 0.0145
vn -0.9219 -0.3861 0.0317
vn -0.3873 -0.9218 0.0154
vn -0.3873 0.9218 0.0154
vn 0.0938 -0.9506 0.2958
vn -0.1021 -0.9550 -0.2785
vn -0.0938 -0.9507 0.2957
vn 0.1021 -0.9550 -0.2784
vn -0.0011 0.9231 0.3845
vn -0.0016 0.9246 -0.3809
vn -0.2856 -0.9532 0.0990
vn 0.2885 -0.9526 -0.0964
vn -0.3787 0.9255 0.0068
vn 0.3867 0.9222 0.0085
vn -0.0001 -0.3825 0.9239
vn 0.0002 0.3824 -0.9240
vn -0.0000 -0.0002 -1.0000
vn -0.0000 0.0001 -1.0000
vn -0.0000 0.9239 -0.3827
vn -0.0000 0.9239 0.3827
vn -0.0000 0.0002 -1.0000
vn -0.0001 -0.0002 -1.0000
vn 0.0001 0.0002 -1.0000
vn 0.0002 -0.0002 -1.0000
vn -0.0000 -0.0001 -1.0000
vn 0.0001 -1.0000 -0.0000
vn -0.0001 -1.0000 -0.0000
vn 0.0001 1.0000 -0.0000
vn -0.0001 1.0000 -0.0000
vn 1.0000 -0.0003 -0.0000
vn 1.0000 0.0002 -0.0000
vn -1.0000 0.0001 -0.0000
vn -1.0000 -0.0002 -0.0000
vn -1.0000 0.0002 -0.0000
vn 0.0003 -1.0000 -0.0000
vn -0.0003 -1.0000 -0.0000
vn 0.0004 -1.0000 -0.0000
vn 1.0000 0.0003 -0.0000
vn 0.0002 -1.0000 0.0002
vn -0.0002 -1.0000 -0.0002
vn 0.0002 -1.0000 -0.0002
vn 0.0001 -0.0001 -1.0000
vn 0.0001 -0.0000 -1.0000
vn -1.0000 -0.0001 -0.0001
vn -1.0000 -0.0000 -0.0000
vn -1.0000 -0.0000 -0.0001
vn -0.0001 -0.0001 1.0000
vn -0.0000 -0.0000 1.0000
vn -0.0001 -0.0000 1.0000
vn 1.0000 -0.0001 -0.0000
vn 1.0000 0.0002 0.0001
vn 1.0000 -0.0001 0.0001
vn -0.0000 -1.0000 0.0002
vn -0.0000 -1.0000 -0.0002
vn -0.0000 1.0000 0.0002
vn -0.0000 1.0000 -0.0002
vn -0.0001 -1.0000 0.0002
vn -0.0001 -0.0001 -1.0000
vn -0.0000 -0.0000 -1.0000
vn -1.0000 -0.0001 -0.0000
vn 0.0001 -0.0000 1.0000
vn 1.0000 -0.0001 -0.0001
vn 1.0000 0.0001 -0.0000
vn 1.0000 -0.0000 0.0001
vn -0.0003 0.0002 1.0000
vn -0.0000 -0.0002 1.0000
vn -0.0001 -1.0000 -0.0003
vn -0.0001 0.0002 1.0000
vn -0.0002 -0.0002 1.0000
vn -0.0004 0.0002 1.0000
vn -0.0005 -0.0002 1.0000
vn -0.0000 -0.0001 1.0000
vn -1.0000 -0.0003 -0.0000
vn -1.0000 -0.0002 0.0001
vn 1.0000 -0.0003 -0.0001
vn -0.0001 -0.0000 -1.0000
vn 1.0000 0.0001 -0.0001
vn -1.0000 0.0001 0.0002
vn 0.0001 -0.0002 -1.0000
vn -0.0000 -0.9239 0.3827
vn -0.0001 -1.0000 -0.0002
vn -0.0000 -0.9239 -0.3827
vn -0.0000 0.0002 1.0000
vn -0.0002 0.0002 1.0000
vn 0.0002 1.0000 -0.0002
vn -0.0000 -1.0000 0.0003
vn -0.0004 -1.0000 -0.0000
vn -0.0000 0.0001 1.0000
vn -0.0002 1.0000 0.0002
vn -0.0002 -1.0000 0.0003
vn 1.0000 0.0001 -0.0002
vn -1.0000 -0.0000 0.0001
vn 0.0003 -1.0000 0.0001
vn 1.0000 -0.0000 -0.0002
vn 0.0003 -1.0000 0.0002
vn -1.0000 0.0001 -0.0001
vn 0.0001 0.0001 -1.0000
vn -1.0000 0.0002 -0.0001
vn -0.0000 -1.0000 -0.0012
vn -0.0000 -1.0000 0.0012
vn -0.0000 -0.0012 1.0000
vn -0.0000 0.0012 1.0000
vn -0.0000 -0.0003 -1.0000
vn -0.0000 0.0003 -1.0000
vn -0.0001 -1.0000 -0.0044
vn 0.0001 -1.0000 0.0002
vn -0.0000 -1.0000 0.0044
vn 0.0001 1.0000 -0.0001
vn -0.0000 -0.0006 1.0000
vn -0.0000 0.0007 1.0000
vn -0.0000 -0.0008 1.0000
vn -0.0000 -0.0004 -1.0000
vn 0.0002 0.0004 -1.0000
vn -0.0002 1.0000 0.0001
vn 0.0002 0.0001 -1.0000
vn 1.0000 0.0004 -0.0000
vn -1.0000 0.0003 -0.0000
vn 0.0001 0.0012 1.0000
vn -0.0001 0.0003 -1.0000
vn -0.0000 0.0005 1.0000
vn -0.0000 0.0004 -1.0000
vt 0.570084 0.728565
vt 0.262244 0.439609
vt 0.575118 0.453833
vt 0.260803 0.042128
vt 0.549668 0.349872
vt 0.275022 0.354905
vt 0.329755 0.836987
vt 0.016194 0.814191
vt 0.329755 0.814185
vt 0.880201 0.321381
vt 0.906933 0.009701
vt 0.901237 0.321746
vt 0.015106 0.877158
vt 0.327557 0.893056
vt 0.015471 0.898193
vt 0.999021 0.891360
vt 0.977822 0.620046
vt 0.999023 0.620046
vt 0.590513 0.728501
vt 0.610878 0.454950
vt 0.605871 0.728798
vt 0.242182 0.438750
vt 0.221771 0.732668
vt 0.227148 0.438443
vt 0.276139 0.390653
vt 0.549605 0.370295
vt 0.549901 0.385648
vt 0.553770 0.001668
vt 0.259944 0.022072
vt 0.259637 0.007044
vt 0.569742 0.765822
vt 0.256840 0.753107
vt 0.570053 0.748837
vt 0.262956 0.419349
vt 0.576143 0.416526
vt 0.575830 0.433573
vt 0.237727 0.355929
vt 0.240549 0.042840
vt 0.254769 0.355617
vt 0.574203 0.036726
vt 0.586913 0.349530
vt 0.569934 0.349841
vt 0.813476 0.823394
vt 0.793878 0.803954
vt 0.808126 0.800608
vt 0.733379 0.967218
vt 0.718319 0.946018
vt 0.733379 0.946018
vt 0.751937 0.946018
vt 0.736877 0.967218
vt 0.736877 0.946018
vt 0.721939 0.801399
vt 0.730891 0.827547
vt 0.716581 0.824181
vt 0.733254 0.937153
vt 0.715279 0.914525
vt 0.733254 0.914525
vt 0.800168 0.843355
vt 0.783669 0.866582
vt 0.783669 0.843355
vt 0.707055 0.900052
vt 0.690561 0.876832
vt 0.707055 0.876832
vt 0.784833 0.881863
vt 0.802744 0.904494
vt 0.784833 0.904494
vt 0.001792 0.780172
vt 0.007400 0.774954
vt 0.007400 0.785415
vt 0.708577 0.937153
vt 0.715279 0.937153
vt 0.714871 0.943434
vt 0.708577 0.914525
vt 0.714871 0.908243
vt 0.010898 0.774399
vt 0.016507 0.779619
vt 0.010898 0.784857
vt 0.803152 0.910776
vt 0.809448 0.904494
vt 0.007400 0.982931
vt 0.007400 0.993392
vt 0.001792 0.988173
vt 0.017323 0.993389
vt 0.011714 0.988151
vt 0.017323 0.982931
vt 0.802744 0.881863
vt 0.803152 0.875581
vt 0.809448 0.881863
vt 0.251288 0.007210
vt 0.245351 0.007328
vt 0.251168 0.001282
vt 0.338656 0.836986
vt 0.344985 0.836986
vt 0.338656 0.843316
vt 0.338656 0.814186
vt 0.338656 0.807856
vt 0.344985 0.814186
vt 0.000977 0.814186
vt 0.007306 0.807857
vt 0.007294 0.814186
vt 0.800319 0.873030
vt 0.800168 0.866582
vt 0.806765 0.866582
vt 0.683965 0.900052
vt 0.690561 0.900052
vt 0.690409 0.906498
vt 0.683965 0.876832
vt 0.690409 0.870386
vt 0.800319 0.836908
vt 0.806765 0.843355
vt 0.595956 0.440367
vt 0.595834 0.446306
vt 0.583964 0.445640
vt 0.578623 0.737076
vt 0.590414 0.742796
vt 0.584366 0.748620
vt 0.236723 0.747240
vt 0.236819 0.741300
vt 0.248706 0.741040
vt 0.254386 0.431110
vt 0.242638 0.424463
vt 0.248686 0.418644
vt 0.569717 0.364146
vt 0.558176 0.358409
vt 0.570087 0.358191
vt 0.358864 0.910690
vt 0.365181 0.923186
vt 0.358864 0.926197
vt 0.710269 0.791979
vt 0.722956 0.794963
vt 0.338315 0.910688
vt 0.344515 0.923243
vt 0.338315 0.926489
vt 0.263200 0.406016
vt 0.576292 0.410295
vt 0.231498 0.356075
vt 0.227220 0.043084
vt 0.569663 0.772054
vt 0.256597 0.766381
vt 0.587472 0.036483
vt 0.593144 0.349448
vt 0.590437 0.417319
vt 0.584182 0.433726
vt 0.584492 0.416824
vt 0.801153 0.832961
vt 0.815434 0.829608
vt 0.586645 0.363836
vt 0.586922 0.357882
vt 0.737298 0.798337
vt 0.901237 0.330071
vt 0.879812 0.335476
vt 0.879912 0.329701
vt 0.001377 0.898582
vt 0.006781 0.877158
vt 0.007151 0.898482
vt 0.016206 0.843311
vt 0.329756 0.843316
vt 0.016206 0.807861
vt 0.329756 0.807856
vt 0.616833 0.455064
vt 0.276253 0.396603
vt 0.595520 0.454655
vt 0.578623 0.728721
vt 0.583653 0.453989
vt 0.578405 0.748990
vt 0.584055 0.765554
vt 0.578097 0.765830
vt 0.236805 0.732945
vt 0.254060 0.439459
vt 0.248691 0.732685
vt 0.728965 0.833768
vt 0.714622 0.830395
vt 0.549824 0.358408
vt 0.275844 0.375300
vt 0.275179 0.363437
vt 0.254922 0.363966
vt 0.238519 0.370215
vt 0.238025 0.364276
vt 0.260653 0.033947
vt 0.554047 0.016697
vt 0.553787 0.028580
vt 0.792833 0.797526
vt 0.807113 0.794172
vt 0.257058 0.741193
vt 0.570272 0.736923
vt 0.262738 0.431264
vt 0.575612 0.445487
vt 0.252460 0.042622
vt 0.266679 0.355398
vt 0.562292 0.036944
vt 0.558023 0.350060
vt 0.000977 0.836987
vt 0.007294 0.836987
vt 0.605712 0.737150
vt 0.590510 0.736856
vt 0.611158 0.440659
vt 0.611036 0.446598
vt 0.227314 0.430092
vt 0.242516 0.430402
vt 0.221521 0.746959
vt 0.221617 0.741019
vt 0.261853 0.390930
vt 0.267498 0.375614
vt 0.267790 0.390812
vt 0.563894 0.370192
vt 0.558250 0.385489
vt 0.557957 0.370292
vt 0.568056 0.001414
vt 0.562399 0.016711
vt 0.562119 0.001514
vt 0.245661 0.022525
vt 0.251598 0.022407
vt 0.819801 0.821909
vt 0.710269 0.822697
vt 0.715627 0.799914
vt 0.777072 0.866582
vt 0.777072 0.843355
vt 0.713651 0.900052
vt 0.819801 0.791193
vt 0.637267 0.990703
vt 0.629029 0.979350
vt 0.637267 0.976454
vt 0.355365 0.926488
vt 0.349165 0.923243
vt 0.355365 0.910688
vt 0.221493 0.420167
vt 0.221493 0.405919
vt 0.229724 0.408802
vt 0.255509 0.369904
vt 0.266832 0.363748
vt 0.261561 0.375732
vt 0.624486 0.991512
vt 0.618168 0.988502
vt 0.624486 0.976007
vt 0.578013 0.771782
vt 0.335876 0.892776
vt 0.327182 0.871461
vt 0.335506 0.871452
vt 0.592872 0.357796
vt 0.232075 0.364407
vt 0.885617 0.001006
vt 0.885338 0.009326
vt 0.584627 0.410872
vt 0.248488 0.752954
vt 0.248242 0.766363
vt 0.256870 0.732835
vt 0.254604 0.419196
vt 0.907159 0.330022
vt 0.907159 0.321694
vt 0.873996 0.329446
vt 0.240396 0.034491
vt 0.226932 0.034737
vt 0.252307 0.034272
vt 0.574050 0.028377
vt 0.562139 0.028595
vt 0.007407 0.904398
vt 0.015729 0.904109
vt 0.006831 0.871235
vt 0.553937 0.036756
vt 0.550016 0.391591
vt 0.977826 0.899634
vt 0.999023 0.899634
vt 0.611819 0.728913
vt 0.611664 0.737264
vt 0.616988 0.446713
vt 0.999022 0.611771
vt 0.977824 0.611772
vt 0.267904 0.396758
vt 0.007306 0.843316
vt 0.016194 0.836982
vt 0.326690 0.969509
vt 0.641603 0.934834
vt 0.641603 0.969509
vt 0.815664 0.778397
vt 0.464733 0.785364
vt 0.464733 0.778397
vt 0.931575 0.323192
vt 0.910657 0.000977
vt 0.931575 0.000977
vt 0.312151 0.975734
vt 0.614050 0.996652
vt 0.312151 0.996652
vt 0.686783 0.375910
vt 0.693748 0.747089
vt 0.686783 0.747282
vt 0.637502 0.001296
vt 0.630537 0.372475
vt 0.630537 0.001104
vt 0.348484 0.858458
vt 0.689380 0.837536
vt 0.689380 0.858458
vt 0.854284 0.341873
vt 0.833362 0.000977
vt 0.854284 0.000977
vt 0.677476 0.001296
vt 0.684441 0.372475
vt 0.677476 0.372668
vt 0.460915 0.785361
vt 0.089736 0.778396
vt 0.461107 0.778396
vt 0.000977 0.867737
vt 0.341873 0.846815
vt 0.341873 0.867737
vt 0.844392 0.686701
vt 0.823470 0.345805
vt 0.844392 0.345805
vt 0.789466 0.720267
vt 0.811840 0.742641
vt 0.789466 0.742641
vt 0.802462 0.939727
vt 0.824836 0.917353
vt 0.824836 0.939727
vt 0.693453 0.370182
vt 0.714847 0.000977
vt 0.714847 0.370182
vt 0.653988 0.749004
vt 0.675386 0.379724
vt 0.675386 0.749004
vt 0.721016 0.370182
vt 0.742409 0.000977
vt 0.742409 0.370182
vt 0.599316 0.373242
vt 0.620714 0.003962
vt 0.620714 0.373242
vt 0.000977 0.801514
vt 0.351907 0.794546
vt 0.351907 0.801514
vt 0.706335 0.801518
vt 0.355405 0.794550
vt 0.706335 0.794550
vt 0.382863 0.910418
vt 0.705079 0.931336
vt 0.382863 0.931336
vt 0.647895 0.937627
vt 0.670269 0.960001
vt 0.647895 0.960001
vt 0.771003 0.917353
vt 0.793378 0.939727
vt 0.771003 0.939727
vt 0.196601 0.767553
vt 0.217994 0.000977
vt 0.217994 0.767553
vt 0.003650 0.770589
vt 0.025045 0.003961
vt 0.025045 0.770589
vt 0.113914 0.767554
vt 0.135308 0.000977
vt 0.135308 0.767554
vt 0.031217 0.770588
vt 0.052612 0.003961
vt 0.052612 0.770588
vt 0.008737 0.927464
vt 0.334817 0.910736
vt 0.334817 0.927464
vt 0.912506 0.648906
vt 0.933424 0.326690
vt 0.933424 0.648906
vt 0.339404 0.897108
vt 0.668207 0.904076
vt 0.339404 0.904076
vt 0.899196 0.668178
vt 0.906163 0.339375
vt 0.906163 0.668178
vt 0.000977 0.933787
vt 0.323192 0.954705
vt 0.000977 0.954705
vt 0.890010 0.339327
vt 0.883042 0.668131
vt 0.883042 0.339327
vt 0.645101 0.970815
vt 0.947001 0.991733
vt 0.645101 0.991733
vt 0.817128 0.000977
vt 0.810161 0.351907
vt 0.810161 0.000977
vt 0.829864 0.001238
vt 0.823470 0.342045
vt 0.823470 0.001033
vt 0.689552 0.827644
vt 0.348745 0.834038
vt 0.348540 0.827644
vt 0.757932 0.713971
vt 0.779703 0.359225
vt 0.779703 0.713971
vt 0.788637 0.713971
vt 0.810407 0.359225
vt 0.810407 0.713970
vt 0.689552 0.824146
vt 0.348745 0.817752
vt 0.689757 0.817752
vt 0.689318 0.807860
vt 0.348510 0.814254
vt 0.348305 0.807860
vt 0.748625 0.355722
vt 0.770396 0.000977
vt 0.770396 0.355722
vt 0.779330 0.355722
vt 0.801100 0.000977
vt 0.801100 0.355722
vt 0.224286 0.398910
vt 0.246660 0.376536
vt 0.246660 0.398910
vt 0.956200 0.959668
vt 0.978574 0.937294
vt 0.978574 0.959668
vt 0.702760 0.373680
vt 0.724154 0.742886
vt 0.702760 0.742886
vt 0.649737 0.003961
vt 0.671135 0.373241
vt 0.649737 0.373241
vt 0.730323 0.373680
vt 0.751716 0.742886
vt 0.730323 0.742886
vt 0.624527 0.378075
vt 0.645925 0.747355
vt 0.624527 0.747355
vt 0.780381 0.720267
vt 0.758007 0.742641
vt 0.758007 0.720267
vt 0.761919 0.917353
vt 0.739545 0.939727
vt 0.739545 0.917353
vt 0.169039 0.000977
vt 0.190432 0.767553
vt 0.169039 0.767553
vt 0.086351 0.003961
vt 0.107745 0.770588
vt 0.086351 0.770588
vt 0.141477 0.000977
vt 0.162870 0.767553
vt 0.141477 0.767553
vt 0.058784 0.003961
vt 0.080179 0.770588
vt 0.058784 0.770588
vt 0.961338 0.608273
vt 0.982256 0.306374
vt 0.982256 0.608273
vt 0.898033 0.771404
vt 0.587770 0.755487
vt 0.898033 0.755487
vt 0.912506 0.652404
vt 0.947181 0.967317
vt 0.912506 0.967317
vt 0.959489 0.000977
vt 0.980407 0.302876
vt 0.959489 0.302876
vt 0.668174 0.880955
vt 0.339370 0.887922
vt 0.339370 0.880955
vt 0.949908 0.652404
vt 0.949908 0.967317
vt 0.008737 0.907912
vt 0.008737 0.910736
vt 0.819972 0.000977
vt 0.817128 0.351907
vt 0.464733 0.775553
vt 0.339404 0.894264
vt 0.668207 0.897108
vt 0.896352 0.668178
vt 0.899196 0.339375
vt 0.693748 0.375718
vt 0.696591 0.747011
vt 0.683940 0.375989
vt 0.640346 0.001375
vt 0.637502 0.372667
vt 0.627694 0.372397
vt 0.684441 0.001104
vt 0.687284 0.372397
vt 0.674633 0.001375
vt 0.460837 0.788204
vt 0.089544 0.785361
vt 0.089814 0.775553
vt 0.351907 0.804358
vt 0.355405 0.791706
vt 0.892854 0.339327
vt 0.890010 0.668131
vt 0.815664 0.788208
vt 0.815664 0.785364
vt 0.668207 0.906920
vt 0.000977 0.791702
vt 0.000977 0.794546
vt 0.706335 0.804362
vt 0.355405 0.801518
vt 0.880198 0.668131
vt 0.668174 0.890766
vt 0.668174 0.887922
vt 0.641603 0.972236
vt 0.326690 0.972236
vt 0.807316 0.351907
vt 0.813125 0.359228
vt 0.813125 0.713974
vt 0.782421 0.359228
vt 0.782421 0.713974
vt 0.755214 0.359228
vt 0.755214 0.713974
vt 0.785919 0.359228
vt 0.785919 0.713974
vt 0.803818 0.000980
vt 0.803818 0.355725
vt 0.773114 0.000980
vt 0.773114 0.355725
vt 0.745907 0.000980
vt 0.745907 0.355725
vt 0.776612 0.000980
vt 0.776612 0.355725
vt 0.339370 0.878110
vt 0.334817 0.930289
vt 0.909008 0.339375
vt 0.596642 0.373242
vt 0.599313 0.375913
vt 0.814633 0.742641
vt 0.811840 0.745434
vt 0.786673 0.720267
vt 0.789466 0.717474
vt 0.653985 0.751676
vt 0.651314 0.749004
vt 0.596642 0.003962
vt 0.599313 0.001290
vt 0.599316 0.003962
vt 0.799669 0.939727
vt 0.802462 0.942520
vt 0.827629 0.917353
vt 0.824836 0.914559
vt 0.651314 0.379724
vt 0.653985 0.377053
vt 0.653988 0.379724
vt 0.028543 0.770588
vt 0.031214 0.773259
vt 0.647895 0.962794
vt 0.645101 0.960001
vt 0.670269 0.934834
vt 0.673062 0.937627
vt 0.670269 0.937627
vt 0.003648 0.773260
vt 0.000977 0.770589
vt 0.028543 0.003961
vt 0.031214 0.001290
vt 0.031217 0.003961
vt 0.771003 0.914559
vt 0.768210 0.917353
vt 0.793378 0.942520
vt 0.796171 0.939727
vt 0.000977 0.003961
vt 0.003648 0.001290
vt 0.003650 0.003961
vt 0.249453 0.398910
vt 0.246660 0.401704
vt 0.624524 0.750026
vt 0.621853 0.747355
vt 0.224286 0.376536
vt 0.221493 0.376536
vt 0.224286 0.373743
vt 0.647063 0.373241
vt 0.649734 0.375913
vt 0.978574 0.962461
vt 0.981367 0.959668
vt 0.647063 0.003961
vt 0.649734 0.001290
vt 0.956200 0.934501
vt 0.956200 0.937294
vt 0.953406 0.937294
vt 0.621853 0.378075
vt 0.624524 0.375403
vt 0.755214 0.720267
vt 0.758007 0.717474
vt 0.058781 0.773259
vt 0.056110 0.770588
vt 0.780381 0.742641
vt 0.783174 0.742641
vt 0.780381 0.745434
vt 0.083677 0.770588
vt 0.086348 0.773259
vt 0.739545 0.914559
vt 0.736752 0.917353
vt 0.083677 0.003961
vt 0.086348 0.001290
vt 0.761919 0.942520
vt 0.761919 0.939727
vt 0.764712 0.939727
vt 0.056110 0.003961
vt 0.058781 0.001290
vt 0.786673 0.742641
vt 0.811840 0.720267
vt 0.814633 0.720267
vt 0.824836 0.942520
vt 0.802462 0.917353
vt 0.802462 0.914559
vt 0.827629 0.939727
vt 0.690783 0.370182
vt 0.693453 0.000977
vt 0.718345 0.370182
vt 0.721016 0.000977
vt 0.647895 0.934834
vt 0.670269 0.962794
vt 0.768210 0.939727
vt 0.793378 0.917353
vt 0.796171 0.917353
vt 0.193930 0.767553
vt 0.196601 0.000977
vt 0.111244 0.767554
vt 0.113914 0.000977
vt 0.249453 0.376536
vt 0.221493 0.398910
vt 0.981367 0.937294
vt 0.978574 0.934501
vt 0.953406 0.959668
vt 0.700089 0.742886
vt 0.727652 0.742886
vt 0.727652 0.373680
vt 0.755214 0.742641
vt 0.783174 0.720267
vt 0.736752 0.939727
vt 0.166368 0.767553
vt 0.138806 0.767553
vt 0.138806 0.000977
vt 0.345371 0.864801
vt 0.680467 0.871768
vt 0.345371 0.871768
vt 0.857702 0.680467
vt 0.850735 0.345371
vt 0.857702 0.345371
vt 0.957840 0.619828
vt 0.936922 0.312151
vt 0.957840 0.312151
vt 0.974324 0.931002
vt 0.953406 0.623326
vt 0.974324 0.623326
vt 0.345371 0.861956
vt 0.680467 0.864801
vt 0.680467 0.874612
vt 0.860546 0.345371
vt 0.847891 0.680467
vt 0.850735 0.680467
vt 0.860627 0.336072
vt 0.867594 0.000977
vt 0.867594 0.336072
vt 0.866889 0.339570
vt 0.873856 0.674666
vt 0.866889 0.674666
vt 0.955991 0.308653
vt 0.935073 0.000977
vt 0.955991 0.000977
vt 0.000977 0.979121
vt 0.308653 0.958203
vt 0.308653 0.979121
vt 0.857783 0.336072
vt 0.860627 0.000977
vt 0.870438 0.000977
vt 0.864044 0.674666
vt 0.876700 0.339570
vt 0.873856 0.339570
vt 0.977828 0.891360
vt 0.799228 0.826739
vt 0.718319 0.967218
vt 0.751937 0.967218
vt 0.736249 0.804764
vt 0.590125 0.434314
vt 0.242553 0.753289
vt 0.263295 0.400342
vt 0.221548 0.043175
vt 0.256483 0.772054
vt 0.593144 0.036366
vt 0.901137 0.335846
vt 0.001007 0.877258
vt 0.605616 0.743089
vt 0.227436 0.424153
vt 0.564188 0.385390
vt 0.568337 0.016612
vt 0.814451 0.799123
vt 0.713651 0.876832
vt 0.906942 0.001376
vt 0.254851 0.405727
vt 0.874285 0.321124
vt 0.587455 0.028131
vt 0.015159 0.871235
vt 0.558365 0.391436
vt 0.326690 0.934834
vt 0.910657 0.323192
vt 0.614050 0.975734
vt 0.348484 0.837536
vt 0.833362 0.341873
vt 0.000977 0.846815
vt 0.823470 0.686701
vt 0.705079 0.910418
vt 0.912506 0.326690
vt 0.323192 0.933787
vt 0.947001 0.970815
vt 0.829864 0.342250
vt 0.689757 0.834038
vt 0.757932 0.359225
vt 0.788637 0.359225
vt 0.348540 0.824146
vt 0.689523 0.814254
vt 0.748625 0.000977
vt 0.779330 0.000977
vt 0.724154 0.373680
vt 0.671135 0.003961
vt 0.751716 0.373680
vt 0.645925 0.378075
vt 0.190432 0.000977
vt 0.107745 0.003961
vt 0.162870 0.000977
vt 0.080179 0.003961
vt 0.961338 0.306374
vt 0.587770 0.771404
vt 0.947181 0.652404
vt 0.980407 0.000977
vt 0.334817 0.907912
vt 0.819972 0.351907
vt 0.815664 0.775553
vt 0.668207 0.894264
vt 0.896352 0.339375
vt 0.696591 0.375640
vt 0.683940 0.747360
vt 0.640346 0.372746
vt 0.627694 0.001025
vt 0.687284 0.001025
vt 0.674633 0.372746
vt 0.089465 0.788204
vt 0.461186 0.775553
vt 0.000977 0.804358
vt 0.706335 0.791706
vt 0.892854 0.668131
vt 0.464733 0.788208
vt 0.339404 0.906920
vt 0.351907 0.791702
vt 0.355405 0.804362
vt 0.880198 0.339327
vt 0.339370 0.890766
vt 0.807316 0.000977
vt 0.668174 0.878110
vt 0.008737 0.930289
vt 0.909008 0.668178
vt 0.811840 0.717474
vt 0.789466 0.745434
vt 0.799669 0.917353
vt 0.690783 0.000977
vt 0.718345 0.000977
vt 0.673062 0.960001
vt 0.645101 0.937627
vt 0.793378 0.914559
vt 0.771003 0.942520
vt 0.193930 0.000977
vt 0.111244 0.000977
vt 0.246660 0.373743
vt 0.224286 0.401704
vt 0.956200 0.962461
vt 0.700090 0.373680
vt 0.758007 0.745434
vt 0.780381 0.717474
vt 0.739545 0.942520
vt 0.764712 0.917353
vt 0.761919 0.914559
vt 0.166368 0.000977
vt 0.936922 0.619828
vt 0.953406 0.931002
vt 0.680467 0.861956
vt 0.345371 0.874612
vt 0.860546 0.680467
vt 0.847891 0.345371
vt 0.935073 0.308653
vt 0.000977 0.958203
vt 0.857783 0.000977
vt 0.870438 0.336072
vt 0.864044 0.339570
vt 0.876700 0.674666
s 1
f 121/1/1 141/2/1 142/3/1
f 152/4/2 132/5/2 151/6/2
f 127/7/3 157/8/4 126/9/5
f 112/10/6 104/11/7 111/12/8
f 120/13/9 96/14/10 119/15/11
f 136/16/12 146/17/13 147/18/14
f 139/19/15 145/20/16 138/21/17
f 159/22/18 125/23/19 158/24/20
f 148/25/21 134/26/22 135/27/23
f 128/28/24 154/29/25 155/30/26
f 94/31/27 106/32/28 93/33/29
f 109/34/30 89/35/31 90/36/32
f 102/37/33 114/38/34 101/39/35
f 117/40/36 97/41/37 98/42/38
f 19/43/39 38/44/40 88/45/41
f 46/46/42 87/47/43 43/48/44
f 81/49/45 12/50/46 41/51/47
f 23/52/48 25/53/49 72/54/50
f 17/55/51 30/56/52 80/57/53
f 16/58/54 57/59/55 79/60/56
f 63/61/57 54/62/58 73/63/59
f 21/64/60 33/65/61 64/66/62
f 1/67/63 25/68/49 26/69/64
f 2/70/65 27/71/66 28/72/67
f 3/73/68 29/74/69 30/56/52
f 4/75/70 31/76/71 32/77/72
f 5/78/73 33/65/61 34/79/74
f 6/80/75 35/81/76 36/82/77
f 7/83/78 37/84/79 38/85/40
f 8/86/80 39/87/81 40/88/82
f 9/89/83 41/90/47 42/91/84
f 10/92/85 43/93/44 44/94/86
f 11/95/87 45/96/88 46/97/42
f 12/98/46 47/99/89 48/100/90
f 13/101/91 49/102/92 50/103/93
f 14/104/94 51/105/95 52/106/96
f 15/107/97 53/108/98 54/62/58
f 16/58/54 55/109/99 56/110/100
f 57/111/55 58/112/101 59/113/102
f 61/114/103 63/115/57 64/116/62
f 65/117/104 66/118/105 67/119/106
f 69/120/107 71/121/108 72/122/50
f 21/123/60 75/124/109 76/125/110
f 77/126/111 78/127/112 79/128/56
f 23/52/48 83/129/113 84/130/114
f 85/131/115 86/132/116 87/133/43
f 110/134/117 104/135/7 89/35/31
f 103/136/118 113/137/119 102/37/33
f 95/138/120 105/139/121 94/31/27
f 118/140/122 96/141/10 97/41/37
f 27/142/66 60/143/123 28/144/67
f 36/145/77 19/43/39 68/146/124
f 8/147/80 76/125/110 39/148/81
f 31/149/71 23/52/48 84/130/114
f 26/150/64 4/151/70 32/152/72
f 30/56/52 2/70/65 3/73/68
f 38/153/40 6/154/75 7/155/78
f 34/79/74 8/86/80 40/88/82
f 155/156/26 127/7/3 128/157/24
f 126/9/5 158/158/20 125/159/19
f 146/160/13 138/21/17 145/20/16
f 135/27/23 147/161/14 148/25/21
f 144/162/18 140/163/1 143/164/1
f 18/165/125 33/166/61 5/167/73
f 124/168/1 160/169/1 123/170/1
f 72/54/50 1/171/63 20/172/126
f 133/173/2 149/174/25 150/175/2
f 22/176/127 30/177/52 29/178/69
f 153/179/2 129/180/2 130/181/2
f 88/45/41 37/182/79 24/183/128
f 93/33/29 107/184/1 92/185/1
f 108/186/1 90/36/32 91/187/1
f 101/39/35 115/188/2 100/189/2
f 116/190/2 98/42/38 99/191/2
f 11/95/87 43/93/44 10/92/85
f 41/192/47 48/100/90 42/193/84
f 15/107/97 51/105/95 14/104/94
f 49/102/92 56/110/100 50/103/93
f 52/194/96 63/115/57 62/195/129
f 58/112/101 49/196/92 13/197/91
f 47/198/89 71/121/108 70/199/130
f 66/118/105 46/200/42 45/201/88
f 16/202/54 78/203/112 55/204/99
f 73/205/59 53/206/98 74/207/131
f 43/208/44 86/209/116 44/210/86
f 81/211/45 9/89/83 82/212/132
f 88/45/41 65/213/104 19/43/39
f 23/52/48 71/214/108 81/215/45
f 79/60/56 17/216/51 80/217/53
f 73/63/59 64/218/62 63/61/57
f 88/45/41 24/183/128 85/219/115
f 85/220/115 87/221/43 88/222/41
f 81/223/45 82/224/132 83/225/113
f 83/226/113 23/227/48 81/228/45
f 80/229/53 22/176/127 77/230/111
f 77/230/111 79/231/56 80/229/53
f 73/232/59 74/233/131 75/234/109
f 75/124/109 21/123/60 73/205/59
f 28/144/67 90/36/32 89/35/31
f 60/143/123 91/187/1 90/36/32
f 143/164/1 121/1/1 142/3/1
f 61/114/103 93/33/29 92/185/1
f 5/167/73 93/33/29 18/165/125
f 34/235/74 94/31/27 5/167/73
f 40/236/82 95/237/120 34/238/74
f 40/239/82 97/41/37 96/141/10
f 39/148/81 98/42/38 97/41/37
f 75/124/109 98/42/38 76/125/110
f 150/175/2 132/5/2 133/173/2
f 22/176/127 100/189/2 77/230/111
f 29/178/69 101/39/35 22/176/127
f 3/240/68 102/37/33 29/178/69
f 3/241/68 104/11/7 103/242/118
f 2/243/65 89/35/31 104/135/7
f 68/244/124 105/139/121 36/245/77
f 68/244/124 107/184/1 106/32/28
f 123/170/1 141/2/1 122/246/1
f 69/120/107 109/34/30 108/186/1
f 20/247/126 110/134/117 109/34/30
f 1/248/63 111/12/8 110/249/117
f 26/150/64 112/10/6 111/12/8
f 31/250/71 112/10/6 32/152/72
f 84/251/114 113/137/119 31/252/71
f 83/253/113 114/38/34 84/251/114
f 130/181/2 152/4/2 153/179/2
f 24/254/128 116/190/2 85/255/115
f 24/254/128 118/140/122 117/40/36
f 37/256/79 119/15/11 118/257/122
f 6/154/75 119/15/11 7/155/78
f 36/258/77 120/13/9 6/154/75
f 107/184/1 121/1/1 92/185/1
f 67/119/106 122/246/1 107/184/1
f 67/119/106 124/168/1 123/170/1
f 45/201/88 124/168/1 66/118/105
f 11/95/87 125/159/19 45/96/88
f 10/92/85 126/9/5 11/95/87
f 10/92/85 128/157/24 127/7/3
f 44/210/86 129/180/2 128/28/24
f 85/255/115 129/180/2 86/209/116
f 85/255/115 131/259/2 130/181/2
f 116/190/2 132/5/2 131/259/2
f 99/191/2 133/173/2 132/5/2
f 74/207/131 133/173/2 75/124/109
f 74/207/131 135/27/23 134/26/22
f 53/206/98 136/260/12 135/27/23
f 14/261/94 136/16/12 15/262/97
f 52/194/96 137/263/133 14/264/94
f 62/195/129 138/21/17 52/194/96
f 62/195/129 140/163/1 139/19/15
f 92/185/1 140/163/1 61/114/103
f 108/186/1 142/3/1 141/2/1
f 91/187/1 143/164/1 142/3/1
f 58/112/101 143/164/1 59/113/102
f 58/112/101 145/20/16 144/162/18
f 50/265/93 145/20/16 13/197/91
f 56/266/100 146/17/13 50/267/93
f 56/268/100 148/25/21 147/161/14
f 78/203/112 148/25/21 55/204/99
f 78/203/112 150/175/2 149/174/25
f 100/189/2 150/175/2 77/230/111
f 115/188/2 151/6/2 100/189/2
f 83/253/113 152/4/2 115/188/2
f 83/253/113 154/29/25 153/179/2
f 9/89/83 154/29/25 82/212/132
f 9/269/83 156/270/134 155/156/26
f 48/100/90 156/270/134 42/193/84
f 47/99/89 157/8/4 48/100/90
f 47/198/89 159/22/18 158/24/20
f 69/120/107 159/22/18 70/199/130
f 69/120/107 141/2/1 160/169/1
f 213/271/135 164/272/136 266/273/135
f 217/274/137 168/275/138 271/276/137
f 215/277/135 167/278/139 269/279/140
f 308/280/141 274/281/142 219/282/143
f 173/283/144 176/284/145 278/285/144
f 281/286/146 284/287/147 179/288/147
f 174/289/148 177/290/149 277/291/150
f 175/292/151 180/293/152 280/294/151
f 181/295/153 184/296/154 286/297/155
f 289/298/146 292/299/147 187/300/147
f 182/301/148 185/302/156 285/303/148
f 183/304/151 188/305/152 288/306/151
f 342/307/157 190/308/158 338/309/159
f 347/310/2 349/311/2 345/312/2
f 340/313/160 193/314/161 189/315/160
f 344/316/162 194/317/163 339/318/164
f 341/319/165 196/320/166 343/321/167
f 337/322/168 195/323/169 191/324/170
f 246/325/171 197/326/172 294/327/157
f 328/328/173 295/329/174 247/330/174
f 327/331/139 293/332/135 245/333/135
f 354/334/159 204/335/175 202/336/158
f 363/337/2 365/338/2 361/339/22
f 356/340/176 205/341/177 201/342/161
f 360/343/178 206/344/150 355/345/164
f 357/346/179 208/347/167 359/348/167
f 353/349/180 207/350/181 203/351/182
f 163/352/173 214/353/174 332/354/173
f 272/355/183 304/356/184 166/357/184
f 273/358/157 307/359/185 170/360/172
f 276/361/174 334/362/173 171/363/173
f 296/364/186 326/365/187 198/366/184
f 297/367/171 329/368/172 210/369/172
f 299/370/188 335/371/189 209/372/190
f 270/373/171 303/374/172 165/375/172
f 309/376/154 311/377/153 222/378/153
f 225/379/147 227/380/146 314/381/147
f 313/382/150 312/383/178 221/384/178
f 315/385/181 310/386/168 223/387/168
f 317/388/154 319/389/153 230/390/153
f 233/391/147 235/392/146 322/393/147
f 321/394/152 320/395/191 229/396/192
f 323/397/181 318/398/193 231/399/168
f 376/400/159 238/401/175 370/402/158
f 383/403/2 379/404/22 377/405/2
f 378/406/194 240/407/161 369/408/143
f 380/409/195 373/410/182 375/411/168
f 382/412/179 371/413/167 374/414/190
f 384/415/196 237/416/164 372/417/178
f 392/418/159 250/419/175 386/420/158
f 399/421/2 395/422/146 393/423/2
f 394/424/194 252/425/160 385/426/176
f 396/427/195 389/428/170 391/429/168
f 398/430/179 387/431/167 390/432/190
f 400/433/196 249/434/164 388/435/178
f 330/436/141 298/437/197 257/438/143
f 265/439/198 301/440/199 162/441/200
f 260/442/201 161/443/184 267/444/201
f 262/445/201 169/446/184 275/447/202
f 258/448/174 211/449/173 300/450/203
f 161/443/184 259/451/171 265/452/198
f 164/453/136 214/353/174 268/454/174
f 166/455/184 216/456/171 270/373/171
f 167/457/139 217/274/137 271/276/137
f 169/458/184 261/459/204 273/358/157
f 172/460/136 220/461/174 276/361/174
f 279/462/145 280/463/151 176/284/145
f 278/285/144 277/464/150 173/283/144
f 177/465/149 178/466/146 281/286/146
f 180/467/152 179/288/147 284/287/147
f 287/468/205 288/469/151 184/296/154
f 286/297/155 285/470/148 181/295/153
f 185/471/156 186/472/146 289/298/146
f 188/473/152 187/300/147 292/299/147
f 198/474/184 246/325/171 294/327/157
f 199/475/139 247/330/174 295/329/174
f 209/476/190 263/477/171 297/367/171
f 218/478/201 168/275/138 306/479/138
f 219/480/143 170/360/172 307/359/185
f 245/481/135 197/326/172 325/482/158
f 248/483/201 200/484/173 328/328/173
f 257/485/143 210/369/172 329/368/172
f 264/486/206 211/449/173 336/487/207
f 213/271/135 162/488/200 301/489/199
f 215/490/135 165/375/172 303/374/172
f 223/387/168 222/491/153 311/492/153
f 221/384/178 224/493/154 309/494/154
f 314/495/147 313/382/150 225/496/147
f 316/497/146 315/385/181 227/498/146
f 231/399/168 230/499/153 319/500/153
f 229/396/192 232/501/154 317/502/154
f 322/503/147 321/394/152 233/504/147
f 324/505/146 323/397/181 235/506/146
f 212/507/136 258/448/174 300/450/203
f 260/508/201 163/352/173 332/354/173
f 262/509/201 171/363/173 334/362/173
f 189/510/160 337/322/168 338/511/159
f 190/308/158 339/512/164 340/513/160
f 191/514/170 341/515/165 342/307/157
f 192/516/208 343/517/167 344/316/162
f 193/518/161 345/519/2 346/520/209
f 194/521/163 347/310/2 348/522/194
f 195/523/169 349/311/2 350/524/179
f 196/525/166 351/526/25 352/527/210
f 201/528/161 353/349/180 354/529/159
f 202/336/158 355/530/164 356/531/176
f 203/532/182 357/533/179 358/534/211
f 204/535/175 359/536/167 360/343/178
f 205/537/177 361/538/22 362/539/212
f 206/540/150 363/337/2 364/541/194
f 207/542/181 365/338/2 366/543/179
f 208/544/167 367/545/25 368/546/210
f 237/547/164 369/548/143 370/402/158
f 238/549/175 371/550/167 372/417/178
f 239/551/213 373/552/182 374/553/190
f 240/554/161 375/411/168 376/555/159
f 241/556/214 377/405/2 378/557/194
f 242/558/215 379/559/22 380/409/195
f 243/560/181 381/561/2 382/562/179
f 244/563/166 383/564/2 384/415/196
f 249/565/164 385/566/176 386/420/158
f 250/567/175 387/568/167 388/435/178
f 251/569/213 389/570/170 390/571/190
f 252/572/160 391/429/168 392/573/159
f 253/574/216 393/423/2 394/575/194
f 254/576/177 395/577/146 396/427/195
f 255/578/181 397/579/2 398/580/179
f 256/581/166 399/582/2 400/433/196
f 337/583/168 342/307/157 338/309/159
f 341/515/165 192/584/208 342/307/157
f 344/585/162 190/308/158 192/584/208
f 340/513/160 338/309/159 190/308/158
f 193/586/161 347/310/2 345/312/2
f 194/521/163 351/587/25 347/310/2
f 196/588/166 349/311/2 351/587/25
f 349/311/2 346/589/209 345/312/2
f 339/590/164 348/591/194 340/313/160
f 346/520/209 189/510/160 193/518/161
f 343/517/167 352/527/210 344/316/162
f 191/592/170 350/593/179 341/319/165
f 353/594/180 358/534/211 354/334/159
f 357/533/179 204/335/175 358/534/211
f 360/595/178 202/336/158 204/335/175
f 356/531/176 354/334/159 202/336/158
f 205/596/177 363/337/2 361/339/22
f 206/540/150 367/597/25 363/337/2
f 208/598/167 365/338/2 367/597/25
f 207/542/181 361/339/22 365/338/2
f 355/599/164 364/600/194 356/340/176
f 362/539/212 201/528/161 205/537/177
f 359/536/167 368/546/210 360/343/178
f 203/601/182 366/602/179 357/346/179
f 372/603/178 370/402/158 238/401/175
f 374/553/190 238/401/175 239/551/213
f 375/604/168 239/551/213 376/400/159
f 369/548/143 376/400/159 370/402/158
f 242/605/215 377/405/2 379/404/22
f 381/561/2 380/606/195 379/404/22
f 244/607/166 381/561/2 383/403/2
f 241/556/214 383/403/2 377/405/2
f 380/409/195 240/554/161 242/558/215
f 237/608/164 378/406/194 369/408/143
f 382/412/179 373/609/182 243/610/181
f 384/415/196 371/550/167 244/563/166
f 388/611/178 386/420/158 250/419/175
f 390/571/190 250/419/175 251/569/213
f 391/612/168 251/569/213 392/418/159
f 385/566/176 392/418/159 386/420/158
f 254/613/177 393/423/2 395/422/146
f 255/578/181 395/422/146 397/579/2
f 399/421/2 398/580/179 397/579/2
f 253/574/216 399/421/2 393/423/2
f 396/427/195 252/572/160 254/576/177
f 249/614/164 394/424/194 385/426/176
f 398/430/179 389/615/170 255/616/181
f 400/433/196 387/568/167 256/581/166
f 411/617/217 410/618/218 401/619/218
f 406/620/1 407/621/1 413/622/1
f 402/623/219 405/624/220 409/625/219
f 403/626/221 408/627/222 412/628/221
f 403/629/221 404/630/217 411/617/217
f 402/631/219 401/619/218 410/618/218
f 405/632/220 406/620/1 413/622/1
f 408/633/222 407/621/1 416/634/1
f 418/635/223 420/636/224 417/637/225
f 422/638/25 424/639/22 421/640/226
f 426/641/227 428/642/228 425/643/229
f 430/644/230 432/645/231 429/646/230
f 430/647/230 419/648/172 418/635/223
f 426/649/227 417/637/225 420/636/224
f 428/650/228 422/638/25 421/640/226
f 432/651/231 424/639/22 423/652/232
f 121/1/1 122/246/1 141/2/1
f 152/4/2 131/259/2 132/5/2
f 127/7/3 156/270/134 157/8/4
f 112/10/6 103/242/118 104/11/7
f 120/13/9 95/237/120 96/14/10
f 136/16/12 137/653/133 146/17/13
f 139/19/15 144/162/18 145/20/16
f 159/22/18 124/168/1 125/23/19
f 148/25/21 149/174/25 134/26/22
f 128/28/24 129/180/2 154/29/25
f 94/31/27 105/139/121 106/32/28
f 109/34/30 110/134/117 89/35/31
f 102/37/33 113/137/119 114/38/34
f 117/40/36 118/140/122 97/41/37
f 19/43/39 35/654/76 38/44/40
f 46/46/42 65/655/104 87/47/43
f 81/49/45 71/656/108 12/50/46
f 23/52/48 4/657/70 25/53/49
f 17/55/51 27/71/66 30/56/52
f 16/58/54 49/102/92 57/59/55
f 63/61/57 51/105/95 54/62/58
f 21/64/60 8/86/80 33/65/61
f 60/143/123 17/658/51 59/113/102
f 17/658/51 57/111/55 59/113/102
f 64/116/62 18/165/125 61/114/103
f 61/114/103 62/195/129 63/115/57
f 68/244/124 19/659/39 67/119/106
f 19/659/39 65/117/104 67/119/106
f 72/122/50 20/247/126 69/120/107
f 69/120/107 70/199/130 71/121/108
f 110/134/117 111/660/8 104/135/7
f 103/136/118 112/661/6 113/137/119
f 95/138/120 120/662/9 105/139/121
f 118/140/122 119/663/11 96/141/10
f 27/142/66 17/658/51 60/143/123
f 36/145/77 35/654/76 19/43/39
f 8/147/80 21/123/60 76/125/110
f 31/149/71 4/657/70 23/52/48
f 26/150/64 25/664/49 4/151/70
f 30/56/52 27/71/66 2/70/65
f 38/153/40 35/665/76 6/154/75
f 34/79/74 33/65/61 8/86/80
f 155/156/26 156/270/134 127/7/3
f 126/9/5 157/8/4 158/158/20
f 146/160/13 137/263/133 138/21/17
f 135/27/23 136/260/12 147/161/14
f 144/162/18 139/19/15 140/163/1
f 18/165/125 64/116/62 33/166/61
f 124/168/1 159/22/18 160/169/1
f 72/54/50 25/53/49 1/171/63
f 133/173/2 134/26/22 149/174/25
f 22/176/127 80/229/53 30/177/52
f 153/179/2 154/29/25 129/180/2
f 88/45/41 38/44/40 37/182/79
f 93/33/29 106/32/28 107/184/1
f 108/186/1 109/34/30 90/36/32
f 101/39/35 114/38/34 115/188/2
f 116/190/2 117/40/36 98/42/38
f 11/95/87 46/97/42 43/93/44
f 41/192/47 12/98/46 48/100/90
f 15/107/97 54/62/58 51/105/95
f 49/102/92 16/58/54 56/110/100
f 52/194/96 51/666/95 63/115/57
f 58/112/101 57/111/55 49/196/92
f 47/198/89 12/667/46 71/121/108
f 66/118/105 65/117/104 46/200/42
f 16/202/54 79/231/56 78/203/112
f 73/205/59 54/668/58 53/206/98
f 43/208/44 87/669/43 86/209/116
f 81/211/45 41/90/47 9/89/83
f 88/45/41 87/670/43 65/213/104
f 23/52/48 72/54/50 71/214/108
f 79/60/56 57/59/55 17/216/51
f 73/63/59 21/671/60 64/218/62
f 28/144/67 60/143/123 90/36/32
f 60/143/123 59/113/102 91/187/1
f 143/164/1 140/163/1 121/1/1
f 61/114/103 18/165/125 93/33/29
f 5/167/73 94/31/27 93/33/29
f 34/235/74 95/138/120 94/31/27
f 40/236/82 96/14/10 95/237/120
f 40/239/82 39/148/81 97/41/37
f 39/148/81 76/125/110 98/42/38
f 75/124/109 99/191/2 98/42/38
f 150/175/2 151/6/2 132/5/2
f 22/176/127 101/39/35 100/189/2
f 29/178/69 102/37/33 101/39/35
f 3/240/68 103/136/118 102/37/33
f 3/241/68 2/672/65 104/11/7
f 2/243/65 28/144/67 89/35/31
f 68/244/124 106/32/28 105/139/121
f 68/244/124 67/119/106 107/184/1
f 123/170/1 160/169/1 141/2/1
f 69/120/107 20/247/126 109/34/30
f 20/247/126 1/673/63 110/134/117
f 1/248/63 26/150/64 111/12/8
f 26/150/64 32/152/72 112/10/6
f 31/250/71 113/674/119 112/10/6
f 84/251/114 114/38/34 113/137/119
f 83/253/113 115/188/2 114/38/34
f 130/181/2 131/259/2 152/4/2
f 24/254/128 117/40/36 116/190/2
f 24/254/128 37/675/79 118/140/122
f 37/256/79 7/155/78 119/15/11
f 6/154/75 120/13/9 119/15/11
f 36/258/77 105/676/121 120/13/9
f 107/184/1 122/246/1 121/1/1
f 67/119/106 123/170/1 122/246/1
f 67/119/106 66/118/105 124/168/1
f 45/201/88 125/23/19 124/168/1
f 11/95/87 126/9/5 125/159/19
f 10/92/85 127/7/3 126/9/5
f 10/92/85 44/94/86 128/157/24
f 44/210/86 86/209/116 129/180/2
f 85/255/115 130/181/2 129/180/2
f 85/255/115 116/190/2 131/259/2
f 116/190/2 99/191/2 132/5/2
f 99/191/2 75/124/109 133/173/2
f 74/207/131 134/26/22 133/173/2
f 74/207/131 53/206/98 135/27/23
f 53/206/98 15/677/97 136/260/12
f 14/261/94 137/653/133 136/16/12
f 52/194/96 138/21/17 137/263/133
f 62/195/129 139/19/15 138/21/17
f 62/195/129 61/114/103 140/163/1
f 92/185/1 121/1/1 140/163/1
f 108/186/1 91/187/1 142/3/1
f 91/187/1 59/113/102 143/164/1
f 58/112/101 144/162/18 143/164/1
f 58/112/101 13/197/91 145/20/16
f 50/265/93 146/160/13 145/20/16
f 56/266/100 147/18/14 146/17/13
f 56/268/100 55/204/99 148/25/21
f 78/203/112 149/174/25 148/25/21
f 78/203/112 77/230/111 150/175/2
f 100/189/2 151/6/2 150/175/2
f 115/188/2 152/4/2 151/6/2
f 83/253/113 153/179/2 152/4/2
f 83/253/113 82/212/132 154/29/25
f 9/89/83 155/30/26 154/29/25
f 9/269/83 42/193/84 156/270/134
f 48/100/90 157/8/4 156/270/134
f 47/99/89 158/158/20 157/8/4
f 47/198/89 70/199/130 159/22/18
f 69/120/107 160/169/1 159/22/18
f 69/120/107 108/186/1 141/2/1
f 213/271/135 302/678/233 164/272/136
f 217/274/137 306/479/138 168/275/138
f 215/277/135 305/679/139 167/278/139
f 308/280/141 172/680/136 274/281/142
f 173/283/144 279/462/145 176/284/145
f 281/286/146 178/466/146 284/287/147
f 174/289/148 282/681/234 177/290/149
f 175/292/151 283/682/152 180/293/152
f 181/295/153 287/468/205 184/296/154
f 289/298/146 186/472/146 292/299/147
f 182/301/148 290/683/234 185/302/156
f 183/304/151 291/684/152 188/305/152
f 342/307/157 192/584/208 190/308/158
f 347/310/2 351/587/25 349/311/2
f 340/313/160 348/591/194 193/314/161
f 344/316/162 352/527/210 194/317/163
f 341/319/165 350/593/179 196/320/166
f 337/322/168 346/520/209 195/323/169
f 246/325/171 325/482/158 197/326/172
f 328/328/173 200/484/173 295/329/174
f 327/331/139 199/685/139 293/332/135
f 354/334/159 358/534/211 204/335/175
f 363/337/2 367/597/25 365/338/2
f 356/340/176 364/600/194 205/341/177
f 360/343/178 368/546/210 206/344/150
f 357/346/179 366/602/179 208/347/167
f 353/349/180 362/539/212 207/350/181
f 163/352/173 268/454/174 214/353/174
f 272/355/183 218/686/201 304/356/184
f 273/358/157 261/459/204 307/359/185
f 276/361/174 220/461/174 334/362/173
f 296/364/186 248/687/201 326/365/187
f 297/367/171 263/477/171 329/368/172
f 299/370/188 264/688/206 335/371/189
f 270/373/171 216/456/171 303/374/172
f 309/376/154 224/689/154 311/377/153
f 225/379/147 316/690/146 227/380/146
f 313/382/150 226/691/150 312/383/178
f 315/385/181 228/692/181 310/386/168
f 317/388/154 232/693/154 319/389/153
f 233/391/147 324/694/146 235/392/146
f 321/394/152 234/695/235 320/395/191
f 323/397/181 236/696/156 318/398/193
f 376/400/159 239/551/213 238/401/175
f 383/403/2 381/561/2 379/404/22
f 378/406/194 242/697/215 240/407/161
f 380/409/195 243/698/181 373/410/182
f 382/412/179 244/699/166 371/413/167
f 384/415/196 241/700/214 237/416/164
f 392/418/159 251/569/213 250/419/175
f 399/421/2 397/579/2 395/422/146
f 394/424/194 254/701/177 252/425/160
f 396/427/195 255/702/181 389/428/170
f 398/430/179 256/703/166 387/431/167
f 400/433/196 253/704/216 249/434/164
f 330/436/141 212/705/136 298/437/197
f 265/439/198 259/706/171 301/440/199
f 260/442/201 331/707/184 161/443/184
f 262/445/201 333/708/184 169/446/184
f 258/448/174 336/487/207 211/449/173
f 161/443/184 331/707/184 259/451/171
f 164/453/136 302/709/233 214/353/174
f 166/455/184 304/710/184 216/456/171
f 167/457/139 305/711/139 217/274/137
f 169/458/184 333/712/184 261/459/204
f 172/460/136 308/713/141 220/461/174
f 279/462/145 175/714/151 280/463/151
f 278/285/144 174/715/148 277/464/150
f 177/465/149 282/716/234 178/466/146
f 180/467/152 283/717/152 179/288/147
f 287/468/205 183/718/151 288/469/151
f 286/297/155 182/719/148 285/470/148
f 185/471/156 290/720/234 186/472/146
f 188/473/152 291/721/152 187/300/147
f 198/474/184 326/722/187 246/325/171
f 199/475/139 327/723/139 247/330/174
f 209/476/190 335/724/189 263/477/171
f 218/478/201 272/725/183 168/275/138
f 219/480/143 274/726/142 170/360/172
f 245/481/135 293/727/135 197/326/172
f 248/483/201 296/728/186 200/484/173
f 257/485/143 298/729/197 210/369/172
f 264/486/206 299/730/188 211/449/173
f 213/271/135 266/273/135 162/488/200
f 215/490/135 269/731/140 165/375/172
f 223/387/168 310/386/168 222/491/153
f 221/384/178 312/383/178 224/493/154
f 314/495/147 226/691/150 313/382/150
f 316/497/146 228/692/181 315/385/181
f 231/399/168 318/398/193 230/499/153
f 229/396/192 320/395/191 232/501/154
f 322/503/147 234/695/235 321/394/152
f 324/505/146 236/696/156 323/397/181
f 212/507/136 330/732/141 258/448/174
f 260/508/201 267/733/201 163/352/173
f 262/509/201 275/734/202 171/363/173
f 337/583/168 191/514/170 342/307/157
f 341/515/165 343/735/167 192/584/208
f 344/585/162 339/512/164 190/308/158
f 340/513/160 189/736/160 338/309/159
f 193/586/161 348/522/194 347/310/2
f 194/521/163 352/737/210 351/587/25
f 196/588/166 350/524/179 349/311/2
f 349/311/2 195/523/169 346/589/209
f 339/590/164 194/738/163 348/591/194
f 346/520/209 337/322/168 189/510/160
f 343/517/167 196/525/166 352/527/210
f 191/592/170 195/739/169 350/593/179
f 353/594/180 203/532/182 358/534/211
f 357/533/179 359/740/167 204/335/175
f 360/595/178 355/530/164 202/336/158
f 356/531/176 201/741/161 354/334/159
f 205/596/177 364/541/194 363/337/2
f 206/540/150 368/742/210 367/597/25
f 208/598/167 366/543/179 365/338/2
f 207/542/181 362/743/212 361/339/22
f 355/599/164 206/744/150 364/600/194
f 362/539/212 353/349/180 201/528/161
f 359/536/167 208/544/167 368/546/210
f 203/601/182 207/745/181 366/602/179
f 372/603/178 237/547/164 370/402/158
f 374/553/190 371/746/167 238/401/175
f 375/604/168 373/552/182 239/551/213
f 369/548/143 240/747/161 376/400/159
f 242/605/215 378/557/194 377/405/2
f 381/561/2 243/560/181 380/606/195
f 244/607/166 382/562/179 381/561/2
f 241/556/214 384/748/196 383/403/2
f 380/409/195 375/411/168 240/554/161
f 237/608/164 241/749/214 378/406/194
f 382/412/179 374/414/190 373/609/182
f 384/415/196 372/417/178 371/550/167
f 388/611/178 249/565/164 386/420/158
f 390/571/190 387/750/167 250/419/175
f 391/612/168 389/570/170 251/569/213
f 385/566/176 252/751/160 392/418/159
f 254/613/177 394/575/194 393/423/2
f 255/578/181 396/752/195 395/422/146
f 399/421/2 256/753/166 398/580/179
f 253/574/216 400/754/196 399/421/2
f 396/427/195 391/429/168 252/572/160
f 249/614/164 253/755/216 394/424/194
f 398/430/179 390/432/190 389/615/170
f 400/433/196 388/435/178 387/568/167
f 411/617/217 404/630/217 410/618/218
f 406/620/1 416/634/1 407/621/1
f 402/623/219 414/756/236 405/624/220
f 403/626/221 415/757/237 408/627/222
f 403/629/221 412/758/221 404/630/217
f 402/631/219 409/759/219 401/619/218
f 405/632/220 414/760/236 406/620/1
f 408/633/222 415/761/237 407/621/1
f 418/635/223 419/648/172 420/636/224
f 422/638/25 423/652/232 424/639/22
f 426/641/227 427/762/238 428/642/228
f 430/644/230 431/763/239 432/645/231
f 430/647/230 429/764/230 419/648/172
f 426/649/227 425/765/229 417/637/225
f 428/650/228 427/766/238 422/638/25
f 432/651/231 431/767/239 424/639/22
