# Blender 5.1.0
# www.blender.org
o ceiling
v -0.114706 4.881558 1.949886
v -0.114706 4.881558 -1.950000
v 0.114706 4.881558 -1.950000
v 0.114706 4.881558 1.949886
v -0.130000 4.897158 -1.950000
v -0.130000 4.897159 1.949886
v 0.130000 4.897159 1.949886
v 0.130000 4.897158 -1.950000
v -0.374706 4.881558 1.949886
v -0.374706 4.881558 -1.950000
v -0.145294 4.881558 -1.950000
v -0.145294 4.881558 1.949886
v -0.390000 4.897158 -1.950000
v -0.390000 4.897159 1.949886
v -0.130000 4.897159 1.949886
v -0.130000 4.897158 -1.950000
v -0.634706 4.881558 1.949886
v -0.634706 4.881558 -1.950000
v -0.405294 4.881558 -1.950000
v -0.405295 4.881558 1.949886
v -0.650000 4.897158 -1.950000
v -0.650000 4.897159 1.949886
v -0.390000 4.897159 1.949886
v -0.390000 4.897158 -1.950000
v -0.894706 4.881558 1.949886
v -0.894706 4.881558 -1.950000
v -0.665294 4.881558 -1.950000
v -0.665294 4.881558 1.949886
v -0.910000 4.897158 -1.950000
v -0.910000 4.897159 1.949886
v -0.650000 4.897159 1.949886
v -0.650000 4.897158 -1.950000
v -1.154706 4.881558 1.949886
v -1.154706 4.881558 -1.950000
v -0.925294 4.881558 -1.950000
v -0.925294 4.881558 1.949886
v -1.170000 4.897158 -1.950000
v -1.170000 4.897159 1.949886
v -0.910000 4.897159 1.949886
v -0.910000 4.897158 -1.950000
v -1.414706 4.881558 1.949886
v -1.414706 4.881558 -1.950000
v -1.185294 4.881558 -1.950000
v -1.185294 4.881558 1.949886
v -1.430000 4.897158 -1.950000
v -1.430000 4.897159 1.949886
v -1.170000 4.897159 1.949886
v -1.170000 4.897158 -1.950000
v -1.674706 4.881558 1.949886
v -1.674706 4.881558 -1.950000
v -1.445294 4.881558 -1.950000
v -1.445294 4.881558 1.949886
v -1.690000 4.897158 -1.950000
v -1.690000 4.897159 1.949886
v -1.430000 4.897159 1.949886
v -1.430000 4.897158 -1.950000
v -1.934706 4.881558 1.949886
v -1.934706 4.881558 -1.950000
v -1.705294 4.881558 -1.950000
v -1.705294 4.881558 1.949886
v -1.950000 4.897158 -1.950000
v -1.950000 4.897159 1.949886
v -1.690000 4.897159 1.949886
v -1.690000 4.897158 -1.950000
v 0.145294 4.881558 1.949886
v 0.145294 4.881558 -1.950000
v 0.374706 4.881558 -1.950000
v 0.374706 4.881558 1.949886
v 0.130000 4.897158 -1.950000
v 0.129999 4.897159 1.949886
v 0.390000 4.897159 1.949886
v 0.390000 4.897158 -1.950000
v 0.405294 4.881558 1.949886
v 0.405294 4.881558 -1.950000
v 0.634706 4.881558 -1.950000
v 0.634706 4.881558 1.949886
v 0.390000 4.897158 -1.950000
v 0.390000 4.897159 1.949886
v 0.650000 4.897159 1.949886
v 0.650000 4.897158 -1.950000
v 0.665295 4.881558 1.949886
v 0.665294 4.881558 -1.950000
v 0.894706 4.881558 -1.950000
v 0.894706 4.881558 1.949886
v 0.650000 4.897158 -1.950000
v 0.650001 4.897159 1.949886
v 0.910000 4.897159 1.949886
v 0.910000 4.897158 -1.950000
v 0.925295 4.881558 1.949886
v 0.925294 4.881558 -1.950000
v 1.154706 4.881558 -1.950000
v 1.154706 4.881558 1.949886
v 0.910000 4.897158 -1.950000
v 0.910000 4.897159 1.949886
v 1.170000 4.897159 1.949886
v 1.170000 4.897158 -1.950000
v 1.185295 4.881558 1.949886
v 1.185294 4.881558 -1.950000
v 1.414706 4.881558 -1.950000
v 1.414707 4.881558 1.949886
v 1.170000 4.897158 -1.950000
v 1.170000 4.897159 1.949886
v 1.430000 4.897159 1.949886
v 1.430000 4.897158 -1.950000
v 1.445295 4.881558 1.949886
v 1.445294 4.881558 -1.950000
v 1.674706 4.881558 -1.950000
v 1.674707 4.881558 1.949886
v 1.430000 4.897158 -1.950000
v 1.430000 4.897159 1.949886
v 1.690000 4.897159 1.949886
v 1.690000 4.897158 -1.950000
v 1.705295 4.881558 1.949887
v 1.705294 4.881558 -1.950000
v 1.934706 4.881558 -1.950000
v 1.934707 4.881558 1.949887
v 1.690000 4.897158 -1.950000
v 1.690000 4.897159 1.949887
v 1.950001 4.897159 1.949887
v 1.950000 4.897158 -1.950000
v -1.950000 4.811105 -1.107601
v 1.950000 4.811105 -1.107601
v -1.950000 4.811105 -0.842400
v 1.950000 4.811105 -0.842401
v -1.950000 4.795505 -1.092001
v 1.950000 4.795506 -1.092001
v 1.950000 4.795506 -0.858000
v -1.950000 4.795506 -0.858000
v -1.950000 4.811106 1.817400
v 1.950000 4.811106 1.817400
v -1.950000 4.795506 1.832999
v 1.950000 4.795506 1.832999
v 1.950000 4.795506 1.949999
v -1.950000 4.795506 1.950000
v -1.949999 4.811106 0.842399
v 1.950000 4.811106 0.842399
v -1.949999 4.811106 1.107600
v 1.950000 4.811106 1.107599
v -1.949999 4.795506 0.857999
v 1.950000 4.795506 0.857999
v 1.950000 4.795506 1.091999
v -1.949999 4.795506 1.092000
v -1.949999 4.811106 -0.132600
v 1.950000 4.811106 -0.132600
v -1.949999 4.811106 0.132600
v 1.950000 4.811106 0.132601
v -1.949999 4.795506 -0.117000
v 1.950000 4.795506 -0.117000
v 1.950000 4.795506 0.117001
v -1.949999 4.795506 0.117000
v -1.949999 4.811105 -1.817400
v 1.950000 4.811106 -1.817400
v 1.950000 4.795506 -1.833000
v -1.949999 4.795505 -1.833000
v 1.949999 4.795506 -1.950000
v -1.949999 4.795505 -1.950000
v -1.949999 4.899845 -1.107601
v 1.950000 4.899844 -1.107600
v 1.950000 4.899844 -0.842400
v -1.949999 4.899845 -0.842401
v 1.950000 4.899843 1.817400
v -1.949999 4.899845 0.842399
v 1.950000 4.899845 0.842400
v 1.950000 4.899845 1.107600
v -1.949999 4.899845 1.107599
v -1.949999 4.899845 -0.132600
v 1.950000 4.899845 -0.132600
v 1.950000 4.899845 0.132601
v -1.949999 4.899845 0.132600
v -1.950000 4.899843 1.817399
v 1.950000 4.899842 -1.817399
v -1.949999 4.899842 -1.817400
vn -0.0000 -1.0000 -0.0000
vn -0.0001 -1.0000 -0.0000
vn -1.0000 -0.0071 -0.0000
vn 1.0000 -0.0071 -0.0000
vn -0.0001 -1.0000 0.0001
vn -0.0001 -1.0000 -0.0001
vn -0.7141 -0.7001 -0.0000
vn -0.0000 -1.0000 0.0002
vn -0.0001 -1.0000 0.0002
vn -0.0000 -1.0000 -0.0002
vn 0.7141 -0.7001 -0.0000
vn -0.0000 -0.0000 -1.0000
vn -0.0000 -0.0030 -1.0000
vn -0.0000 -0.0000 1.0000
vn -0.0001 -0.0030 1.0000
vn -0.0000 -0.0030 1.0000
vn -0.0000 -1.0000 -0.0001
vn -0.0000 -1.0000 0.0001
vn -0.0003 -1.0000 -0.0001
vn -0.0003 -0.0030 1.0000
vn -0.0002 -1.0000 -0.0000
vn 0.0001 -0.0030 -1.0000
vn -0.0000 -0.0031 1.0000
vn -0.0000 -0.0031 -1.0000
vn 0.0001 -1.0000 -0.0000
vn 0.0001 -1.0000 -0.0002
vn 0.0001 -1.0000 -0.0003
vn 0.0001 -1.0000 0.0001
vn 0.0001 -1.0000 -0.0001
vn 0.0001 -1.0000 0.0002
vt 0.248937 0.765821
vt 0.203945 0.000977
vt 0.248937 0.000977
vt 0.251936 0.000977
vt 0.251936 0.765821
vt 0.200945 0.765821
vt 0.200945 0.000977
vt 0.358102 0.765821
vt 0.313110 0.000977
vt 0.358102 0.000977
vt 0.361101 0.000977
vt 0.361101 0.765821
vt 0.310110 0.765821
vt 0.310110 0.000977
vt 0.576432 0.765821
vt 0.531440 0.000977
vt 0.576432 0.000977
vt 0.579431 0.000977
vt 0.579431 0.765821
vt 0.528440 0.765821
vt 0.528440 0.000977
vt 0.303519 0.765821
vt 0.258527 0.000977
vt 0.303519 0.000977
vt 0.306519 0.000977
vt 0.306519 0.765821
vt 0.255528 0.765821
vt 0.255528 0.000977
vt 0.467267 0.765821
vt 0.422275 0.000977
vt 0.467267 0.000977
vt 0.470266 0.000977
vt 0.470266 0.765821
vt 0.419275 0.765821
vt 0.419275 0.000977
vt 0.412684 0.765821
vt 0.367692 0.000977
vt 0.412684 0.000977
vt 0.415684 0.000977
vt 0.415684 0.765821
vt 0.364693 0.765821
vt 0.364693 0.000977
vt 0.631014 0.765821
vt 0.586022 0.000977
vt 0.631014 0.000977
vt 0.634014 0.000977
vt 0.634014 0.765821
vt 0.583023 0.765821
vt 0.583023 0.000977
vt 0.521849 0.765821
vt 0.476857 0.000977
vt 0.521849 0.000977
vt 0.524849 0.000977
vt 0.524849 0.765821
vt 0.473858 0.765821
vt 0.473858 0.000977
vt 0.849344 0.000977
vt 0.804352 0.765821
vt 0.804352 0.000977
vt 0.849344 0.765821
vt 0.852344 0.000977
vt 0.852344 0.765821
vt 0.801353 0.765821
vt 0.801353 0.000977
vt 0.194355 0.000977
vt 0.149362 0.765821
vt 0.149362 0.000977
vt 0.194354 0.765821
vt 0.197354 0.000977
vt 0.197354 0.765821
vt 0.146363 0.765821
vt 0.146363 0.000977
vt 0.794762 0.765821
vt 0.749770 0.000977
vt 0.794762 0.000977
vt 0.797761 0.000977
vt 0.797761 0.765821
vt 0.746770 0.765821
vt 0.746770 0.000977
vt 0.025969 0.876194
vt 0.790814 0.831202
vt 0.790814 0.876194
vt 0.790814 0.879194
vt 0.025969 0.879194
vt 0.025969 0.828203
vt 0.790814 0.828203
vt 0.025751 0.821612
vt 0.790595 0.776620
vt 0.790595 0.821612
vt 0.790595 0.824611
vt 0.025751 0.824611
vt 0.025751 0.773620
vt 0.790595 0.773620
vt 0.685597 0.000977
vt 0.640604 0.765821
vt 0.640604 0.000977
vt 0.685597 0.765821
vt 0.688596 0.000977
vt 0.688596 0.765821
vt 0.637605 0.765821
vt 0.637605 0.000977
vt 0.740179 0.765821
vt 0.695187 0.000977
vt 0.740179 0.000977
vt 0.743179 0.000977
vt 0.743179 0.765821
vt 0.692188 0.765821
vt 0.692188 0.000977
vt 0.879831 0.747268
vt 0.896811 0.000977
vt 0.896811 0.747268
vt 0.000977 0.982043
vt 0.747267 0.999023
vt 0.000977 0.999023
vt 0.945180 0.747267
vt 0.900403 0.000977
vt 0.945180 0.000977
vt 0.008118 0.000984
vt 0.008118 0.888490
vt 0.004568 0.000998
vt 0.011709 0.888481
vt 0.011709 0.000980
vt 0.015259 0.888467
vt 0.098031 0.000977
vt 0.115529 0.770028
vt 0.098031 0.770028
vt 0.948772 0.747267
vt 0.971160 0.000977
vt 0.971160 0.747267
vt 0.118605 0.000977
vt 0.115529 0.000977
vt 0.855942 0.001065
vt 0.876239 0.759665
vt 0.858977 0.759734
vt 0.122197 0.770028
vt 0.139695 0.000977
vt 0.139695 0.770028
vt 0.025988 0.885790
vt 0.777422 0.927860
vt 0.026169 0.930866
vt 0.876239 0.000984
vt 0.873205 0.000996
vt 0.142772 0.000977
vt 0.049698 0.000977
vt 0.067197 0.770029
vt 0.049698 0.770029
vt 0.073865 0.770029
vt 0.091363 0.000977
vt 0.091363 0.770029
vt 0.970040 0.933674
vt 0.223749 0.978451
vt 0.223749 0.933674
vt 0.070273 0.000977
vt 0.067197 0.000977
vt 0.094439 0.000977
vt 0.025532 0.770029
vt 0.043031 0.000977
vt 0.043031 0.770029
vt 0.046107 0.000977
vt 0.997140 0.747267
vt 0.974752 0.000977
vt 0.997140 0.000977
vt 0.203945 0.765821
vt 0.313110 0.765821
vt 0.531440 0.765821
vt 0.258527 0.765821
vt 0.422275 0.765821
vt 0.367692 0.765821
vt 0.586022 0.765821
vt 0.476857 0.765821
vt 0.749770 0.765821
vt 0.025969 0.831202
vt 0.025751 0.776620
vt 0.695187 0.765821
vt 0.879831 0.000977
vt 0.747267 0.982043
vt 0.900403 0.747267
vt 0.000977 0.000980
vt 0.004526 0.888474
vt 0.000977 0.888489
vt 0.018858 0.000980
vt 0.022408 0.888464
vt 0.018858 0.888479
vt 0.948772 0.000977
vt 0.118605 0.770028
vt 0.122197 0.000977
vt 0.777242 0.882785
vt 0.025976 0.882785
vt 0.142772 0.770028
vt 0.073864 0.000977
vt 0.970040 0.978451
vt 0.070273 0.770029
vt 0.094439 0.770029
vt 0.025532 0.000977
vt 0.046107 0.770029
vt 0.974752 0.747267
s 1
f 2/1/1 4/2/1 1/3/2
f 2/1/1 6/4/3 5/5/3
f 4/2/1 8/6/4 7/7/4
f 10/8/1 12/9/1 9/10/2
f 10/8/1 14/11/3 13/12/3
f 12/9/1 16/13/4 15/14/4
f 18/15/1 20/16/1 17/17/5
f 18/15/1 22/18/3 21/19/3
f 20/16/1 24/20/4 23/21/4
f 26/22/1 28/23/1 25/24/2
f 26/22/1 30/25/3 29/26/3
f 28/23/1 32/27/4 31/28/4
f 34/29/1 36/30/1 33/31/6
f 34/29/1 38/32/3 37/33/3
f 36/30/1 40/34/4 39/35/4
f 42/36/1 44/37/1 41/38/2
f 42/36/1 46/39/3 45/40/3
f 44/37/1 48/41/4 47/42/4
f 50/43/1 52/44/1 49/45/6
f 50/43/1 54/46/3 53/47/3
f 52/44/1 56/48/4 55/49/4
f 58/50/1 60/51/1 57/52/2
f 58/50/1 62/53/7 61/54/7
f 60/51/1 64/55/4 63/56/4
f 65/57/1 67/58/1 68/59/1
f 66/60/1 70/61/3 69/62/3
f 68/59/1 72/63/4 71/64/4
f 73/65/8 75/66/1 76/67/1
f 74/68/1 78/69/3 77/70/3
f 76/67/1 80/71/4 79/72/4
f 82/73/1 84/74/1 81/75/9
f 82/73/1 86/76/3 85/77/3
f 84/74/1 88/78/4 87/79/4
f 90/80/1 92/81/1 89/82/6
f 90/80/1 94/83/3 93/84/3
f 92/81/1 96/85/4 95/86/4
f 98/87/2 100/88/1 97/89/2
f 98/87/2 102/90/3 101/91/3
f 100/88/1 104/92/4 103/93/4
f 105/94/2 107/95/10 108/96/1
f 106/97/2 110/98/3 109/99/3
f 108/96/1 112/100/4 111/101/4
f 114/102/2 116/103/1 113/104/2
f 114/102/2 118/105/3 117/106/3
f 116/103/1 120/107/11 119/108/11
f 157/109/12 122/110/13 121/111/13
f 159/112/14 123/113/15 124/114/16
f 126/115/17 128/116/18 125/117/19
f 126/118/17 121/119/13 122/120/13
f 128/121/18 124/122/16 123/123/15
f 161/124/12 129/125/13 170/126/12
f 133/127/1 131/128/1 132/129/17
f 132/130/17 129/125/13 130/131/13
f 163/132/12 135/133/13 162/134/12
f 164/135/14 137/136/20 138/137/16
f 139/138/1 141/139/21 142/140/18
f 140/141/17 135/133/13 136/142/22
f 142/143/18 138/137/16 137/136/20
f 167/144/12 143/145/13 166/146/12
f 168/147/14 145/148/16 146/149/23
f 148/150/17 150/151/18 147/152/17
f 148/153/17 143/145/13 144/154/24
f 150/155/18 146/149/23 145/148/16
f 171/156/14 151/157/15 152/158/16
f 154/159/18 152/158/16 151/157/15
f 154/160/18 155/161/1 153/162/18
f 2/1/1 3/163/25 4/2/1
f 2/1/1 1/3/2 6/4/3
f 4/2/1 3/163/25 8/6/4
f 10/8/1 11/164/26 12/9/1
f 10/8/1 9/10/2 14/11/3
f 12/9/1 11/164/26 16/13/4
f 18/15/1 19/165/27 20/16/1
f 18/15/1 17/17/5 22/18/3
f 20/16/1 19/165/27 24/20/4
f 26/22/1 27/166/25 28/23/1
f 26/22/1 25/24/2 30/25/3
f 28/23/1 27/166/25 32/27/4
f 34/29/1 35/167/28 36/30/1
f 34/29/1 33/31/6 38/32/3
f 36/30/1 35/167/28 40/34/4
f 42/36/1 43/168/29 44/37/1
f 42/36/1 41/38/2 46/39/3
f 44/37/1 43/168/29 48/41/4
f 50/43/1 51/169/30 52/44/1
f 50/43/1 49/45/6 54/46/3
f 52/44/1 51/169/30 56/48/4
f 58/50/1 59/170/25 60/51/1
f 58/50/1 57/52/2 62/53/7
f 60/51/1 59/170/25 64/55/4
f 65/57/1 66/60/1 67/58/1
f 66/60/1 65/57/1 70/61/3
f 68/59/1 67/58/1 72/63/4
f 73/65/8 74/68/1 75/66/1
f 74/68/1 73/65/8 78/69/3
f 76/67/1 75/66/1 80/71/4
f 82/73/1 83/171/25 84/74/1
f 82/73/1 81/75/9 86/76/3
f 84/74/1 83/171/25 88/78/4
f 90/80/1 91/172/27 92/81/1
f 90/80/1 89/82/6 94/83/3
f 92/81/1 91/172/27 96/85/4
f 98/87/2 99/173/25 100/88/1
f 98/87/2 97/89/2 102/90/3
f 100/88/1 99/173/25 104/92/4
f 105/94/2 106/97/2 107/95/10
f 106/97/2 105/94/2 110/98/3
f 108/96/1 107/95/10 112/100/4
f 114/102/2 115/174/28 116/103/1
f 114/102/2 113/104/2 118/105/3
f 116/103/1 115/174/28 120/107/11
f 157/109/12 158/175/12 122/110/13
f 159/112/14 160/176/14 123/113/15
f 126/115/17 127/177/18 128/116/18
f 126/178/17 125/179/19 121/180/13
f 128/181/18 127/182/18 124/183/16
f 161/124/12 130/131/13 129/125/13
f 133/127/1 134/184/1 131/128/1
f 132/130/17 131/185/1 129/125/13
f 163/132/12 136/142/22 135/133/13
f 164/135/14 165/186/14 137/136/20
f 139/138/1 140/187/17 141/139/21
f 140/187/17 139/138/1 135/188/13
f 142/143/18 141/189/21 138/137/16
f 167/144/12 144/154/24 143/145/13
f 168/147/14 169/190/14 145/148/16
f 148/150/17 149/191/18 150/151/18
f 148/153/17 147/192/17 143/145/13
f 150/155/18 149/193/18 146/149/23
f 171/156/14 172/194/14 151/157/15
f 154/159/18 153/195/18 152/158/16
f 154/160/18 156/196/1 155/161/1
