# Blender 5.1.0
# www.blender.org
o door_handle
v 0.499240 1.095835 -0.038718
v 0.534722 1.095834 -0.038718
v 0.506550 1.034425 -0.038566
v 0.527412 1.034425 -0.038566
v 0.530750 1.063937 -0.067953
v 0.503212 1.063937 -0.067953
v 0.499240 1.096235 -0.017849
v 0.534722 1.096235 -0.017849
v 0.506550 1.034086 -0.017849
v 0.527412 1.034086 -0.017849
v 0.499240 1.085994 -0.036743
v 0.534722 1.085994 -0.036743
v 0.506550 1.044327 -0.036743
v 0.527412 1.044327 -0.036743
v 0.530750 1.063354 -0.060829
v 0.503212 1.063354 -0.060829
v 0.499240 1.085994 -0.017849
v 0.534722 1.085994 -0.017849
v 0.506550 1.044327 -0.017849
v 0.527412 1.044327 -0.017849
v 0.457152 0.870976 -0.000072
v 0.578368 0.870976 -0.000072
v 0.457152 0.944498 -0.000072
v 0.578368 0.944498 -0.000072
v 0.457152 0.870976 -0.010852
v 0.578368 0.870976 -0.010852
v 0.457152 0.944498 -0.010852
v 0.578368 0.944498 -0.010852
v 0.566563 1.082332 -0.000072
v 0.557560 1.098007 -0.000072
v 0.543766 1.109641 -0.000072
v 0.526845 1.115831 -0.000072
v 0.508838 1.115831 -0.000072
v 0.491917 1.109641 -0.000072
v 0.478122 1.098007 -0.000072
v 0.469119 1.082332 -0.000072
v 0.469119 1.046684 -0.000072
v 0.478122 1.031010 -0.000072
v 0.491917 1.019376 -0.000072
v 0.508838 1.013186 -0.000072
v 0.526845 1.013186 -0.000072
v 0.543766 1.019376 -0.000072
v 0.557560 1.031010 -0.000072
v 0.566563 1.046684 -0.000072
v 0.566563 1.082332 -0.011325
v 0.557560 1.098007 -0.011325
v 0.543766 1.109640 -0.011325
v 0.526845 1.115831 -0.011325
v 0.508838 1.115831 -0.011325
v 0.491917 1.109641 -0.011325
v 0.478122 1.098007 -0.011325
v 0.469119 1.082332 -0.011325
v 0.469119 1.046684 -0.011325
v 0.478122 1.031010 -0.011325
v 0.491917 1.019376 -0.011325
v 0.508838 1.013186 -0.011325
v 0.526845 1.013186 -0.011325
v 0.543766 1.019376 -0.011325
v 0.557560 1.031010 -0.011325
v 0.566563 1.046684 -0.011325
v 0.579415 1.064508 -0.000072
v 0.576288 1.073061 -0.000072
v 0.576288 1.073061 -0.011325
v 0.579415 1.064508 -0.011325
v 0.576288 1.055956 -0.011325
v 0.576288 1.055956 -0.000072
v 0.522014 1.125606 -0.011325
v 0.522014 1.125606 -0.000072
v 0.513669 1.125606 -0.000072
v 0.513669 1.125606 -0.011325
v 0.459394 1.073061 -0.011325
v 0.459394 1.073061 -0.000072
v 0.456267 1.064508 -0.000072
v 0.459394 1.055956 -0.000072
v 0.459394 1.055956 -0.011325
v 0.456267 1.064508 -0.011325
v 0.513669 1.003411 -0.011325
v 0.513669 1.003411 -0.000072
v 0.522014 1.003411 -0.000072
v 0.522014 1.003411 -0.011325
v 0.553097 1.077359 -0.017849
v 0.546553 1.088724 -0.017849
v 0.536582 1.097134 -0.017849
v 0.524350 1.101608 -0.017849
v 0.520857 1.108674 -0.017849
v 0.514825 1.108675 -0.017849
v 0.511333 1.101608 -0.017849
v 0.499101 1.097134 -0.017849
v 0.489129 1.088724 -0.017849
v 0.482621 1.077393 -0.017849
v 0.475591 1.070691 -0.017849
v 0.473331 1.064508 -0.017849
v 0.475591 1.058326 -0.017849
v 0.482621 1.051624 -0.017849
v 0.489129 1.040293 -0.017849
v 0.499101 1.031883 -0.017849
v 0.511333 1.027408 -0.017849
v 0.514825 1.020342 -0.017849
v 0.520857 1.020342 -0.017849
v 0.524350 1.027408 -0.017849
v 0.536581 1.031883 -0.017849
v 0.546553 1.040293 -0.017849
v 0.553061 1.051623 -0.017849
v 0.560091 1.058326 -0.017849
v 0.562352 1.064508 -0.017849
v 0.560056 1.070724 -0.017849
v 0.517856 1.064507 -0.017849
v 0.517734 1.064627 -0.017849
v 0.517752 1.064421 -0.017849
v 0.517892 1.064536 -0.017849
v 0.499240 1.095835 0.132960
v 0.534722 1.095834 0.132960
v 0.506550 1.034425 0.132807
v 0.527412 1.034425 0.132807
v 0.530750 1.063937 0.162195
v 0.503212 1.063937 0.162195
v 0.499240 1.096235 0.112091
v 0.534722 1.096235 0.112091
v 0.506550 1.034086 0.112091
v 0.527412 1.034086 0.112091
v 0.499240 1.085994 0.130985
v 0.534722 1.085994 0.130985
v 0.506550 1.044327 0.130985
v 0.527412 1.044327 0.130985
v 0.530750 1.063354 0.155071
v 0.503212 1.063354 0.155071
v 0.499240 1.085994 0.112091
v 0.534722 1.085993 0.112091
v 0.506550 1.044327 0.112091
v 0.527412 1.044327 0.112091
v 0.457152 0.870976 0.094313
v 0.578368 0.870976 0.094313
v 0.457152 0.944498 0.094313
v 0.578368 0.944498 0.094313
v 0.457152 0.870976 0.105093
v 0.578368 0.870976 0.105093
v 0.457152 0.944498 0.105093
v 0.578368 0.944498 0.105093
v 0.566563 1.082332 0.094314
v 0.557560 1.098007 0.094314
v 0.543766 1.109641 0.094314
v 0.526845 1.115831 0.094314
v 0.508838 1.115831 0.094314
v 0.491917 1.109641 0.094314
v 0.478122 1.098007 0.094314
v 0.469119 1.082332 0.094314
v 0.469119 1.046684 0.094314
v 0.478122 1.031010 0.094314
v 0.491917 1.019376 0.094314
v 0.508838 1.013186 0.094314
v 0.526845 1.013186 0.094314
v 0.543766 1.019376 0.094314
v 0.557560 1.031010 0.094314
v 0.566563 1.046684 0.094314
v 0.566563 1.082332 0.105567
v 0.557560 1.098007 0.105567
v 0.543766 1.109641 0.105567
v 0.526845 1.115831 0.105567
v 0.508838 1.115831 0.105567
v 0.491917 1.109641 0.105567
v 0.478122 1.098007 0.105567
v 0.469119 1.082332 0.105567
v 0.469119 1.046684 0.105567
v 0.478122 1.031010 0.105567
v 0.491917 1.019376 0.105567
v 0.508838 1.013186 0.105567
v 0.526845 1.013186 0.105567
v 0.543766 1.019376 0.105567
v 0.557560 1.031010 0.105567
v 0.566563 1.046684 0.105567
v 0.579415 1.064508 0.094314
v 0.576288 1.073061 0.094314
v 0.576288 1.073061 0.105567
v 0.579415 1.064508 0.105567
v 0.576288 1.055956 0.105567
v 0.576288 1.055956 0.094314
v 0.522014 1.125606 0.105567
v 0.522014 1.125606 0.094314
v 0.513669 1.125606 0.094314
v 0.513669 1.125606 0.105567
v 0.459394 1.073061 0.105567
v 0.459394 1.073061 0.094314
v 0.456267 1.064508 0.094314
v 0.459394 1.055956 0.094314
v 0.459394 1.055956 0.105567
v 0.456267 1.064508 0.105567
v 0.513669 1.003411 0.105567
v 0.513669 1.003411 0.094314
v 0.522014 1.003411 0.094314
v 0.522014 1.003411 0.105567
v 0.553097 1.077359 0.112091
v 0.546553 1.088724 0.112091
v 0.536582 1.097134 0.112091
v 0.524350 1.101608 0.112091
v 0.520857 1.108674 0.112091
v 0.514825 1.108675 0.112091
v 0.511333 1.101608 0.112091
v 0.499101 1.097134 0.112091
v 0.489129 1.088724 0.112091
v 0.482621 1.077393 0.112091
v 0.475591 1.070691 0.112091
v 0.473330 1.064508 0.112091
v 0.475591 1.058326 0.112091
v 0.482621 1.051624 0.112091
v 0.489130 1.040293 0.112091
v 0.499101 1.031883 0.112091
v 0.511333 1.027408 0.112091
v 0.514825 1.020342 0.112091
v 0.520857 1.020342 0.112091
v 0.524350 1.027408 0.112091
v 0.536581 1.031883 0.112091
v 0.546553 1.040293 0.112091
v 0.553061 1.051623 0.112091
v 0.560091 1.058326 0.112091
v 0.562352 1.064508 0.112091
v 0.560056 1.070724 0.112091
v 0.517856 1.064507 0.112091
v 0.517735 1.064627 0.112091
v 0.517752 1.064421 0.112091
v 0.517892 1.064536 0.112091
v 0.420977 0.949745 -0.036743
v 0.414816 0.984866 -0.036743
v 0.438718 0.918859 -0.036743
v 0.465898 0.895936 -0.036743
v 0.499240 0.883738 -0.036743
v 0.534722 0.883738 -0.036743
v 0.568063 0.895936 -0.036743
v 0.595244 0.918859 -0.036743
v 0.612985 0.949744 -0.036743
v 0.619146 0.984866 -0.036743
v 0.612985 1.019987 -0.036743
v 0.595244 1.050872 -0.036743
v 0.568063 1.073796 -0.036743
v 0.534722 1.085994 -0.036743
v 0.499240 1.085994 -0.036743
v 0.465899 1.073796 -0.036743
v 0.438718 1.050872 -0.036743
v 0.420977 1.019987 -0.036743
v 0.460533 0.964215 -0.036743
v 0.456910 0.984866 -0.036743
v 0.470964 0.946055 -0.036743
v 0.486945 0.932577 -0.036743
v 0.506550 0.925405 -0.036743
v 0.527412 0.925405 -0.036743
v 0.547016 0.932577 -0.036743
v 0.562998 0.946055 -0.036743
v 0.573429 0.964215 -0.036743
v 0.577052 0.984866 -0.036743
v 0.573429 1.005516 -0.036743
v 0.562998 1.023676 -0.036743
v 0.547016 1.037155 -0.036743
v 0.527412 1.044327 -0.036743
v 0.506550 1.044327 -0.036743
v 0.486946 1.037155 -0.036743
v 0.470964 1.023676 -0.036743
v 0.460533 1.005516 -0.036743
v 0.437687 0.984866 -0.012657
v 0.442469 0.957607 -0.012657
v 0.442469 0.957607 -0.060829
v 0.437687 0.984866 -0.060829
v 0.456239 0.933636 -0.012657
v 0.456239 0.933636 -0.060830
v 0.477334 0.915844 -0.012657
v 0.477334 0.915844 -0.060830
v 0.503212 0.906377 -0.012657
v 0.503212 0.906377 -0.060830
v 0.530750 0.906377 -0.012657
v 0.530750 0.906377 -0.060830
v 0.556628 0.915844 -0.012657
v 0.556628 0.915844 -0.060830
v 0.577723 0.933636 -0.012657
v 0.577723 0.933636 -0.060830
v 0.591493 0.957607 -0.012657
v 0.591492 0.957607 -0.060830
v 0.596274 0.984866 -0.012657
v 0.596274 0.984866 -0.060830
v 0.591493 1.012125 -0.012657
v 0.591492 1.012125 -0.060830
v 0.577724 1.036095 -0.012657
v 0.577724 1.036096 -0.060830
v 0.556628 1.053887 -0.012657
v 0.556628 1.053887 -0.060830
v 0.530750 1.063354 -0.012657
v 0.530750 1.063354 -0.060830
v 0.503212 1.063354 -0.012657
v 0.503212 1.063354 -0.060829
v 0.477334 1.053887 -0.012657
v 0.477334 1.053887 -0.060829
v 0.456239 1.036095 -0.012657
v 0.456239 1.036095 -0.060829
v 0.442469 1.012125 -0.012657
v 0.442469 1.012125 -0.060829
v 0.420977 0.949745 0.130985
v 0.414816 0.984866 0.130985
v 0.438718 0.918859 0.130985
v 0.465898 0.895936 0.130985
v 0.499240 0.883738 0.130985
v 0.534722 0.883738 0.130985
v 0.568063 0.895936 0.130985
v 0.595244 0.918859 0.130985
v 0.612985 0.949744 0.130985
v 0.619146 0.984866 0.130985
v 0.612985 1.019987 0.130985
v 0.595244 1.050872 0.130985
v 0.568063 1.073796 0.130985
v 0.534722 1.085994 0.130985
v 0.499240 1.085994 0.130985
v 0.465898 1.073796 0.130985
v 0.438718 1.050872 0.130985
v 0.420977 1.019987 0.130985
v 0.460533 0.964215 0.130985
v 0.456910 0.984866 0.130985
v 0.470964 0.946055 0.130985
v 0.486946 0.932577 0.130985
v 0.506550 0.925405 0.130985
v 0.527412 0.925405 0.130985
v 0.547016 0.932577 0.130985
v 0.562998 0.946055 0.130985
v 0.573429 0.964215 0.130985
v 0.577052 0.984866 0.130985
v 0.573429 1.005516 0.130985
v 0.562998 1.023676 0.130985
v 0.547017 1.037155 0.130985
v 0.527412 1.044327 0.130985
v 0.506550 1.044327 0.130985
v 0.486945 1.037155 0.130985
v 0.470964 1.023676 0.130985
v 0.460533 1.005516 0.130985
v 0.437687 0.984866 0.106898
v 0.442469 0.957607 0.106898
v 0.442469 0.957607 0.155071
v 0.437687 0.984866 0.155071
v 0.456239 0.933636 0.106898
v 0.456239 0.933636 0.155071
v 0.477334 0.915844 0.106898
v 0.477334 0.915844 0.155071
v 0.503212 0.906377 0.106898
v 0.503212 0.906377 0.155071
v 0.530750 0.906377 0.106898
v 0.530750 0.906377 0.155071
v 0.556628 0.915844 0.106898
v 0.556628 0.915844 0.155071
v 0.577723 0.933636 0.106898
v 0.577723 0.933636 0.155071
v 0.591492 0.957607 0.106898
v 0.591492 0.957607 0.155071
v 0.596274 0.984866 0.106898
v 0.596274 0.984866 0.155071
v 0.591493 1.012125 0.106898
v 0.591492 1.012125 0.155071
v 0.577724 1.036095 0.106898
v 0.577724 1.036095 0.155071
v 0.556628 1.053887 0.106898
v 0.556628 1.053887 0.155071
v 0.530750 1.063354 0.106898
v 0.530750 1.063354 0.155071
v 0.503212 1.063354 0.106898
v 0.503212 1.063354 0.155071
v 0.477334 1.053887 0.106898
v 0.477334 1.053887 0.155071
v 0.456239 1.036095 0.106898
v 0.456239 1.036095 0.155071
v 0.442469 1.012125 0.106898
v 0.442469 1.012125 0.155071
v -0.650000 0.014034 0.094808
v 0.669649 0.014034 0.094808
v -0.650000 0.014034 0.000000
v 0.669649 0.014034 -0.000000
v -0.650000 2.385966 0.094808
v 0.669649 2.385966 0.094808
v -0.650000 2.385966 0.000000
v 0.669649 2.385966 -0.000000
vn -0.0020 -0.9207 -0.3903
vn -0.0009 0.0320 -0.9995
vn -0.0010 -0.9207 -0.3903
vn -0.0000 0.0318 -0.9995
vn -0.0000 0.9212 -0.3892
vn -0.0010 0.9211 -0.3892
vn -0.0000 0.9998 -0.0185
vn 0.0009 -0.9999 -0.0158
vn -0.0000 -0.0420 0.9991
vn -0.0000 0.9442 0.3293
vn -0.0000 -0.0418 0.9991
vn -0.0000 -0.9389 0.3441
vn -0.0010 -1.0000 -0.0000
vn 0.0009 -1.0000 -0.0000
vn -0.0000 1.0000 -0.0000
vn 0.0020 0.9442 0.3293
vn 0.9993 -0.0262 0.0267
vn 0.9978 -0.0661 -0.0022
vn 0.9988 -0.0346 0.0345
vn -0.9978 -0.0661 -0.0022
vn -0.9993 -0.0255 0.0265
vn -0.9987 -0.0362 0.0351
vn 0.9991 -0.0278 -0.0311
vn 0.9984 -0.0384 -0.0416
vn -0.9991 -0.0277 -0.0314
vn -0.9984 -0.0376 -0.0414
vn 1.0000 -0.0009 -0.0000
vn 1.0000 -0.0000 -0.0000
vn -1.0000 -0.0000 -0.0000
vn -1.0000 0.0007 -0.0000
vn 1.0000 0.0006 -0.0000
vn -0.0000 -0.0007 -1.0000
vn -0.0000 -0.0000 -1.0000
vn -0.0020 -0.0000 -1.0000
vn -0.0000 -1.0000 -0.0000
vn 0.0020 -1.0000 -0.0000
vn 0.0020 -1.0000 -0.0001
vn 0.0020 1.0000 -0.0000
vn -0.0009 1.0000 -0.0001
vn -0.0009 1.0000 -0.0000
vn 0.8343 0.5514 -0.0000
vn 0.7836 0.6213 -0.0000
vn 0.7644 0.6447 -0.0000
vn 0.4984 0.8670 -0.0000
vn 0.4984 0.8669 -0.0000
vn 0.6649 0.7470 -0.0000
vn 0.6651 0.7467 -0.0001
vn -0.0020 1.0000 0.0001
vn -0.6649 0.7469 0.0001
vn -0.4974 0.8675 0.0001
vn -0.6651 0.7468 -0.0000
vn -0.7639 0.6453 -0.0000
vn -0.7633 0.6460 -0.0001
vn -0.7834 0.6215 -0.0000
vn -0.7836 0.6213 -0.0000
vn -0.8347 0.5507 -0.0000
vn -1.0000 -0.0007 -0.0000
vn -0.8345 -0.5510 -0.0003
vn -0.8343 -0.5512 -0.0001
vn -0.7833 -0.6216 -0.0002
vn -0.7641 -0.6451 -0.0000
vn -0.7639 -0.6454 -0.0000
vn -0.4974 -0.8675 -0.0000
vn -0.6651 -0.7468 -0.0000
vn 0.6650 -0.7468 -0.0000
vn 0.4983 -0.8670 -0.0003
vn 0.4982 -0.8670 -0.0000
vn 0.7647 -0.6444 -0.0000
vn 0.7840 -0.6208 -0.0000
vn 0.7829 -0.6221 -0.0000
vn 0.8342 -0.5515 -0.0000
vn 0.8346 -0.5508 -0.0000
vn 0.8342 0.5515 -0.0000
vn 0.8949 0.4462 -0.0000
vn -0.8946 0.4469 -0.0000
vn -0.7832 -0.6217 -0.0000
vn -0.8946 -0.4469 0.0001
vn -0.6648 -0.7470 -0.0000
vn 0.8945 -0.4471 0.0002
vn 0.6650 -0.7468 0.0001
vn 0.3394 0.2861 -0.8960
vn 0.1835 0.1546 -0.9708
vn 0.3237 0.2724 -0.9061
vn 0.1184 0.2074 -0.9711
vn 0.2112 0.3687 -0.9052
vn 0.1085 0.1471 -0.9831
vn 0.4105 0.3307 -0.8498
vn 0.2397 0.2229 -0.9449
vn 0.1698 0.3554 -0.9192
vn -0.2388 0.2224 -0.9453
vn -0.4123 0.3311 -0.8487
vn -0.1717 0.3554 -0.9188
vn -0.1105 0.1463 -0.9830
vn -0.2112 0.3680 -0.9055
vn -0.1223 0.2073 -0.9706
vn -0.3228 0.2725 -0.9064
vn -0.1835 0.1539 -0.9709
vn -0.3396 0.2861 -0.8960
vn -0.1984 0.1516 -0.9683
vn -0.3492 0.2054 -0.9142
vn -0.2260 -0.0000 -0.9741
vn -0.3642 -0.0007 -0.9313
vn -0.3492 -0.2062 -0.9141
vn -0.1984 -0.1509 -0.9685
vn -0.3395 -0.2875 -0.8956
vn -0.1835 -0.1540 -0.9709
vn -0.3227 -0.2733 -0.9062
vn -0.1204 -0.2088 -0.9705
vn -0.2102 -0.3675 -0.9059
vn -0.1085 -0.1470 -0.9832
vn -0.4124 -0.3310 -0.8488
vn -0.2368 -0.2226 -0.9457
vn -0.1697 -0.3553 -0.9192
vn 0.2398 -0.2224 -0.9450
vn 0.4107 -0.3306 -0.8498
vn 0.1707 -0.3553 -0.9190
vn 0.1095 -0.1479 -0.9829
vn 0.2112 -0.3674 -0.9058
vn 0.1213 -0.2088 -0.9704
vn 0.3237 -0.2732 -0.9059
vn 0.1826 -0.1548 -0.9709
vn 0.3394 -0.2876 -0.8956
vn 0.1964 -0.1517 -0.9687
vn 0.3473 -0.2077 -0.9144
vn 0.2270 -0.0000 -0.9739
vn 0.3473 0.2056 -0.9149
vn 0.3651 -0.0000 -0.9310
vn 0.1954 0.1525 -0.9688
vn 0.1628 0.1244 -0.9788
vn 0.0016 -0.0077 -1.0000
vn -0.0020 0.0007 -1.0000
vn 0.0010 0.0006 -1.0000
vn 0.0081 -0.0388 -0.9992
vn -0.1638 0.1234 -0.9787
vn -0.0009 -0.0000 -1.0000
vn 0.0016 -0.0057 -1.0000
vn -0.1657 -0.1236 -0.9784
vn 0.1648 -0.1235 -0.9786
vn -0.0020 -0.9208 0.3901
vn -0.0000 0.0318 0.9995
vn -0.0009 0.0320 0.9995
vn -0.0000 0.9210 0.3895
vn 0.0010 0.9213 0.3889
vn -0.0000 0.9998 0.0186
vn -0.0000 -0.9999 0.0159
vn 0.0010 -0.9207 0.3903
vn 0.0009 -0.0419 -0.9991
vn -0.0000 0.9442 -0.3295
vn -0.0000 -0.0419 -0.9991
vn -0.0000 -0.9389 -0.3441
vn -0.0010 -0.9390 -0.3440
vn 0.0009 1.0000 -0.0001
vn 0.9978 -0.0661 0.0023
vn 0.9993 -0.0255 -0.0266
vn 0.9988 -0.0346 -0.0349
vn -0.9978 -0.0661 0.0022
vn -0.9993 -0.0257 -0.0268
vn -0.9977 -0.0665 0.0150
vn 0.9991 -0.0276 0.0317
vn 0.9976 -0.0669 0.0148
vn -0.9991 -0.0272 0.0312
vn -0.9985 -0.0369 0.0415
vn 0.9984 -0.0377 0.0417
vn 1.0000 -0.0016 -0.0001
vn -1.0000 0.0007 -0.0001
vn -0.9987 -0.0361 -0.0348
vn -1.0000 0.0008 -0.0000
vn 1.0000 0.0008 -0.0000
vn -0.0000 -0.0000 1.0000
vn -0.0000 0.0008 1.0000
vn -0.0020 -0.0000 1.0000
vn 0.0009 1.0000 -0.0000
vn -1.0000 0.0009 -0.0000
vn 0.8340 0.5517 -0.0000
vn 0.7647 0.6444 -0.0000
vn 0.7838 0.6210 -0.0001
vn 0.7839 0.6209 -0.0000
vn 0.7655 0.6434 -0.0000
vn 0.6654 0.7465 -0.0000
vn 0.4984 0.8669 0.0001
vn -0.6642 0.7475 -0.0000
vn -0.6647 0.7471 -0.0000
vn -0.4973 0.8676 -0.0000
vn -0.7641 0.6451 -0.0000
vn -0.8347 0.5507 0.0001
vn -0.8354 0.5497 0.0001
vn -0.8338 -0.5520 -0.0000
vn -1.0000 0.0016 -0.0000
vn -0.7838 -0.6210 -0.0000
vn -0.7643 -0.6449 -0.0000
vn -0.7834 -0.6215 -0.0000
vn -0.7641 -0.6451 0.0001
vn -0.4963 -0.8682 -0.0001
vn -0.4971 -0.8677 0.0001
vn 0.6650 -0.7469 -0.0000
vn 0.4983 -0.8670 -0.0000
vn 0.6644 -0.7474 -0.0000
vn 0.7647 -0.6444 0.0001
vn 0.4992 -0.8665 -0.0001
vn 0.7838 -0.6210 -0.0000
vn 0.7638 -0.6454 -0.0000
vn 0.8336 -0.5523 -0.0000
vn 0.8348 -0.5505 -0.0000
vn 0.8344 0.5511 -0.0000
vn 0.7824 -0.6227 0.0001
vn 0.8947 0.4467 -0.0000
vn 0.6642 0.7476 -0.0000
vn -0.8949 0.4462 -0.0001
vn -0.8953 0.4455 -0.0001
vn -0.7835 0.6214 -0.0001
vn -0.8344 -0.5512 -0.0000
vn -0.6649 -0.7470 -0.0000
vn -0.8948 -0.4465 -0.0000
vn -0.8952 -0.4457 -0.0000
vn 0.8945 -0.4471 -0.0000
vn 0.8941 -0.4478 -0.0000
vn 0.3395 0.2862 0.8960
vn 0.1835 0.1546 0.9708
vn 0.1657 0.1242 0.9783
vn 0.3235 0.2731 0.9060
vn 0.1184 0.2066 0.9712
vn 0.2102 0.3674 0.9060
vn 0.1085 0.1471 0.9831
vn 0.4105 0.3314 0.8495
vn 0.2388 0.2238 0.9449
vn -0.1727 0.3559 0.9184
vn 0.1707 0.3554 0.9190
vn -0.4114 0.3313 0.8491
vn -0.2368 0.2225 0.9457
vn -0.2092 0.3689 0.9056
vn -0.1095 0.1471 0.9830
vn -0.3237 0.2710 0.9065
vn -0.1223 0.2073 0.9706
vn -0.3395 0.2868 0.8958
vn -0.1836 0.1531 0.9710
vn -0.1974 0.1516 0.9685
vn -0.1638 0.1235 0.9787
vn -0.3502 0.2047 0.9140
vn -0.2239 -0.0000 0.9746
vn -0.3473 -0.2063 0.9148
vn -0.3652 -0.0000 0.9309
vn -0.3405 -0.2881 0.8950
vn -0.1973 -0.1508 0.9687
vn -0.1836 -0.1547 0.9708
vn -0.1657 -0.1236 0.9784
vn -0.3218 -0.2733 0.9065
vn -0.1204 -0.2088 0.9705
vn -0.2092 -0.3689 0.9056
vn -0.1086 -0.1479 0.9830
vn -0.4114 -0.3306 0.8494
vn -0.2378 -0.2224 0.9455
vn 0.1707 -0.3560 0.9188
vn -0.1717 -0.3553 0.9188
vn 0.4115 -0.3312 0.8491
vn 0.2398 -0.2224 0.9450
vn 0.2102 -0.3675 0.9059
vn 0.1066 -0.1471 0.9834
vn 0.3236 -0.2731 0.9059
vn 0.1223 -0.2088 0.9703
vn 0.3386 -0.2883 0.8957
vn 0.1825 -0.1548 0.9709
vn 0.1963 -0.1517 0.9687
vn 0.1648 -0.1235 0.9786
vn 0.2260 0.0007 0.9741
vn 0.3473 -0.2070 0.9146
vn 0.3650 0.0007 0.9310
vn 0.3484 0.2062 0.9144
vn 0.1954 0.1517 0.9689
vn -0.2021 0.5917 0.7804
vn 0.0002 0.0001 1.0000
vn -0.0020 -0.0003 1.0000
vn -0.0552 0.2968 0.9534
vn -0.0010 -0.0000 1.0000
vn -0.0011 0.0025 1.0000
vn -1.0000 -0.0005 -0.0000
vn -0.0395 -0.0153 0.9991
vn -0.0411 -0.0000 0.9992
vn -0.9392 -0.3435 -0.0000
vn -0.0316 -0.0267 0.9991
vn -0.7645 -0.6446 0.0002
vn -0.0198 -0.0374 0.9991
vn -0.4973 -0.8676 -0.0002
vn -0.0079 -0.0412 0.9991
vn -0.1727 -0.9850 -0.0000
vn 0.0069 -0.0418 0.9991
vn 0.4992 -0.8665 -0.0002
vn 0.1727 -0.9850 -0.0000
vn 0.0227 -0.0365 0.9991
vn 0.9391 -0.3436 -0.0000
vn 0.0316 -0.0274 0.9991
vn 1.0000 -0.0005 -0.0000
vn 0.0385 -0.0138 0.9992
vn 0.0375 0.0153 0.9992
vn 0.0412 -0.0000 0.9991
vn 0.9392 0.3434 -0.0002
vn 0.0316 0.0274 0.9991
vn 0.7641 0.6452 0.0002
vn 0.0218 0.0360 0.9991
vn 0.4992 0.8665 -0.0000
vn 0.0073 0.0403 0.9992
vn -0.1746 0.9846 -0.0002
vn 0.1727 0.9850 -0.0000
vn -0.4991 0.8665 -0.0002
vn -0.0079 0.0426 0.9991
vn -0.7639 0.6453 -0.0002
vn -0.0208 0.0354 0.9992
vn -0.9392 0.3434 -0.0000
vn -0.0316 0.0274 0.9991
vn -0.0394 0.0137 0.9991
vn 0.9390 0.3438 -0.0000
vn -0.0412 -0.0000 -0.9991
vn 0.7645 0.6446 -0.0000
vn -0.0404 -0.0138 -0.9991
vn 0.4984 0.8669 0.0002
vn -0.0316 -0.0266 -0.9991
vn 0.1741 0.9847 -0.0000
vn -0.0198 -0.0365 -0.9991
vn -0.1728 0.9850 -0.0002
vn -0.0088 -0.0411 -0.9991
vn 0.0217 -0.0364 -0.9991
vn -0.4984 0.8669 -0.0000
vn 0.0316 -0.0266 -0.9991
vn -0.7643 0.6449 -0.0000
vn 0.0394 -0.0138 -0.9991
vn -0.9389 0.3443 0.0002
vn 0.0416 -0.0000 -0.9991
vn -0.9393 -0.3431 -0.0000
vn -0.7651 -0.6439 -0.0000
vn 0.0403 0.0145 -0.9991
vn -0.4983 -0.8670 -0.0000
vn 0.0316 0.0267 -0.9991
vn -0.1739 -0.9848 -0.0001
vn 0.0207 0.0366 -0.9991
vn 0.1738 -0.9848 -0.0000
vn 0.0079 0.0412 -0.9991
vn -0.0198 0.0365 -0.9991
vn 0.4993 -0.8664 -0.0000
vn -0.0316 0.0274 -0.9991
vn 0.7649 -0.6441 -0.0000
vn -0.0394 0.0145 -0.9991
vn 0.9389 -0.3441 -0.0000
vn 0.0069 -0.0412 -0.9991
vn -0.0088 0.0419 -0.9991
vn -0.0394 -0.0145 -0.9991
vn -0.0414 -0.0008 -0.9991
vn -0.0326 -0.0267 -0.9991
vn -0.9388 -0.3445 -0.0000
vn -0.0207 -0.0368 -0.9991
vn -0.0079 -0.0411 -0.9991
vn -0.4975 -0.8675 -0.0000
vn 0.1718 -0.9851 -0.0000
vn 0.0069 -0.0411 -0.9991
vn 0.4990 -0.8666 -0.0000
vn 0.0217 -0.0357 -0.9991
vn 0.7642 -0.6450 -0.0000
vn 0.0315 -0.0265 -0.9992
vn 0.9392 -0.3434 -0.0000
vn 0.0394 -0.0145 -0.9991
vn 1.0000 -0.0006 -0.0000
vn 0.0412 -0.0000 -0.9992
vn 0.0376 0.0151 -0.9992
vn 0.0316 0.0276 -0.9991
vn 0.9395 0.3426 -0.0000
vn 0.0217 0.0366 -0.9991
vn 0.7640 0.6452 -0.0000
vn 0.0079 0.0413 -0.9991
vn 0.4991 0.8665 -0.0000
vn -0.1717 0.9852 -0.0000
vn -0.0078 0.0418 -0.9991
vn -0.4983 0.8670 -0.0000
vn -0.0216 0.0365 -0.9991
vn -0.7647 0.6444 -0.0000
vn -0.0316 0.0282 -0.9991
vn -0.9394 0.3429 -0.0000
vn -0.0393 0.0124 -0.9992
vn 0.9394 0.3429 -0.0000
vn -0.0397 -0.0006 0.9992
vn -0.0414 -0.0145 0.9990
vn 0.7637 0.6455 -0.0000
vn -0.0325 -0.0266 0.9991
vn -0.0198 -0.0367 0.9991
vn 0.1718 0.9851 -0.0000
vn 0.0070 -0.0411 0.9991
vn -0.1717 0.9851 -0.0000
vn 0.0207 -0.0354 0.9992
vn -0.4976 0.8674 -0.0000
vn 0.0324 -0.0265 0.9991
vn -0.7639 0.6454 -0.0000
vn 0.0404 -0.0145 0.9991
vn 0.0395 0.0008 0.9992
vn -0.9395 -0.3425 -0.0000
vn 0.0394 0.0152 0.9991
vn -0.7647 -0.6443 -0.0001
vn 0.0306 0.0275 0.9992
vn -0.4989 -0.8666 -0.0000
vn 0.0198 0.0365 0.9991
vn -0.1738 -0.9848 -0.0000
vn 0.0069 0.0426 0.9991
vn 0.1717 -0.9851 -0.0000
vn -0.0078 0.0411 0.9991
vn -0.0188 0.0366 0.9992
vn 0.4992 -0.8665 -0.0000
vn 0.7647 -0.6443 -0.0000
vn -0.0394 0.0130 0.9991
vn 0.9391 -0.3437 -0.0000
vn -0.1718 -0.9851 -0.0000
vn -1.0000 -0.0020 -0.0000
vn 0.0010 0.9998 -0.0185
vn -0.0000 -0.9999 -0.0161
vn -0.0000 -0.9390 0.3439
vn 0.0010 1.0000 -0.0000
vn 0.9976 -0.0671 -0.0146
vn -0.9977 -0.0665 -0.0150
vn 0.7651 0.6439 -0.0000
vn -0.4974 0.8675 -0.0000
vn -0.8344 0.5511 -0.0000
vn 0.7641 -0.6451 0.0002
vn -0.8950 0.4460 0.0001
vn -0.8946 -0.4468 -0.0000
vn 0.8945 -0.4471 -0.0001
vn 0.0009 0.9998 0.0186
vn -0.0000 -0.9999 0.0161
vn -0.0010 0.9442 -0.3295
vn -1.0000 0.0014 0.0001
vn 0.0009 -0.0000 1.0000
vn -0.0020 -1.0000 -0.0000
vn 1.0000 0.0007 -0.0000
vn 0.8948 0.4464 -0.0000
vt 0.887087 0.854511
vt 0.895684 0.869365
vt 0.894498 0.854511
vt 0.885902 0.869365
vt 0.897095 0.884787
vt 0.884491 0.884787
vt 0.897095 0.892299
vt 0.894498 0.847054
vt 0.971385 0.381826
vt 0.962795 0.370862
vt 0.961610 0.381826
vt 0.960200 0.393614
vt 0.972795 0.400410
vt 0.960200 0.400410
vt 0.970201 0.364067
vt 0.970201 0.370862
vt 0.963937 0.634752
vt 0.955911 0.644992
vt 0.964594 0.638257
vt 0.960349 0.619200
vt 0.968376 0.608959
vt 0.969033 0.612464
vt 0.963882 0.656490
vt 0.964594 0.653007
vt 0.968321 0.630699
vt 0.969033 0.627215
vt 0.971406 0.656632
vt 0.971406 0.653007
vt 0.975845 0.630841
vt 0.975845 0.627215
vt 0.975845 0.608838
vt 0.975845 0.612464
vt 0.971406 0.634632
vt 0.971406 0.638257
vt 0.956823 0.890370
vt 0.930684 0.847054
vt 0.930684 0.890370
vt 0.889094 0.911025
vt 0.932016 0.914892
vt 0.932016 0.911025
vt 0.956485 0.588401
vt 0.952607 0.614369
vt 0.956485 0.614369
vt 0.885368 0.914892
vt 0.842446 0.911025
vt 0.842446 0.914892
vt 0.952607 0.554983
vt 0.956484 0.529016
vt 0.952607 0.529016
vt 0.842447 0.872891
vt 0.847293 0.876508
vt 0.847293 0.872891
vt 0.842447 0.880428
vt 0.847293 0.887057
vt 0.847293 0.880428
vt 0.842447 0.891977
vt 0.847293 0.891977
vt 0.842447 0.894594
vt 0.847293 0.894594
vt 0.900820 0.898133
vt 0.903775 0.894095
vt 0.900820 0.894095
vt 0.855865 0.894594
vt 0.851019 0.891976
vt 0.851019 0.894594
vt 0.855865 0.887057
vt 0.851019 0.887057
vt 0.855865 0.880428
vt 0.851019 0.880428
vt 0.851019 0.876508
vt 0.855865 0.872891
vt 0.851019 0.872891
vt 0.855865 0.869274
vt 0.851019 0.869274
vt 0.851019 0.865354
vt 0.855865 0.858725
vt 0.851019 0.858725
vt 0.851019 0.853806
vt 0.855865 0.853806
vt 0.851019 0.851188
vt 0.900800 0.905896
vt 0.897845 0.901858
vt 0.897845 0.905896
vt 0.847293 0.851188
vt 0.842447 0.853805
vt 0.847293 0.853805
vt 0.847293 0.858725
vt 0.842447 0.865354
vt 0.847293 0.865354
vt 0.842447 0.869275
vt 0.847293 0.869275
vt 0.842447 0.876508
vt 0.847293 0.898728
vt 0.855865 0.898728
vt 0.855865 0.865354
vt 0.855865 0.847054
vt 0.855865 0.851188
vt 0.847293 0.847054
vt 0.842447 0.851188
vt 0.982270 0.442667
vt 0.975768 0.438545
vt 0.975768 0.443813
vt 0.971067 0.437716
vt 0.969265 0.442667
vt 0.966933 0.435329
vt 0.963547 0.439366
vt 0.964136 0.436006
vt 0.959677 0.440301
vt 0.962714 0.434311
vt 0.959303 0.434307
vt 0.957710 0.437957
vt 0.963866 0.431673
vt 0.957044 0.428103
vt 0.962233 0.427188
vt 0.957044 0.421500
vt 0.962233 0.422415
vt 0.959303 0.415296
vt 0.964081 0.414383
vt 0.959602 0.410390
vt 0.965276 0.412299
vt 0.961255 0.407506
vt 0.964382 0.406379
vt 0.967537 0.411484
vt 0.969265 0.406936
vt 0.975767 0.411058
vt 0.975767 0.405789
vt 0.980468 0.411887
vt 0.982270 0.406936
vt 0.984601 0.414273
vt 0.987988 0.410237
vt 0.987399 0.413597
vt 0.991858 0.409302
vt 0.988821 0.415292
vt 0.992232 0.415295
vt 0.993825 0.411646
vt 0.987670 0.417930
vt 0.994491 0.421500
vt 0.989302 0.422415
vt 0.994491 0.428103
vt 0.989302 0.427188
vt 0.992232 0.434307
vt 0.987454 0.435220
vt 0.991933 0.439213
vt 0.986259 0.437304
vt 0.987153 0.443224
vt 0.990280 0.442097
vt 0.983980 0.438117
vt 0.980486 0.437718
vt 0.975771 0.424806
vt 0.975772 0.424822
vt 0.975709 0.424799
vt 0.963865 0.417930
vt 0.975771 0.424756
vt 0.971067 0.411887
vt 0.987670 0.431673
vt 0.878171 0.854513
vt 0.869573 0.869367
vt 0.879356 0.869368
vt 0.880766 0.884789
vt 0.868162 0.884789
vt 0.880766 0.892301
vt 0.870761 0.847054
vt 0.870760 0.854513
vt 0.963792 0.506706
vt 0.955202 0.495742
vt 0.954017 0.506706
vt 0.952607 0.518494
vt 0.965202 0.518495
vt 0.965202 0.525290
vt 0.952607 0.525290
vt 0.962608 0.488947
vt 0.955202 0.488947
vt 0.960348 0.670712
vt 0.968374 0.660472
vt 0.969031 0.663977
vt 0.951888 0.941709
vt 0.959915 0.931468
vt 0.949319 0.941916
vt 0.968319 0.682210
vt 0.957779 0.670919
vt 0.959860 0.953209
vt 0.960572 0.949725
vt 0.969031 0.678726
vt 0.975843 0.682352
vt 0.967385 0.953350
vt 0.967385 0.949725
vt 0.960572 0.934973
vt 0.967385 0.931348
vt 0.975843 0.660352
vt 0.975843 0.663977
vt 0.900820 0.890370
vt 0.926959 0.847054
vt 0.900820 0.847054
vt 0.956475 0.364066
vt 0.952607 0.406987
vt 0.956475 0.406987
vt 0.968919 0.554983
vt 0.965041 0.529016
vt 0.965041 0.554983
vt 0.947882 0.937017
vt 0.944015 0.894095
vt 0.944015 0.937017
vt 0.952607 0.558709
vt 0.956484 0.584676
vt 0.956484 0.558709
vt 0.868283 0.902453
vt 0.864666 0.907300
vt 0.868283 0.907300
vt 0.854117 0.902453
vt 0.860745 0.907300
vt 0.860745 0.902453
vt 0.849197 0.907300
vt 0.854117 0.907300
vt 0.846580 0.902453
vt 0.849197 0.902453
vt 0.907501 0.898133
vt 0.910456 0.894095
vt 0.907501 0.894095
vt 0.864437 0.891976
vt 0.859590 0.894594
vt 0.864437 0.894594
vt 0.864437 0.887057
vt 0.859590 0.891976
vt 0.859590 0.880428
vt 0.859590 0.887057
vt 0.864437 0.876508
vt 0.859590 0.872891
vt 0.859590 0.876508
vt 0.864437 0.869274
vt 0.864437 0.872891
vt 0.864437 0.865354
vt 0.859590 0.858725
vt 0.859590 0.865354
vt 0.864437 0.858725
vt 0.859590 0.853806
vt 0.864437 0.851188
vt 0.864437 0.853806
vt 0.933639 0.894095
vt 0.930684 0.898133
vt 0.933639 0.898133
vt 0.889986 0.902453
vt 0.887368 0.907300
vt 0.889986 0.907300
vt 0.882449 0.902453
vt 0.887368 0.902453
vt 0.875820 0.907300
vt 0.882449 0.907300
vt 0.871899 0.907300
vt 0.871899 0.902453
vt 0.864666 0.902453
vt 0.875820 0.902453
vt 0.842446 0.907300
vt 0.846580 0.907300
vt 0.859590 0.898728
vt 0.864437 0.898728
vt 0.864437 0.880428
vt 0.859590 0.869274
vt 0.859590 0.851188
vt 0.864437 0.847054
vt 0.859590 0.847054
vt 0.894119 0.907300
vt 0.894119 0.902453
vt 0.954865 0.457102
vt 0.957796 0.464222
vt 0.959429 0.459719
vt 0.952607 0.463307
vt 0.957796 0.468995
vt 0.952607 0.469910
vt 0.959428 0.473480
vt 0.954865 0.476114
vt 0.958277 0.476118
vt 0.955239 0.482107
vt 0.953272 0.479763
vt 0.959110 0.481172
vt 0.959698 0.477812
vt 0.964828 0.484473
vt 0.962496 0.477136
vt 0.971330 0.485620
vt 0.966630 0.479523
vt 0.977833 0.484473
vt 0.971330 0.480351
vt 0.979561 0.479925
vt 0.976031 0.479522
vt 0.982716 0.485031
vt 0.981821 0.479111
vt 0.987496 0.481020
vt 0.985843 0.483904
vt 0.987795 0.476114
vt 0.983016 0.477026
vt 0.984865 0.468994
vt 0.983232 0.473479
vt 0.990053 0.469909
vt 0.984865 0.464221
vt 0.990053 0.463306
vt 0.983232 0.459736
vt 0.987795 0.457102
vt 0.984384 0.457098
vt 0.987421 0.451109
vt 0.989388 0.453453
vt 0.983551 0.452044
vt 0.982962 0.455404
vt 0.977833 0.448743
vt 0.980164 0.456080
vt 0.971330 0.447596
vt 0.976031 0.453694
vt 0.964828 0.448743
vt 0.971330 0.452865
vt 0.963099 0.453291
vt 0.966630 0.453694
vt 0.960839 0.454105
vt 0.959944 0.448185
vt 0.956817 0.449312
vt 0.955164 0.452196
vt 0.959643 0.456208
vt 0.971327 0.466603
vt 0.971322 0.466666
vt 0.971310 0.466600
vt 0.971376 0.466613
vt 0.965296 0.131436
vt 0.952607 0.121431
vt 0.952607 0.131436
vt 0.965296 0.121431
vt 0.952607 0.111327
vt 0.965296 0.111327
vt 0.952607 0.101291
vt 0.965296 0.101291
vt 0.952607 0.091270
vt 0.965296 0.091270
vt 0.952607 0.081267
vt 0.965296 0.071285
vt 0.965296 0.081267
vt 0.965296 0.061320
vt 0.952607 0.071285
vt 0.965296 0.051362
vt 0.952607 0.061320
vt 0.965296 0.041422
vt 0.952607 0.051362
vt 0.952607 0.031488
vt 0.952607 0.041422
vt 0.965296 0.031488
vt 0.952607 0.021499
vt 0.965296 0.021499
vt 0.952607 0.011361
vt 0.965296 0.011361
vt 0.952607 0.000977
vt 0.965296 0.171107
vt 0.952607 0.180533
vt 0.965296 0.180533
vt 0.965296 0.161463
vt 0.952607 0.171107
vt 0.965296 0.151523
vt 0.952607 0.161463
vt 0.965296 0.141483
vt 0.952607 0.151523
vt 0.952607 0.141483
vt 0.987592 0.121431
vt 0.976998 0.131436
vt 0.987592 0.131436
vt 0.987592 0.111327
vt 0.976998 0.121431
vt 0.987592 0.101291
vt 0.976998 0.111327
vt 0.987592 0.091270
vt 0.976998 0.101291
vt 0.987592 0.081267
vt 0.976998 0.091270
vt 0.976998 0.071285
vt 0.987592 0.071285
vt 0.976998 0.061320
vt 0.987592 0.061320
vt 0.976998 0.051362
vt 0.987592 0.051362
vt 0.976998 0.041422
vt 0.987592 0.041422
vt 0.987592 0.031488
vt 0.987592 0.021499
vt 0.976998 0.031488
vt 0.987592 0.011361
vt 0.976998 0.021499
vt 0.987592 0.000977
vt 0.976998 0.011361
vt 0.987592 0.171107
vt 0.976998 0.180533
vt 0.987592 0.180533
vt 0.976998 0.161463
vt 0.987592 0.161463
vt 0.976998 0.151523
vt 0.987592 0.151523
vt 0.976998 0.141483
vt 0.987592 0.141483
vt 0.976998 0.081267
vt 0.976998 0.000977
vt 0.965296 0.000977
vt 0.976998 0.171107
vt 0.998125 0.131436
vt 0.998125 0.121431
vt 0.998125 0.111327
vt 0.998125 0.101291
vt 0.998125 0.091270
vt 0.998125 0.071285
vt 0.998125 0.061320
vt 0.998125 0.051362
vt 0.998125 0.041422
vt 0.998125 0.031488
vt 0.998125 0.021499
vt 0.998125 0.011361
vt 0.998125 0.180533
vt 0.998125 0.161463
vt 0.998125 0.151523
vt 0.998125 0.141483
vt 0.999023 0.300957
vt 0.986690 0.310697
vt 0.999023 0.310697
vt 0.999023 0.291299
vt 0.986690 0.300957
vt 0.999023 0.281553
vt 0.986690 0.291299
vt 0.999023 0.271811
vt 0.986690 0.281553
vt 0.986690 0.262057
vt 0.999023 0.262057
vt 0.986690 0.252285
vt 0.999023 0.252285
vt 0.986690 0.242495
vt 0.999023 0.242495
vt 0.986690 0.232692
vt 0.999023 0.232692
vt 0.986690 0.222879
vt 0.999023 0.222879
vt 0.999023 0.213062
vt 0.999023 0.203272
vt 0.986690 0.213062
vt 0.999023 0.193585
vt 0.986690 0.203272
vt 0.999023 0.184258
vt 0.986690 0.193585
vt 0.986690 0.350143
vt 0.999023 0.360341
vt 0.999023 0.350143
vt 0.986690 0.340054
vt 0.999023 0.340054
vt 0.986690 0.330164
vt 0.999023 0.330164
vt 0.986690 0.320411
vt 0.999023 0.320411
vt 0.962911 0.300957
vt 0.974311 0.310697
vt 0.974311 0.300957
vt 0.962911 0.291299
vt 0.974311 0.291299
vt 0.962911 0.281553
vt 0.974311 0.281553
vt 0.962911 0.271811
vt 0.974311 0.271811
vt 0.974311 0.262057
vt 0.962911 0.262057
vt 0.974311 0.252285
vt 0.962911 0.252285
vt 0.974311 0.242495
vt 0.962911 0.242495
vt 0.974311 0.232692
vt 0.962911 0.232692
vt 0.974311 0.222879
vt 0.962911 0.222879
vt 0.962911 0.213062
vt 0.974311 0.213062
vt 0.962911 0.203272
vt 0.974311 0.203272
vt 0.962911 0.193585
vt 0.974311 0.193585
vt 0.962911 0.184258
vt 0.974311 0.184258
vt 0.962911 0.350143
vt 0.974311 0.360341
vt 0.974311 0.350143
vt 0.974311 0.340054
vt 0.962911 0.340054
vt 0.974311 0.330164
vt 0.962911 0.330164
vt 0.974311 0.320411
vt 0.962911 0.320411
vt 0.962911 0.310697
vt 0.986690 0.271811
vt 0.986690 0.184258
vt 0.952607 0.310697
vt 0.952607 0.300957
vt 0.952607 0.291299
vt 0.952607 0.281553
vt 0.952607 0.271811
vt 0.952607 0.262057
vt 0.952607 0.252285
vt 0.952607 0.242495
vt 0.952607 0.232692
vt 0.952607 0.222879
vt 0.952607 0.213062
vt 0.952607 0.203272
vt 0.952607 0.193585
vt 0.952607 0.184258
vt 0.952607 0.360341
vt 0.952607 0.350143
vt 0.952607 0.340054
vt 0.952607 0.330164
vt 0.952607 0.320411
vt 0.940290 0.956690
vt 0.472496 0.922711
vt 0.940290 0.922711
vt 0.000977 0.956690
vt 0.468771 0.922711
vt 0.468771 0.956690
vt 0.948882 0.000977
vt 0.476792 0.843329
vt 0.476792 0.000977
vt 0.838721 0.918986
vt 0.000977 0.884883
vt 0.838721 0.884883
vt 0.000977 0.000977
vt 0.473066 0.843329
vt 0.000977 0.843329
vt 0.000977 0.847054
vt 0.838722 0.881157
vt 0.000977 0.881157
vt 0.884491 0.892299
vt 0.887087 0.847054
vt 0.972795 0.393615
vt 0.962795 0.364066
vt 0.953343 0.645199
vt 0.957780 0.619406
vt 0.956823 0.847054
vt 0.889094 0.914892
vt 0.952607 0.588401
vt 0.885368 0.911025
vt 0.956484 0.554983
vt 0.842447 0.887057
vt 0.903775 0.898133
vt 0.855865 0.891976
vt 0.855865 0.876508
vt 0.900800 0.901858
vt 0.842447 0.858725
vt 0.842447 0.898728
vt 0.851019 0.898728
vt 0.851019 0.847054
vt 0.842447 0.847054
vt 0.868162 0.892301
vt 0.878172 0.847055
vt 0.962608 0.495742
vt 0.975843 0.678726
vt 0.967385 0.934973
vt 0.926959 0.890370
vt 0.952607 0.364066
vt 0.968919 0.529016
vt 0.947882 0.894095
vt 0.952607 0.584676
vt 0.910456 0.898133
vt 0.930684 0.894095
vt 0.842446 0.902453
vt 0.998125 0.081267
vt 0.998125 0.000977
vt 0.998125 0.171107
vt 0.986690 0.360341
vt 0.962911 0.360341
vt 0.472496 0.956690
vt 0.000977 0.922711
vt 0.948882 0.843329
vt 0.000977 0.918986
vt 0.473067 0.000977
vt 0.838722 0.847054
s 1
f 3/1/1 5/2/2 4/3/3
f 6/4/4 2/5/5 5/2/2
f 1/6/6 8/7/7 2/5/5
f 10/8/8 3/1/1 4/3/3
f 16/9/9 14/10/10 15/11/11
f 12/12/12 16/9/9 15/11/11
f 17/13/13 12/12/12 18/14/14
f 19/15/15 14/10/10 13/16/16
f 4/17/17 15/18/18 14/19/19
f 16/20/20 3/21/21 13/22/22
f 15/18/18 2/23/23 12/24/24
f 1/25/25 16/20/20 11/26/26
f 12/24/24 8/27/27 18/28/28
f 7/29/29 11/26/26 17/30/29
f 13/22/22 9/31/29 19/32/30
f 10/33/28 14/19/19 20/34/31
f 26/35/32 27/36/33 28/37/34
f 21/38/35 26/39/36 22/40/37
f 22/41/28 28/42/28 24/43/28
f 24/44/38 27/45/39 23/46/40
f 23/47/29 25/48/29 21/49/29
f 64/50/28 62/51/41 61/52/28
f 45/53/42 30/54/43 29/55/42
f 30/54/43 47/56/44 31/57/45
f 31/57/45 48/58/46 32/59/47
f 67/60/15 69/61/15 68/62/48
f 49/63/49 34/64/50 33/65/51
f 34/64/50 51/66/52 35/67/53
f 35/67/53 52/68/54 36/69/55
f 72/70/56 76/71/57 73/72/29
f 73/72/29 75/73/58 74/74/59
f 37/75/60 54/76/61 38/77/62
f 54/76/61 39/78/63 38/77/62
f 55/79/63 40/80/64 39/78/63
f 78/81/35 80/82/35 79/83/35
f 41/84/65 58/85/66 42/86/67
f 58/85/66 43/87/68 42/86/67
f 43/87/68 60/88/69 44/89/70
f 65/90/71 61/52/28 66/91/72
f 29/55/42 63/92/73 45/53/42
f 65/90/71 44/89/70 60/88/69
f 48/58/46 68/93/74 32/59/47
f 33/65/51 70/94/75 49/63/49
f 52/68/54 72/70/56 36/69/55
f 74/74/59 53/95/76 37/75/60
f 77/96/77 40/80/64 56/97/78
f 79/98/79 57/99/80 41/84/65
f 45/100/81 82/101/82 46/102/83
f 46/102/83 83/103/84 47/104/85
f 47/104/85 84/105/86 48/106/87
f 48/106/87 85/107/88 67/108/89
f 86/109/90 67/108/89 85/107/88
f 86/109/90 49/110/91 70/111/92
f 87/112/93 50/113/94 49/110/91
f 88/114/95 51/115/96 50/113/94
f 89/116/97 52/117/98 51/115/96
f 52/117/98 91/118/99 71/119/100
f 71/119/100 92/120/101 76/121/102
f 92/120/101 75/122/103 76/121/102
f 93/123/104 53/124/105 75/122/103
f 53/124/105 95/125/106 54/126/107
f 54/126/107 96/127/108 55/128/109
f 55/128/109 97/129/110 56/130/111
f 56/130/111 98/131/112 77/132/113
f 99/133/114 77/132/113 98/131/112
f 99/133/114 57/134/115 80/135/116
f 100/136/117 58/137/118 57/134/115
f 101/138/119 59/139/120 58/137/118
f 102/140/121 60/141/122 59/139/120
f 60/141/122 104/142/123 65/143/124
f 105/144/125 65/143/124 104/142/123
f 105/144/125 63/145/126 64/146/127
f 106/147/128 45/100/81 63/145/126
f 81/148/129 107/149/130 82/101/82
f 82/101/82 107/149/130 83/103/84
f 83/103/84 107/149/130 84/105/86
f 84/105/86 110/150/131 85/107/88
f 85/107/88 108/151/132 86/109/90
f 86/109/90 107/149/133 87/112/93
f 87/112/93 107/149/133 88/114/95
f 88/114/95 107/149/133 89/116/97
f 89/116/97 107/149/133 90/152/134
f 90/152/134 108/151/132 91/118/99
f 91/118/99 109/153/135 92/120/101
f 92/120/101 107/149/136 93/123/104
f 93/123/104 107/149/136 94/154/137
f 94/154/137 107/149/136 95/125/106
f 95/125/106 107/149/136 96/127/108
f 96/127/108 107/149/136 97/129/110
f 97/129/110 107/149/136 98/131/112
f 98/131/112 107/149/136 99/133/114
f 99/133/114 109/153/135 100/136/117
f 109/153/135 101/138/119 100/136/117
f 101/138/119 107/149/130 102/140/121
f 102/140/121 107/149/130 103/155/138
f 103/155/138 107/149/130 104/142/123
f 104/142/123 107/149/130 105/144/125
f 105/144/125 107/149/130 106/147/128
f 106/147/128 107/149/130 81/148/129
f 113/156/139 115/157/140 116/158/141
f 115/157/140 111/159/142 116/158/141
f 112/160/143 117/161/144 111/159/142
f 113/156/139 120/162/145 114/163/146
f 125/164/147 123/165/148 126/166/149
f 125/164/147 121/167/150 122/168/151
f 128/169/14 121/167/150 127/170/35
f 123/165/148 130/171/152 129/172/15
f 125/173/153 114/174/154 124/175/155
f 126/176/156 113/177/157 116/178/158
f 125/173/153 112/179/159 115/180/160
f 126/176/156 111/181/161 121/182/162
f 122/183/163 118/184/164 112/179/159
f 121/182/162 117/185/57 127/186/165
f 123/187/166 119/188/167 113/177/157
f 124/175/155 120/189/168 130/190/28
f 137/191/169 136/192/170 138/193/171
f 132/194/37 135/195/35 131/196/35
f 138/197/28 132/198/168 134/199/28
f 137/200/15 134/201/15 133/202/172
f 135/203/57 133/204/173 131/205/167
f 171/206/28 173/207/174 174/208/28
f 140/209/175 155/210/176 139/211/177
f 140/209/175 157/212/45 156/213/178
f 142/214/179 157/212/45 141/215/180
f 178/216/15 180/217/40 177/218/15
f 144/219/50 159/220/181 143/221/182
f 145/222/52 160/223/183 144/219/50
f 145/222/52 162/224/55 161/225/184
f 182/226/185 186/227/29 181/228/186
f 184/229/187 186/227/29 183/230/188
f 147/231/189 164/232/190 163/233/191
f 148/234/192 165/235/193 164/232/190
f 150/236/78 165/235/193 149/237/194
f 188/238/35 190/239/35 187/240/35
f 151/241/195 168/242/196 167/243/197
f 153/244/198 168/242/196 152/245/199
f 153/244/198 170/246/200 169/247/201
f 171/206/28 175/248/202 176/249/203
f 155/210/176 172/250/204 139/211/177
f 154/251/205 175/248/202 170/246/200
f 142/214/179 177/252/206 158/253/207
f 143/221/182 180/254/208 179/255/209
f 146/256/210 181/228/186 162/224/55
f 147/231/189 185/257/211 184/229/187
f 166/258/212 188/259/213 187/260/214
f 151/241/195 190/261/215 189/262/216
f 155/263/217 192/264/218 191/265/219
f 156/266/220 193/267/221 192/264/218
f 157/268/222 194/269/223 193/267/221
f 158/270/224 195/271/225 194/269/223
f 180/272/226 195/271/225 177/273/227
f 159/274/228 196/275/229 180/272/226
f 160/276/230 197/277/231 159/274/228
f 161/278/232 198/279/233 160/276/230
f 162/280/234 199/281/235 161/278/232
f 162/280/234 201/282/236 200/283/237
f 181/284/238 202/285/239 201/282/236
f 185/286/240 202/285/239 186/287/241
f 163/288/242 203/289/243 185/286/240
f 163/288/242 205/290/244 204/291/245
f 164/292/246 206/293/247 205/290/244
f 165/294/248 207/295/249 206/293/247
f 166/296/250 208/297/251 207/295/249
f 190/298/252 208/297/251 187/299/253
f 167/300/254 209/301/255 190/298/252
f 168/302/256 210/303/257 167/300/254
f 169/304/258 211/305/259 168/302/256
f 170/306/260 212/307/261 169/304/258
f 170/306/260 214/308/262 213/309/263
f 215/310/264 175/311/265 174/312/266
f 173/313/267 215/310/264 174/312/266
f 155/263/217 216/314/268 173/313/267
f 191/265/219 192/264/218 217/315/269
f 192/264/218 193/267/221 217/315/269
f 193/267/221 194/269/223 217/315/269
f 195/271/225 217/315/269 194/269/223
f 195/271/225 218/316/270 220/317/271
f 197/277/231 218/316/270 196/275/229
f 197/277/231 198/279/233 217/315/272
f 198/279/233 199/281/235 217/315/272
f 199/281/235 200/283/237 217/315/272
f 201/282/236 217/315/272 200/283/237
f 201/282/236 219/318/273 218/316/270
f 203/289/243 219/318/273 202/285/239
f 203/289/243 204/291/245 217/315/274
f 204/291/245 205/290/244 217/315/274
f 205/290/244 206/293/247 217/315/274
f 206/293/247 207/295/249 217/315/274
f 207/295/249 208/297/251 217/315/274
f 208/297/251 209/301/255 217/315/274
f 210/303/257 217/315/274 209/301/255
f 211/305/259 219/318/273 210/303/257
f 212/307/261 220/317/271 211/305/259
f 212/307/261 213/309/263 217/315/269
f 213/309/263 214/308/262 217/315/269
f 214/308/262 215/310/264 217/315/269
f 215/310/264 216/314/268 217/315/269
f 216/314/268 191/265/219 217/315/269
f 222/319/275 258/320/276 257/321/277
f 221/322/278 261/323/279 258/320/276
f 223/324/280 263/325/281 261/323/279
f 224/326/282 265/327/283 263/325/281
f 225/328/284 267/329/285 265/327/283
f 227/330/286 267/329/285 226/331/287
f 228/332/201 269/333/288 227/330/286
f 229/334/289 271/335/290 228/332/201
f 230/336/291 273/337/292 229/334/289
f 230/336/291 277/338/293 275/339/294
f 231/340/295 279/341/296 277/338/293
f 232/342/297 281/343/298 279/341/296
f 233/344/299 283/345/300 281/343/298
f 235/346/301 283/347/300 234/348/302
f 236/349/303 285/350/304 235/346/301
f 237/351/305 287/352/306 236/349/303
f 238/353/307 289/354/308 237/351/305
f 222/319/275 291/355/309 238/353/307
f 239/356/310 260/357/311 240/358/28
f 241/359/312 259/360/313 239/356/310
f 242/361/314 262/362/315 241/359/312
f 243/363/316 264/364/317 242/361/314
f 244/365/318 266/366/319 243/363/316
f 270/367/320 244/365/318 245/368/321
f 272/369/322 245/368/321 246/370/323
f 274/371/324 246/370/323 247/372/325
f 276/373/326 247/372/325 248/374/29
f 249/375/327 276/373/326 248/374/29
f 250/376/328 278/377/329 249/375/327
f 251/378/330 280/379/331 250/376/328
f 252/380/332 282/381/333 251/378/330
f 253/382/334 284/383/335 252/384/332
f 288/385/336 253/382/334 254/386/337
f 290/387/338 254/386/337 255/388/339
f 292/389/340 255/388/339 256/390/341
f 260/357/311 256/390/341 240/358/28
f 222/319/275 259/360/313 221/322/278
f 221/322/278 262/362/315 223/324/280
f 223/324/280 264/364/317 224/326/282
f 224/326/282 266/366/319 225/328/284
f 266/366/319 226/331/287 225/328/284
f 268/391/342 227/330/286 226/331/287
f 270/367/320 228/332/201 227/330/286
f 272/369/322 229/334/289 228/332/201
f 274/371/324 230/336/291 229/334/289
f 230/336/291 278/377/329 231/340/295
f 231/340/295 280/379/331 232/342/297
f 232/342/297 282/381/333 233/344/299
f 233/344/299 284/392/335 234/393/302
f 234/348/302 286/394/343 235/346/301
f 286/394/343 236/349/303 235/346/301
f 288/385/336 237/351/305 236/349/303
f 238/353/307 290/387/338 292/389/340
f 222/319/275 292/389/340 260/357/311
f 257/395/277 239/356/310 240/358/28
f 258/396/276 241/359/312 239/356/310
f 261/397/279 242/361/314 241/359/312
f 263/398/281 243/363/316 242/361/314
f 265/399/283 244/365/318 243/363/316
f 244/365/318 269/400/288 245/368/321
f 245/368/321 271/401/290 246/370/323
f 246/370/323 273/402/292 247/372/325
f 247/372/325 275/403/294 248/374/29
f 275/403/294 249/375/327 248/374/29
f 277/404/293 250/376/328 249/375/327
f 279/405/296 251/378/330 250/376/328
f 281/406/298 252/380/332 251/378/330
f 283/407/300 253/382/334 252/384/332
f 253/382/334 287/408/306 254/386/337
f 254/386/337 289/409/308 255/388/339
f 255/388/339 291/410/309 256/390/341
f 256/390/341 257/395/277 240/358/28
f 330/411/344 294/412/29 329/413/345
f 333/414/346 293/415/347 330/411/344
f 335/416/348 295/417/190 333/414/346
f 337/418/349 296/419/350 335/416/348
f 298/420/351 337/418/349 339/421/352
f 299/422/353 339/421/352 341/423/354
f 300/424/355 341/423/354 343/425/356
f 301/426/357 343/425/356 345/427/358
f 302/428/359 345/427/358 347/429/360
f 349/430/361 302/428/359 347/429/360
f 351/431/362 303/432/363 349/430/361
f 353/433/364 304/434/365 351/431/362
f 355/435/366 305/436/367 353/433/364
f 307/437/368 355/438/366 357/439/369
f 308/440/370 357/439/369 359/441/371
f 309/442/372 359/441/371 361/443/373
f 310/444/374 361/443/373 363/445/375
f 294/412/29 363/445/375 329/413/345
f 311/446/376 332/447/377 331/448/378
f 313/449/379 331/448/378 334/450/380
f 314/451/299 334/450/380 336/452/381
f 315/453/382 336/452/381 338/454/283
f 315/453/382 340/455/383 316/456/384
f 316/456/384 342/457/385 317/458/386
f 317/458/386 344/459/387 318/460/388
f 318/460/388 346/461/389 319/462/374
f 319/462/374 348/463/390 320/464/29
f 321/465/391 348/463/390 350/466/392
f 322/467/393 350/466/392 352/468/394
f 323/469/395 352/468/394 354/470/396
f 324/471/397 354/470/396 356/472/398
f 325/473/399 356/474/398 358/475/400
f 325/473/399 360/476/401 326/477/402
f 326/477/402 362/478/308 327/479/403
f 327/479/403 364/480/404 328/481/405
f 328/481/405 332/447/377 312/482/28
f 331/448/378 294/412/29 293/415/347
f 334/450/380 293/415/347 295/417/190
f 336/452/381 295/417/190 296/419/350
f 338/454/283 296/419/350 297/483/406
f 340/455/383 297/483/406 298/420/351
f 340/455/383 299/422/353 342/457/385
f 342/457/385 300/424/355 344/459/387
f 344/459/387 301/426/357 346/461/389
f 346/461/389 302/428/359 348/463/390
f 350/466/392 302/428/359 303/432/363
f 352/468/394 303/432/363 304/434/365
f 354/470/396 304/434/365 305/436/367
f 356/472/398 305/436/367 306/484/382
f 356/474/398 307/437/368 358/475/400
f 358/475/400 308/440/370 360/476/401
f 360/476/401 309/442/372 362/478/308
f 310/444/374 362/478/308 309/442/372
f 294/412/29 364/480/404 310/444/374
f 329/485/345 311/446/376 330/486/344
f 330/486/344 313/449/379 333/487/346
f 333/487/346 314/451/299 335/488/348
f 335/488/348 315/453/382 337/489/349
f 339/490/352 315/453/382 316/456/384
f 341/491/354 316/456/384 317/458/386
f 343/492/356 317/458/386 318/460/388
f 345/493/358 318/460/388 319/462/374
f 347/494/360 319/462/374 320/464/29
f 347/494/360 321/465/391 349/495/361
f 349/495/361 322/467/393 351/496/362
f 351/496/362 323/469/395 353/497/364
f 353/497/364 324/471/397 355/498/366
f 355/499/366 325/473/399 357/500/369
f 359/501/371 325/473/399 326/477/402
f 361/502/373 326/477/402 327/479/403
f 363/503/375 327/479/403 328/481/405
f 329/485/345 328/481/405 312/482/28
f 367/504/35 366/505/35 365/506/35
f 370/507/15 371/508/15 369/509/15
f 366/510/169 369/511/169 365/512/169
f 368/513/28 370/514/28 366/515/28
f 368/516/33 371/517/33 372/518/33
f 365/519/29 371/520/407 367/521/29
f 3/1/1 6/4/4 5/2/2
f 6/4/4 1/6/6 2/5/5
f 1/6/6 7/522/408 8/7/7
f 10/8/8 9/523/409 3/1/1
f 16/9/9 13/16/16 14/10/10
f 12/12/12 11/524/410 16/9/9
f 17/13/13 11/524/410 12/12/12
f 19/15/15 20/525/411 14/10/10
f 4/17/17 5/526/412 15/18/18
f 16/20/20 6/527/413 3/21/21
f 15/18/18 5/526/412 2/23/23
f 1/25/25 6/527/413 16/20/20
f 12/24/24 2/23/23 8/27/27
f 7/29/29 1/25/25 11/26/26
f 13/22/22 3/21/21 9/31/29
f 10/33/28 4/17/17 14/19/19
f 26/35/32 25/528/135 27/36/33
f 21/38/35 25/529/35 26/39/36
f 22/41/28 26/530/28 28/42/28
f 24/44/38 28/531/15 27/45/39
f 23/47/29 27/532/29 25/48/29
f 64/50/28 63/92/73 62/51/41
f 45/53/42 46/533/414 30/54/43
f 30/54/43 46/533/414 47/56/44
f 31/57/45 47/56/44 48/58/46
f 67/60/15 70/534/15 69/61/15
f 49/63/49 50/535/415 34/64/50
f 34/64/50 50/535/415 51/66/52
f 35/67/53 51/66/52 52/68/54
f 72/70/56 71/536/416 76/71/57
f 73/72/29 76/71/57 75/73/58
f 37/75/60 53/95/76 54/76/61
f 54/76/61 55/79/63 39/78/63
f 55/79/63 56/97/78 40/80/64
f 78/81/35 77/537/14 80/82/35
f 41/84/65 57/99/80 58/85/66
f 58/85/66 59/538/417 43/87/68
f 43/87/68 59/538/417 60/88/69
f 65/90/71 64/50/28 61/52/28
f 29/55/42 62/51/41 63/92/73
f 65/90/71 66/91/72 44/89/70
f 48/58/46 67/539/206 68/93/74
f 33/65/51 69/540/418 70/94/75
f 52/68/54 71/536/416 72/70/56
f 74/74/59 75/73/58 53/95/76
f 77/96/77 78/541/419 40/80/64
f 79/98/79 80/542/420 57/99/80
f 45/100/81 81/148/129 82/101/82
f 46/102/83 82/101/82 83/103/84
f 47/104/85 83/103/84 84/105/86
f 48/106/87 84/105/86 85/107/88
f 86/109/90 70/111/92 67/108/89
f 86/109/90 87/112/93 49/110/91
f 87/112/93 88/114/95 50/113/94
f 88/114/95 89/116/97 51/115/96
f 89/116/97 90/152/134 52/117/98
f 52/117/98 90/152/134 91/118/99
f 71/119/100 91/118/99 92/120/101
f 92/120/101 93/123/104 75/122/103
f 93/123/104 94/154/137 53/124/105
f 53/124/105 94/154/137 95/125/106
f 54/126/107 95/125/106 96/127/108
f 55/128/109 96/127/108 97/129/110
f 56/130/111 97/129/110 98/131/112
f 99/133/114 80/135/116 77/132/113
f 99/133/114 100/136/117 57/134/115
f 100/136/117 101/138/119 58/137/118
f 101/138/119 102/140/121 59/139/120
f 102/140/121 103/155/138 60/141/122
f 60/141/122 103/155/138 104/142/123
f 105/144/125 64/146/127 65/143/124
f 105/144/125 106/147/128 63/145/126
f 106/147/128 81/148/129 45/100/81
f 84/105/86 107/149/130 110/150/131
f 85/107/88 110/150/131 108/151/132
f 86/109/90 108/151/132 107/149/133
f 90/152/134 107/149/133 108/151/132
f 91/118/99 108/151/132 109/153/135
f 92/120/101 109/153/135 107/149/136
f 99/133/114 107/149/136 109/153/135
f 109/153/135 110/150/131 101/138/119
f 101/138/119 110/150/131 107/149/130
f 113/156/139 114/163/146 115/157/140
f 115/157/140 112/160/143 111/159/142
f 112/160/143 118/543/421 117/161/144
f 113/156/139 119/544/422 120/162/145
f 125/164/147 124/545/423 123/165/148
f 125/164/147 126/166/149 121/167/150
f 128/169/14 122/168/151 121/167/150
f 123/165/148 124/545/423 130/171/152
f 125/173/153 115/180/160 114/174/154
f 126/176/156 123/187/166 113/177/157
f 125/173/153 122/183/163 112/179/159
f 126/176/156 116/178/158 111/181/161
f 122/183/163 128/546/168 118/184/164
f 121/182/162 111/181/161 117/185/57
f 123/187/166 129/547/424 119/188/167
f 124/175/155 114/174/154 120/189/168
f 137/191/169 135/548/425 136/192/170
f 132/194/37 136/549/426 135/195/35
f 138/197/28 136/550/427 132/198/168
f 137/200/15 138/551/15 134/201/15
f 135/203/57 137/552/29 133/204/173
f 171/206/28 172/250/204 173/207/174
f 140/209/175 156/213/178 155/210/176
f 140/209/175 141/215/180 157/212/45
f 142/214/179 158/253/207 157/212/45
f 178/216/15 179/553/15 180/217/40
f 144/219/50 160/223/183 159/220/181
f 145/222/52 161/225/184 160/223/183
f 145/222/52 146/256/210 162/224/55
f 182/226/185 183/230/188 186/227/29
f 184/229/187 185/257/211 186/227/29
f 147/231/189 148/234/192 164/232/190
f 148/234/192 149/237/194 165/235/193
f 150/236/78 166/258/212 165/235/193
f 188/238/35 189/554/35 190/239/35
f 151/241/195 152/245/199 168/242/196
f 153/244/198 169/247/201 168/242/196
f 153/244/198 154/251/205 170/246/200
f 171/206/28 174/208/28 175/248/202
f 155/210/176 173/207/174 172/250/204
f 154/251/205 176/249/203 175/248/202
f 142/214/179 178/555/428 177/252/206
f 143/221/182 159/220/181 180/254/208
f 146/256/210 182/226/185 181/228/186
f 147/231/189 163/233/191 185/257/211
f 166/258/212 150/236/78 188/259/213
f 151/241/195 167/243/197 190/261/215
f 155/263/217 156/266/220 192/264/218
f 156/266/220 157/268/222 193/267/221
f 157/268/222 158/270/224 194/269/223
f 158/270/224 177/273/227 195/271/225
f 180/272/226 196/275/229 195/271/225
f 159/274/228 197/277/231 196/275/229
f 160/276/230 198/279/233 197/277/231
f 161/278/232 199/281/235 198/279/233
f 162/280/234 200/283/237 199/281/235
f 162/280/234 181/284/238 201/282/236
f 181/284/238 186/287/241 202/285/239
f 185/286/240 203/289/243 202/285/239
f 163/288/242 204/291/245 203/289/243
f 163/288/242 164/292/246 205/290/244
f 164/292/246 165/294/248 206/293/247
f 165/294/248 166/296/250 207/295/249
f 166/296/250 187/299/253 208/297/251
f 190/298/252 209/301/255 208/297/251
f 167/300/254 210/303/257 209/301/255
f 168/302/256 211/305/259 210/303/257
f 169/304/258 212/307/261 211/305/259
f 170/306/260 213/309/263 212/307/261
f 170/306/260 175/311/265 214/308/262
f 215/310/264 214/308/262 175/311/265
f 173/313/267 216/314/268 215/310/264
f 155/263/217 191/265/219 216/314/268
f 195/271/225 220/317/271 217/315/269
f 195/271/225 196/275/229 218/316/270
f 197/277/231 217/315/272 218/316/270
f 201/282/236 218/316/270 217/315/272
f 201/282/236 202/285/239 219/318/273
f 203/289/243 217/315/274 219/318/273
f 210/303/257 219/318/273 217/315/274
f 211/305/259 220/317/271 219/318/273
f 212/307/261 217/315/269 220/317/271
f 222/319/275 221/322/278 258/320/276
f 221/322/278 223/324/280 261/323/279
f 223/324/280 224/326/282 263/325/281
f 224/326/282 225/328/284 265/327/283
f 225/328/284 226/331/287 267/329/285
f 227/330/286 269/333/288 267/329/285
f 228/332/201 271/335/290 269/333/288
f 229/334/289 273/337/292 271/335/290
f 230/336/291 275/339/294 273/337/292
f 230/336/291 231/340/295 277/338/293
f 231/340/295 232/342/297 279/341/296
f 232/342/297 233/344/299 281/343/298
f 233/344/299 234/393/302 283/345/300
f 235/346/301 285/350/304 283/347/300
f 236/349/303 287/352/306 285/350/304
f 237/351/305 289/354/308 287/352/306
f 238/353/307 291/355/309 289/354/308
f 222/319/275 257/321/277 291/355/309
f 239/356/310 259/360/313 260/357/311
f 241/359/312 262/362/315 259/360/313
f 242/361/314 264/364/317 262/362/315
f 243/363/316 266/366/319 264/364/317
f 244/365/318 268/391/342 266/366/319
f 270/367/320 268/391/342 244/365/318
f 272/369/322 270/367/320 245/368/321
f 274/371/324 272/369/322 246/370/323
f 276/373/326 274/371/324 247/372/325
f 249/375/327 278/377/329 276/373/326
f 250/376/328 280/379/331 278/377/329
f 251/378/330 282/381/333 280/379/331
f 252/380/332 284/392/335 282/381/333
f 253/382/334 286/394/343 284/383/335
f 288/385/336 286/394/343 253/382/334
f 290/387/338 288/385/336 254/386/337
f 292/389/340 290/387/338 255/388/339
f 260/357/311 292/389/340 256/390/341
f 222/319/275 260/357/311 259/360/313
f 221/322/278 259/360/313 262/362/315
f 223/324/280 262/362/315 264/364/317
f 224/326/282 264/364/317 266/366/319
f 266/366/319 268/391/342 226/331/287
f 268/391/342 270/367/320 227/330/286
f 270/367/320 272/369/322 228/332/201
f 272/369/322 274/371/324 229/334/289
f 274/371/324 276/373/326 230/336/291
f 230/336/291 276/373/326 278/377/329
f 231/340/295 278/377/329 280/379/331
f 232/342/297 280/379/331 282/381/333
f 233/344/299 282/381/333 284/392/335
f 234/348/302 284/383/335 286/394/343
f 286/394/343 288/385/336 236/349/303
f 288/385/336 290/387/338 237/351/305
f 238/353/307 237/351/305 290/387/338
f 222/319/275 238/353/307 292/389/340
f 257/395/277 258/396/276 239/356/310
f 258/396/276 261/397/279 241/359/312
f 261/397/279 263/398/281 242/361/314
f 263/398/281 265/399/283 243/363/316
f 265/399/283 267/556/285 244/365/318
f 244/365/318 267/556/285 269/400/288
f 245/368/321 269/400/288 271/401/290
f 246/370/323 271/401/290 273/402/292
f 247/372/325 273/402/292 275/403/294
f 275/403/294 277/404/293 249/375/327
f 277/404/293 279/405/296 250/376/328
f 279/405/296 281/406/298 251/378/330
f 281/406/298 283/557/300 252/380/332
f 283/407/300 285/558/304 253/382/334
f 253/382/334 285/558/304 287/408/306
f 254/386/337 287/408/306 289/409/308
f 255/388/339 289/409/308 291/410/309
f 256/390/341 291/410/309 257/395/277
f 330/411/344 293/415/347 294/412/29
f 333/414/346 295/417/190 293/415/347
f 335/416/348 296/419/350 295/417/190
f 337/418/349 297/483/406 296/419/350
f 298/420/351 297/483/406 337/418/349
f 299/422/353 298/420/351 339/421/352
f 300/424/355 299/422/353 341/423/354
f 301/426/357 300/424/355 343/425/356
f 302/428/359 301/426/357 345/427/358
f 349/430/361 303/432/363 302/428/359
f 351/431/362 304/434/365 303/432/363
f 353/433/364 305/436/367 304/434/365
f 355/435/366 306/484/382 305/436/367
f 307/437/368 306/559/382 355/438/366
f 308/440/370 307/437/368 357/439/369
f 309/442/372 308/440/370 359/441/371
f 310/444/374 309/442/372 361/443/373
f 294/412/29 310/444/374 363/445/375
f 311/446/376 312/482/28 332/447/377
f 313/449/379 311/446/376 331/448/378
f 314/451/299 313/449/379 334/450/380
f 315/453/382 314/451/299 336/452/381
f 315/453/382 338/454/283 340/455/383
f 316/456/384 340/455/383 342/457/385
f 317/458/386 342/457/385 344/459/387
f 318/460/388 344/459/387 346/461/389
f 319/462/374 346/461/389 348/463/390
f 321/465/391 320/464/29 348/463/390
f 322/467/393 321/465/391 350/466/392
f 323/469/395 322/467/393 352/468/394
f 324/471/397 323/469/395 354/470/396
f 325/473/399 324/560/397 356/474/398
f 325/473/399 358/475/400 360/476/401
f 326/477/402 360/476/401 362/478/308
f 327/479/403 362/478/308 364/480/404
f 328/481/405 364/480/404 332/447/377
f 331/448/378 332/447/377 294/412/29
f 334/450/380 331/448/378 293/415/347
f 336/452/381 334/450/380 295/417/190
f 338/454/283 336/452/381 296/419/350
f 340/455/383 338/454/283 297/483/406
f 340/455/383 298/420/351 299/422/353
f 342/457/385 299/422/353 300/424/355
f 344/459/387 300/424/355 301/426/357
f 346/461/389 301/426/357 302/428/359
f 350/466/392 348/463/390 302/428/359
f 352/468/394 350/466/392 303/432/363
f 354/470/396 352/468/394 304/434/365
f 356/472/398 354/470/396 305/436/367
f 356/474/398 306/559/382 307/437/368
f 358/475/400 307/437/368 308/440/370
f 360/476/401 308/440/370 309/442/372
f 310/444/374 364/480/404 362/478/308
f 294/412/29 332/447/377 364/480/404
f 329/485/345 312/482/28 311/446/376
f 330/486/344 311/446/376 313/449/379
f 333/487/346 313/449/379 314/451/299
f 335/488/348 314/451/299 315/453/382
f 339/490/352 337/489/349 315/453/382
f 341/491/354 339/490/352 316/456/384
f 343/492/356 341/491/354 317/458/386
f 345/493/358 343/492/356 318/460/388
f 347/494/360 345/493/358 319/462/374
f 347/494/360 320/464/29 321/465/391
f 349/495/361 321/465/391 322/467/393
f 351/496/362 322/467/393 323/469/395
f 353/497/364 323/469/395 324/471/397
f 355/499/366 324/560/397 325/473/399
f 359/501/371 357/500/369 325/473/399
f 361/502/373 359/501/371 326/477/402
f 363/503/375 361/502/373 327/479/403
f 329/485/345 363/503/375 328/481/405
f 367/504/35 368/561/35 366/505/35
f 370/507/15 372/562/15 371/508/15
f 366/510/169 370/563/169 369/511/169
f 368/513/28 372/564/28 370/514/28
f 368/516/33 367/565/33 371/517/33
f 365/519/29 369/566/29 371/520/407
